<svg width="240" height="227" viewBox="0 0 240 227" fill="none" xmlns="http://www.w3.org/2000/svg">
<circle cx="126.357" cy="112.554" r="92" transform="rotate(-14.8621 126.357 112.554)" fill="#EADC49"/>
<path d="M102.44 23.8554L126.277 67.011L150.321 23.9707L149.387 73.263L191.73 48.0111L166.275 90.2324L215.571 89.5353L172.415 113.372L215.456 137.417L166.163 136.482L191.415 178.826L149.194 153.37L149.891 202.666L126.054 159.511L102.01 202.551L102.944 153.259L60.6007 178.511L86.0561 136.289L36.7598 136.987L79.9155 113.15L36.8751 89.1052L86.1674 90.0396L60.9156 47.6963L103.137 73.1517L102.44 23.8554Z" fill="#2056C6"/>
<path d="M125.819 75.7532L126.254 76.5411L126.693 75.7553L145.344 42.369L144.619 80.6049L144.602 81.5048L145.375 81.0438L178.221 61.456L158.475 94.2069L158.01 94.9777L158.911 94.965L197.149 94.4242L163.674 112.914L162.886 113.35L163.672 113.789L197.058 132.44L158.822 131.715L157.922 131.698L158.383 132.471L177.971 165.317L145.22 145.571L144.449 145.106L144.462 146.006L145.003 184.245L126.512 150.769L126.077 149.982L125.638 150.767L106.987 184.154L107.712 145.918L107.729 145.018L106.956 145.479L74.1104 165.067L93.8561 132.316L94.3208 131.545L93.4208 131.558L55.1818 132.098L88.6575 113.608L89.4454 113.173L88.6596 112.734L55.2733 94.0828L93.5092 94.8076L94.4092 94.8246L93.9481 94.0516L74.3604 61.2061L107.111 80.9517L107.882 81.4165L107.869 80.5164L107.329 42.2775L125.819 75.7532Z" fill="#2056C6" stroke="white"/>
<path d="M108.215 94.0423C107.251 91.422 105.84 90.1616 104.352 90.5566C103.308 90.8336 102.334 91.9198 102.031 93.1175C101.548 94.9631 101.788 98.438 101.98 100.332C102.064 101.117 102.139 101.635 102.145 101.654C102.142 101.8 102.037 101.952 101.878 101.973C101.713 101.976 101.58 101.866 101.558 101.706C101.558 101.706 101.502 101.183 101.413 100.379C101.154 98.2336 100.015 91.211 97.5009 91.4849C96.8811 91.5666 96.3679 91.9718 95.9715 92.7392C94.6129 95.4172 95.2693 101.244 96.3071 103.907C97.2537 106.304 99.1719 107.45 101.423 106.108C103.04 105.183 103.632 102.894 103.627 102.875C103.66 102.763 103.741 102.679 103.838 102.653C103.876 102.643 103.895 102.638 103.939 102.647C104.066 102.655 104.174 102.75 104.21 102.886C104.215 102.905 104.464 104.391 105.283 104.98C105.581 105.17 105.888 105.234 106.26 105.155C106.845 105.021 107.534 104.342 108.039 103.359C109.054 101.414 109.625 97.9515 108.215 94.0423ZM117.615 93.6377C116.475 93.9404 115.397 94.5574 114.526 95.4093C115.019 95.9406 115.574 96.083 116.178 95.8609C116.911 95.5835 117.578 94.7443 118.065 93.539C117.905 93.5607 117.77 93.5967 117.615 93.6377ZM121.235 94.3326C120.678 93.7148 119.805 93.3878 118.704 93.4522C118.178 94.9782 117.325 96.0529 116.384 96.4061C116.307 96.4266 116.23 96.4471 116.152 96.4676C115.63 96.6061 114.864 96.6026 114.125 95.8468C113.667 96.3822 113.307 96.9744 113.045 97.6234C112.998 97.7599 112.849 97.8202 112.717 97.793C112.586 97.7658 112.473 97.651 112.475 97.5054L112.478 91.9799C112.476 91.815 112.591 91.7017 112.731 91.6851C112.891 91.6634 113.024 91.7731 113.045 91.9329C113.05 91.9522 113.382 93.7472 114.175 94.9437C115.099 94.0572 116.249 93.4003 117.467 93.0771C117.737 93.0053 118.013 92.9528 118.289 92.9003C118.974 90.6492 118.903 87.7298 117.548 86.5996C116.807 85.9893 115.509 85.8576 114.079 86.2372C111.469 86.9297 108.771 89.239 109.058 92.6598C109.588 98.789 110.306 102.82 115.362 102.926C115.925 102.942 116.468 102.881 116.99 102.743C119.445 102.091 120.937 99.9158 121.493 98.1128C121.975 96.5778 121.871 95.0948 121.235 94.3326ZM125.834 89.0978C125.839 89.1172 125.863 89.1314 125.888 89.1456C126.203 89.4758 126.66 89.5613 127.284 89.4165C128.222 89.2089 129.115 88.5169 129.732 87.5669C127.926 87.8597 126.664 88.4843 125.834 89.0978ZM134.267 89.2188C133.608 87.904 132.372 87.3008 130.695 87.456C130.632 87.452 130.555 87.4725 130.472 87.4737C129.778 88.7548 128.647 89.7171 127.414 89.9822C126.591 90.159 125.934 90.023 125.462 89.5689C125.433 89.5354 125.403 89.5018 125.373 89.4683C124.569 90.1785 124.296 90.7888 124.282 90.8133C124.183 90.9845 124.072 91.0346 123.935 90.9881C123.799 90.9415 123.694 90.7829 123.741 90.6464L124.836 85.8037C124.877 85.6479 125.021 85.5682 125.172 85.5902C125.328 85.6317 125.427 85.7709 125.41 85.941C125.315 86.442 125.198 87.7147 125.53 88.5783C126.505 87.8851 127.961 87.2092 130.101 86.9309C130.304 86.5253 130.452 86.072 130.518 85.6199C130.788 84.1412 130.334 82.8962 129.237 82.194C128.008 81.3822 125.653 81.9449 123.556 83.5566C121.474 85.1439 119.582 87.8393 120.511 90.7173C120.846 91.7457 121.37 92.3931 122.072 92.6207C123.265 92.9867 124.733 92.1215 125.063 91.8062C127.183 89.8158 130.658 89.887 130.701 89.896C130.866 89.8937 130.985 90.0278 130.968 90.1978C130.97 90.3627 130.836 90.4811 130.671 90.4835C130.501 90.4665 127.492 90.3547 125.615 92.0942L125.4 92.2962C124.75 92.9653 124.292 93.8937 124.17 95.147C123.949 97.3575 125.03 98.3122 125.987 98.7204C127.998 99.5938 131.042 98.7446 132.766 96.8181C134.652 94.7243 135.321 91.3188 134.267 89.2188ZM146.345 81.7512C145.186 80.4241 143.211 79.7685 140.919 79.9422C138.244 80.1554 135.774 81.4524 134.617 83.2495C133.274 85.3645 133.657 88.3668 134.888 89.2611C135.829 89.9218 137.134 89.3063 138.545 87.525C138.736 87.3088 139.243 87.1947 139.235 87.6314C139.245 87.6701 139.144 92.7459 141.306 94.3448C142.008 94.8829 142.877 94.9625 143.959 94.5928C145.842 93.9689 147.226 92.4014 147.829 90.1515C148.631 87.2486 147.982 83.6341 146.345 81.7512ZM142.839 89.5928C142.875 89.7281 142.77 89.88 142.635 89.9159C142.615 89.921 142.615 89.921 142.596 89.9261C142.436 89.9478 142.284 89.8433 142.263 89.6835L141.798 86.372C141.776 86.2122 141.881 86.0603 142.04 86.0386C142.2 86.0169 142.352 86.1214 142.374 86.2812L142.839 89.5928Z" fill="white"/>
<path d="M113.332 109.072C112.778 108.309 111.934 108.016 110.874 108.152C109.838 108.303 108.275 108.573 106.709 108.988C103.964 109.717 100.79 111.014 101.19 113.143C101.51 114.817 101.943 116.606 102.864 117.189C103.236 117.421 103.658 117.454 104.161 117.321C104.547 117.218 104.972 117.023 105.447 116.71C105.486 116.7 105.505 116.695 105.544 116.685C105.621 116.664 105.709 116.682 105.763 116.73C105.861 116.787 105.911 116.898 105.898 117.005C105.894 117.068 105.124 122.197 107.208 124.127C107.872 124.758 109.122 124.943 110.436 124.594C111.809 124.23 112.927 123.375 113.282 122.453C113.53 121.828 113.424 121.194 113.002 120.541C110.841 117.307 109.425 116.027 109.42 116.008C109.312 115.912 109.276 115.777 109.347 115.655C109.399 115.538 109.529 115.482 109.66 115.51C109.68 115.504 110.769 115.712 111.832 115.43C112.683 115.204 113.302 114.729 113.626 114.002C114.237 112.64 114.297 110.368 113.332 109.072ZM129.256 115.048C128.165 113.041 125.669 113.227 123.775 113.73C123.175 113.889 122.688 114.08 122.37 114.206C122.201 114.272 122.032 114.337 121.863 114.403C121.714 114.463 121.553 114.402 121.492 114.253C121.432 114.103 121.493 113.942 121.637 113.863C121.637 113.863 121.82 113.773 122.138 113.647C124.992 112.393 126.71 110.364 126.728 108.249C126.752 106.939 126.071 105.775 124.938 105.248C124.156 104.876 122.992 104.854 121.639 105.213C118.333 106.09 114.914 108.88 114.782 112.516C114.635 116.404 115.856 120.383 117.589 121.765C118.168 122.232 118.767 122.384 119.366 122.225C119.424 122.209 119.501 122.189 119.554 122.154C120.104 121.967 120.449 121.627 120.65 121.139C121.245 119.636 120.06 117.199 119.906 116.929C119.89 116.871 119.885 116.852 119.885 116.852C119.805 116.707 119.861 116.527 120.011 116.467C120.025 116.442 120.044 116.437 120.063 116.432C120.199 116.396 120.34 116.462 120.391 116.573C120.391 116.573 120.401 116.612 120.436 116.664C120.635 117.025 122.379 120.246 124.755 120.857C125.223 120.981 125.756 120.964 126.317 120.815C127.67 120.456 128.882 119.41 129.422 118.17C129.727 117.447 129.949 116.333 129.256 115.048ZM120.184 112.986C120.2 113.126 120.11 113.254 119.975 113.29C119.955 113.295 119.955 113.295 119.936 113.3C119.776 113.322 119.624 113.217 119.602 113.057L119.143 109.765C119.121 109.605 119.226 109.454 119.385 109.432C119.545 109.41 119.697 109.515 119.719 109.674L120.184 112.986ZM133.79 102.154C133.266 101.506 132.548 101.138 131.776 101.115C131.524 101.1 131.281 101.123 131.049 101.184C129.735 101.533 128.789 102.881 128.754 104.463C128.741 104.963 128.812 105.461 128.973 105.915C129.136 105.748 129.323 105.595 129.515 105.461C129.971 105.153 130.448 104.923 130.893 104.805C132.13 104.477 133.315 104.887 134.334 105.92C134.498 105.525 134.589 105.087 134.592 104.631C134.612 103.694 134.338 102.815 133.79 102.154ZM134.071 106.487C133.282 105.62 132.279 105.038 131.042 105.366C130.655 105.469 130.25 105.659 129.827 105.937C129.602 106.1 129.42 106.272 129.248 106.483C129.751 107.364 130.608 107.943 131.569 107.978C131.817 107.975 132.059 107.952 132.291 107.89C133.026 107.695 133.654 107.177 134.071 106.487ZM135.986 110.117C135.773 109.47 135.282 108.09 134.446 106.966C133.957 107.696 133.271 108.23 132.44 108.451C132.15 108.528 131.85 108.566 131.558 108.56C130.471 108.518 129.531 107.94 128.922 107.046C128.069 108.824 128.66 111.751 129.807 114.281C131.36 117.717 133.708 120.012 135.235 119.607C135.293 119.592 135.326 119.562 135.384 119.547C137.039 118.921 137.331 114.25 135.986 110.117ZM147.388 100.035C146.833 99.2717 145.99 98.9783 144.929 99.1148C143.893 99.2656 142.33 99.5355 140.765 99.9511C138.02 100.68 134.846 101.977 135.246 104.106C135.566 105.78 135.999 107.568 136.919 108.152C137.291 108.384 137.714 108.417 138.216 108.283C138.603 108.181 139.027 107.985 139.503 107.673C139.542 107.663 139.561 107.658 139.6 107.647C139.677 107.627 139.765 107.645 139.819 107.693C139.916 107.749 139.967 107.86 139.954 107.967C139.95 108.03 139.179 113.16 141.264 115.089C141.928 115.72 143.178 115.906 144.492 115.557C145.865 115.193 146.983 114.337 147.338 113.415C147.586 112.791 147.48 112.157 147.058 111.503C144.896 108.27 143.481 106.99 143.476 106.971C143.368 106.875 143.332 106.74 143.403 106.617C143.454 106.5 143.585 106.445 143.716 106.472C143.735 106.467 144.825 106.675 145.888 106.392C146.739 106.167 147.358 105.692 147.682 104.965C148.293 103.602 148.352 101.331 147.388 100.035ZM121.947 130.872C120.68 128.436 118.966 128.683 118.483 128.812C118.425 128.827 118.405 128.832 118.405 128.832C116.074 129.637 113.717 135.105 113.805 139.489C113.834 141.55 114.43 144.185 117.018 144.968C117.758 145.185 118.452 145.229 119.09 145.059C120.231 144.757 121.144 143.832 121.83 142.284C123.385 138.788 123.165 133.28 121.947 130.872ZM119.194 139.135C119.216 139.294 119.106 139.427 118.971 139.463C118.971 139.463 118.952 139.468 118.932 139.473C118.772 139.495 118.64 139.385 118.618 139.225L118.134 135.919C118.112 135.759 118.217 135.607 118.377 135.586C118.536 135.564 118.693 135.688 118.715 135.847L119.194 139.135ZM135.201 129.9C133.633 127.109 131.691 125.72 129.971 126.177C129.894 126.197 129.816 126.218 129.739 126.238C128.967 126.526 128.503 126.96 128.298 127.593C127.782 129.158 128.934 131.625 130.19 133.32C131.294 134.827 132.238 136.046 132.243 136.065C132.318 136.19 132.301 136.36 132.181 136.454C132.061 136.548 131.872 136.536 131.778 136.416C131.743 136.363 130.837 135.134 129.725 133.671C127.52 130.821 125.469 129.565 124.232 129.893C124.136 129.919 124.039 129.944 123.967 129.984C122.835 130.554 123.097 134.581 124.494 138.287C125.457 140.825 127.071 143.397 128.679 142.908C129.268 142.71 129.642 142.404 129.844 141.916C130.228 140.945 129.848 139.204 128.591 137.117C128.039 136.208 127.623 135.574 127.598 135.559C127.518 135.415 127.574 135.235 127.699 135.16C127.824 135.086 127.999 135.122 128.093 135.242C128.118 135.256 128.501 135.92 129.086 136.799C130.247 138.602 132.645 141.4 134.791 140.831C135.197 140.723 135.591 140.494 135.974 140.144C137.97 138.228 137.128 133.341 135.201 129.9ZM141.351 128.434C141.356 128.453 141.38 128.467 141.405 128.481C141.72 128.811 142.177 128.897 142.801 128.752C143.739 128.545 144.632 127.853 145.249 126.903C143.443 127.195 142.181 127.82 141.351 128.434ZM149.784 128.555C149.125 127.24 147.889 126.637 146.212 126.792C146.149 126.788 146.072 126.808 145.989 126.809C145.295 128.09 144.164 129.053 142.93 129.318C142.108 129.495 141.451 129.359 140.979 128.905C140.95 128.871 140.92 128.838 140.89 128.804C140.086 129.514 139.813 130.125 139.799 130.149C139.699 130.32 139.589 130.37 139.452 130.324C139.316 130.277 139.211 130.119 139.258 129.982L140.352 125.139C140.394 124.984 140.538 124.904 140.689 124.926C140.845 124.967 140.944 125.107 140.927 125.277C140.832 125.778 140.715 127.05 141.047 127.914C142.022 127.221 143.478 126.545 145.618 126.267C145.821 125.861 145.969 125.408 146.035 124.956C146.305 123.477 145.851 122.232 144.754 121.53C143.525 120.718 141.17 121.281 139.073 122.892C136.991 124.48 135.099 127.175 136.028 130.053C136.363 131.081 136.887 131.729 137.589 131.956C138.782 132.322 140.25 131.457 140.58 131.142C142.7 129.151 146.175 129.223 146.218 129.232C146.383 129.229 146.502 129.363 146.485 129.534C146.487 129.698 146.353 129.817 146.188 129.819C146.018 129.802 143.009 129.69 141.132 131.43L140.917 131.632C140.267 132.301 139.809 133.229 139.687 134.483C139.466 136.693 140.547 137.648 141.504 138.056C143.515 138.929 146.559 138.08 148.283 136.154C150.169 134.06 150.838 130.654 149.784 128.555Z" fill="white"/>
<path d="M29.0301 191.202L29.1658 191.834L29.7979 191.97L46.237 195.5L29.7979 199.03L29.1658 199.166L29.0301 199.798L25.5 216.237L21.9699 199.798L21.8342 199.166L21.2021 199.03L4.76302 195.5L21.2021 191.97L21.8342 191.834L21.9699 191.202L25.5 174.763L29.0301 191.202Z" stroke="#FDD0E5" stroke-width="2"/>
</svg>
