<svg width="290" height="245" viewBox="0 0 290 245" fill="none" xmlns="http://www.w3.org/2000/svg">
<circle cx="87" cy="90.7827" r="87" fill="black"/>
<circle cx="86.3692" cy="91.4132" r="34.6739" fill="#B86F8E"/>
<circle cx="86.3696" cy="91.413" r="28.1196" stroke="black" stroke-width="0.5"/>
<circle cx="86.9994" cy="90.7826" r="3.78261" fill="black"/>
<path d="M32.1518 104.652L33.7567 113.551L41.6084 115.37L33.7567 117.189L32.1518 126.087L30.547 117.189L22.6953 115.37L30.547 113.551L32.1518 104.652Z" fill="#D9D9D9"/>
<path d="M133.022 39.0869L134.627 47.9855L142.478 49.8043L134.627 51.6231L133.022 60.5217L131.417 51.6231L123.565 49.8043L131.417 47.9855L133.022 39.0869Z" fill="#D9D9D9"/>
<path d="M34.0387 62.0728C33.0852 62.4345 32.1503 63.6392 31.4753 65.3938C31.1306 66.2898 30.8203 67.2633 30.7728 68.1665L30.7641 69.7488C30.744 69.9125 30.6377 70.0217 30.4855 70.0274C30.3333 70.0331 30.1983 69.9383 30.1739 69.7789L30.1856 68.1334C30.2044 65.912 29.8186 62.0135 28.1286 60.6133C27.6218 60.204 27.0403 60.0445 26.3252 60.1766C25.6804 60.2928 25.2755 60.5656 25.1031 61.0136C24.3347 63.0109 27.8651 67.9264 29.3066 69.6381C29.4086 69.7631 29.3813 69.9454 29.275 70.0545C29.1501 70.1565 28.9792 70.155 28.8586 70.0229C28.8284 69.9899 25.8722 66.9239 23.5646 67.129C22.8783 67.1864 22.311 67.5467 21.863 68.2101C21.8084 68.2962 21.7725 68.3896 21.7366 68.4829C20.9179 70.6108 25.5196 75.0813 29.6864 77.0059C31.0016 77.5976 34.1448 78.7854 35.196 76.8327C35.2578 76.7278 35.3009 76.6159 35.344 76.5039C36.1914 74.3012 33.2321 72.6913 31.8982 72.0924C31.3756 71.8913 31.0467 71.7434 31.0281 71.7362C30.8859 71.6601 30.8357 71.5122 30.8931 71.3628C30.9506 71.2135 31.1057 71.1446 31.2622 71.1834C31.2622 71.1834 31.6168 71.3198 32.1137 71.5324C34.0506 72.2347 37.4365 72.9588 38.5797 70.0986L38.6013 70.0426C39.5492 67.5786 38.3089 64.7871 36.7468 63.2218C35.7719 62.2467 34.7409 61.8072 34.0387 62.0728Z" fill="white"/>
<path d="M43.2853 43.3005C43.2983 43.3157 43.3265 43.3179 43.3547 43.32C43.7823 43.4801 44.2312 43.3581 44.7297 42.9562C45.484 42.361 45.9861 41.3496 46.1281 40.2257C44.6302 41.2751 43.7659 42.3867 43.2853 43.3005ZM50.9304 39.7389C49.7645 38.8421 48.3892 38.8371 46.9475 39.7064C46.889 39.7303 46.8283 39.7824 46.7546 39.8194C46.6867 41.2751 46.0873 42.6337 45.0925 43.4092C44.4292 43.9262 43.7786 44.0896 43.1558 43.8864C43.1145 43.8691 43.0733 43.8518 43.0321 43.8345C42.6166 44.8241 42.6369 45.4923 42.6348 45.5205C42.6198 45.7179 42.5418 45.8112 42.3986 45.8288C42.2555 45.8463 42.0927 45.7488 42.0752 45.6057L40.9527 40.7693C40.9222 40.611 41.0175 40.4764 41.1628 40.4307C41.3211 40.4002 41.4709 40.4824 41.5296 40.6429C41.6625 41.1352 42.1107 42.3321 42.786 42.9648C43.3619 41.9164 44.378 40.6745 46.1837 39.4924C46.1897 39.039 46.1263 38.5662 45.9891 38.1303C45.5884 36.6817 44.6373 35.7586 43.3442 35.6038C41.884 35.408 40.0092 36.9394 38.823 39.303C37.639 41.6385 37.1088 44.8887 39.1981 47.0752C39.9474 47.8554 40.7005 48.2103 41.4314 48.1097C42.6656 47.9197 43.6098 46.5021 43.7699 46.0746C44.8126 43.3596 47.9717 41.9114 48.015 41.9005C48.1625 41.8266 48.3274 41.8959 48.3862 42.0563C48.4601 42.2038 48.3908 42.3687 48.2434 42.4426C48.0829 42.5014 45.3249 43.7105 44.3925 46.0934L44.2865 46.369C43.9925 47.2544 43.9849 48.2892 44.4201 49.471C45.1837 51.557 46.5725 51.946 47.6116 51.8971C49.8025 51.808 52.1734 49.7185 52.8866 47.2339C53.6733 44.5279 52.7932 41.1708 50.9304 39.7389Z" fill="white"/>
<path d="M75.4007 25.2489C74.2834 23.8864 72.3306 23.1697 70.0342 23.272C67.354 23.4018 64.8449 24.6211 63.6317 26.3813C62.2241 28.4536 62.5132 31.4663 63.7154 32.3984C64.6353 33.0882 65.9596 32.5136 67.4247 30.7771C67.6223 30.5669 68.1333 30.4687 68.1114 30.905C68.1205 30.9439 67.861 36.0142 69.9726 37.6796C70.657 38.2392 71.5236 38.3459 72.6159 38.01C74.5174 37.4451 75.9498 35.9215 76.6227 33.6914C77.5149 30.8149 76.979 27.1819 75.4007 25.2489ZM71.6522 32.9776C71.6839 33.1139 71.5747 33.2625 71.4383 33.2942C71.4189 33.2987 71.4189 33.2987 71.3994 33.3032C71.239 33.3199 71.0904 33.2107 71.0737 33.0503L70.7121 29.7259C70.6954 29.5656 70.8046 29.417 70.965 29.4003C71.1254 29.3836 71.2739 29.4928 71.2906 29.6532L71.6522 32.9776Z" fill="white"/>
<path d="M106.008 25.5559C105.899 24.6187 105.308 23.9493 104.317 23.5482C103.34 23.1715 101.846 22.6402 100.277 22.2343C97.5279 21.5228 94.1261 21.0971 93.4301 23.1481C92.8881 24.7638 92.3884 26.5351 92.9044 27.495C93.1146 27.8799 93.4668 28.1157 93.9702 28.246C94.3575 28.3462 94.8228 28.384 95.3907 28.345C95.4294 28.355 95.4488 28.36 95.4875 28.37C95.565 28.3901 95.6324 28.4488 95.6561 28.5169C95.7135 28.6144 95.7028 28.7356 95.639 28.8224C95.6046 28.8755 92.4179 32.9676 93.2881 35.6719C93.5574 36.5473 94.5552 37.3219 95.8718 37.6626C97.2465 38.0184 98.6404 37.8213 99.4023 37.1921C99.9248 36.7695 100.143 36.1649 100.096 35.3884C99.7983 31.5101 99.1923 29.7006 99.1973 29.6812C99.15 29.545 99.185 29.4095 99.3069 29.3377C99.4094 29.2609 99.5499 29.2766 99.6511 29.3648C99.6704 29.3698 100.518 30.085 101.583 30.3606C102.435 30.581 103.207 30.471 103.847 29.996C105.047 29.1085 106.213 27.1583 106.008 25.5559Z" fill="white"/>
<circle cx="200.502" cy="155.502" r="63.1138" transform="rotate(37.5436 200.502 155.502)" fill="#FFDF50"/>
<ellipse cx="215.153" cy="136.438" rx="15.0271" ry="24.0434" transform="rotate(37.5436 215.153 136.438)" fill="#301A1A"/>
<ellipse cx="185.852" cy="174.565" rx="15.0271" ry="24.0434" transform="rotate(37.5436 185.852 174.565)" fill="#301A1A"/>
<ellipse cx="181.438" cy="140.851" rx="15.0271" ry="24.0434" transform="rotate(-52.4564 181.438 140.851)" fill="#301A1A"/>
<ellipse cx="219.565" cy="170.153" rx="15.0271" ry="24.0434" transform="rotate(-52.4564 219.565 170.153)" fill="#301A1A"/>
<circle cx="200.594" cy="156.204" r="10.519" transform="rotate(-52.4564 200.594 156.204)" fill="#FFDF50"/>
<path d="M210.03 40.2021L210.166 40.8342L210.798 40.9699L227.237 44.5L210.798 48.0301L210.166 48.1658L210.03 48.7979L206.5 65.237L202.97 48.7979L202.834 48.1658L202.202 48.0301L185.763 44.5L202.202 40.9699L202.834 40.8342L202.97 40.2021L206.5 23.763L210.03 40.2021Z" fill="#FDD0E5" stroke="#FDD0E5" stroke-width="2"/>
</svg>
