<svg width="283" height="354" viewBox="0 0 283 354" fill="none" xmlns="http://www.w3.org/2000/svg">
<rect x="8" y="7" width="275" height="340" fill="#DA505A"/>
<path d="M47.1468 131.781C48.0449 129.017 51.9551 129.017 52.8532 131.781L52.9187 131.983C53.3203 133.219 54.4722 134.056 55.7719 134.056H55.9839C58.89 134.056 60.0984 137.775 57.7472 139.483L57.5757 139.607C56.5242 140.371 56.0843 141.725 56.4859 142.961L56.5514 143.163C57.4494 145.927 54.286 148.225 51.9349 146.517L51.7634 146.393C50.7119 145.629 49.2881 145.629 48.2366 146.393L48.0651 146.517C45.714 148.225 42.5506 145.927 43.4486 143.163L43.5141 142.961C43.9157 141.725 43.4758 140.371 42.4243 139.607L42.2528 139.483C39.9016 137.775 41.11 134.056 44.0161 134.056H44.2282C45.5278 134.056 46.6797 133.219 47.0813 131.983L47.1468 131.781Z" fill="#ECB784"/>
<path d="M6.14683 233.781C7.04489 231.017 10.9551 231.017 11.8532 233.781L11.9187 233.983C12.3203 235.219 13.4722 236.056 14.7719 236.056H14.9839C17.89 236.056 19.0984 239.775 16.7472 241.483L16.5757 241.607C15.5242 242.371 15.0843 243.725 15.4859 244.961L15.5514 245.163C16.4494 247.927 13.286 250.225 10.9349 248.517L10.7634 248.393C9.71189 247.629 8.28811 247.629 7.23664 248.393L7.06513 248.517C4.71399 250.225 1.55055 247.927 2.44861 245.163L2.51412 244.961C2.91574 243.725 2.47577 242.371 1.4243 241.607L1.25279 241.483C-1.09835 239.775 0.109975 236.056 3.01615 236.056H3.22815C4.52783 236.056 5.6797 235.219 6.08132 233.983L6.14683 233.781Z" fill="#ECB784"/>
<path d="M245.249 293.814C247.595 292.099 250.766 294.387 249.876 297.154L249.811 297.356C249.414 298.593 249.858 299.946 250.912 300.707L251.084 300.831C253.44 302.532 252.243 306.254 249.337 306.263L249.125 306.264C247.826 306.268 246.676 307.108 246.279 308.346L246.214 308.548C245.324 311.314 241.414 311.327 240.507 308.565L240.441 308.364C240.036 307.129 238.881 306.296 237.582 306.3L237.37 306.301C234.463 306.31 233.244 302.595 235.589 300.879L235.76 300.754C236.809 299.987 237.245 298.631 236.84 297.396L236.774 297.195C235.867 294.434 239.023 292.126 241.38 293.827L241.552 293.951C242.605 294.711 244.029 294.707 245.078 293.94L245.249 293.814Z" fill="#FDD0E5"/>
<path d="M63.8679 325.452C66.4908 326.703 65.9801 330.58 63.1225 331.109L62.9141 331.148C61.6361 331.385 60.656 332.417 60.4862 333.706L60.4585 333.916C60.0789 336.797 56.2341 337.51 54.8476 334.956L54.7465 334.769C54.1264 333.627 52.8414 333.014 51.5635 333.251L51.355 333.289C48.4975 333.819 46.632 330.382 48.6326 328.274L48.7786 328.12C49.6733 327.178 49.8593 325.766 49.2392 324.624L49.1381 324.438C47.7516 321.883 50.4435 319.047 53.0665 320.299L53.2578 320.39C54.4308 320.95 55.8308 320.69 56.7255 319.748L56.8715 319.594C58.8722 317.486 62.4013 319.17 62.0217 322.051L61.994 322.261C61.8243 323.55 62.5035 324.801 63.6765 325.361L63.8679 325.452Z" fill="#FDD0E5"/>
<path d="M83.5753 7.58867C86.3215 8.53946 86.2467 12.449 83.4661 13.294L83.2632 13.3556C82.0197 13.7335 81.1609 14.8691 81.1361 16.1686L81.132 16.3806C81.0764 19.2862 77.3351 20.4231 75.6722 18.0397L75.5509 17.8658C74.8072 16.8 73.4618 16.3342 72.2183 16.712L72.0154 16.7737C69.2348 17.6187 66.9974 14.4118 68.7503 12.0938L68.8782 11.9247C69.6621 10.8881 69.6893 9.46454 68.9457 8.39865L68.8244 8.22479C67.1615 5.84138 69.52 2.72251 72.2662 3.6733L72.4665 3.74266C73.6947 4.16786 75.057 3.75388 75.8409 2.71723L75.9687 2.54813C77.7216 0.230116 81.4167 1.50939 81.3611 4.41503L81.357 4.627C81.3321 5.92644 82.1468 7.09411 83.375 7.51931L83.5753 7.58867Z" fill="#FDD0E5"/>
<path d="M47.1468 131.781C48.0449 129.017 51.9551 129.017 52.8532 131.781L52.9187 131.983C53.3203 133.219 54.4722 134.056 55.7719 134.056H55.9839C58.89 134.056 60.0984 137.775 57.7472 139.483L57.5757 139.607C56.5242 140.371 56.0843 141.725 56.4859 142.961L56.5514 143.163C57.4494 145.927 54.286 148.225 51.9349 146.517L51.7634 146.393C50.7119 145.629 49.2881 145.629 48.2366 146.393L48.0651 146.517C45.714 148.225 42.5506 145.927 43.4486 143.163L43.5141 142.961C43.9157 141.725 43.4758 140.371 42.4243 139.607L42.2528 139.483C39.9016 137.775 41.11 134.056 44.0161 134.056H44.2282C45.5278 134.056 46.6797 133.219 47.0813 131.983L47.1468 131.781Z" fill="#ECB784"/>
<path d="M253.147 55.7811C254.045 53.0172 257.955 53.0172 258.853 55.7812L258.919 55.9828C259.32 57.2188 260.472 58.0557 261.772 58.0557H261.984C264.89 58.0557 266.098 61.7746 263.747 63.4828L263.576 63.6074C262.524 64.3713 262.084 65.7254 262.486 66.9615L262.551 67.1631C263.449 69.927 260.286 72.2254 257.935 70.5172L257.763 70.3926C256.712 69.6287 255.288 69.6287 254.237 70.3926L254.065 70.5172C251.714 72.2254 248.551 69.927 249.449 67.1631L249.514 66.9615C249.916 65.7254 249.476 64.3713 248.424 63.6074L248.253 63.4828C245.902 61.7746 247.11 58.0557 250.016 58.0557H250.228C251.528 58.0557 252.68 57.2188 253.081 55.9828L253.147 55.7811Z" fill="#ECB784"/>
<path d="M196.147 337.781C197.045 335.017 200.955 335.017 201.853 337.781L201.919 337.983C202.32 339.219 203.472 340.056 204.772 340.056H204.984C207.89 340.056 209.098 343.775 206.747 345.483L206.576 345.607C205.524 346.371 205.084 347.725 205.486 348.961L205.551 349.163C206.449 351.927 203.286 354.225 200.935 352.517L200.763 352.393C199.712 351.629 198.288 351.629 197.237 352.393L197.065 352.517C194.714 354.225 191.551 351.927 192.449 349.163L192.514 348.961C192.916 347.725 192.476 346.371 191.424 345.607L191.253 345.483C188.902 343.775 190.11 340.056 193.016 340.056H193.228C194.528 340.056 195.68 339.219 196.081 337.983L196.147 337.781Z" fill="#ECB784"/>
<path d="M272.825 1.35614C275.171 -0.359401 278.342 1.92909 277.452 4.69581L277.387 4.89764C276.99 6.13496 277.434 7.48768 278.488 8.24832L278.66 8.3724C281.016 10.0733 279.819 13.7959 276.913 13.8049L276.701 13.8056C275.402 13.8096 274.252 14.6501 273.855 15.8874L273.79 16.0893C272.9 18.856 268.99 18.8682 268.083 16.1071L268.017 15.9057C267.612 14.6709 266.457 13.8376 265.158 13.8416L264.946 13.8423C262.039 13.8514 260.819 10.1363 263.165 8.42078L263.336 8.29563C264.385 7.52842 264.821 6.17295 264.416 4.93814L264.35 4.73672C263.443 1.9756 266.599 -0.332635 268.956 1.36822L269.128 1.4923C270.181 2.25294 271.605 2.2485 272.654 1.48128L272.825 1.35614Z" fill="#FDD0E5"/>
<path d="M272.825 1.35614C275.171 -0.359401 278.342 1.92909 277.452 4.69581L277.387 4.89764C276.99 6.13496 277.434 7.48768 278.488 8.24832L278.66 8.3724C281.016 10.0733 279.819 13.7959 276.913 13.8049L276.701 13.8056C275.402 13.8096 274.252 14.6501 273.855 15.8874L273.79 16.0893C272.9 18.856 268.99 18.8682 268.083 16.1071L268.017 15.9057C267.612 14.6709 266.457 13.8376 265.158 13.8416L264.946 13.8423C262.039 13.8514 260.819 10.1363 263.165 8.42078L263.336 8.29563C264.385 7.52842 264.821 6.17295 264.416 4.93814L264.35 4.73672C263.443 1.9756 266.599 -0.332635 268.956 1.36822L269.128 1.4923C270.181 2.25294 271.605 2.2485 272.654 1.48128L272.825 1.35614Z" fill="#FDD0E5"/>
<path d="M121.053 49.7632C122.512 50.8158 121.836 53.1285 120.059 53.1653C119.276 53.1815 118.596 53.702 118.375 54.4579L118.348 54.548C117.855 56.2359 115.497 56.2468 114.933 54.5638C114.678 53.8021 113.959 53.2916 113.168 53.308C111.421 53.3442 110.596 51.102 111.965 50.0265L112.084 49.9332C112.7 49.4495 112.942 48.6212 112.689 47.8645L112.64 47.7185C112.077 46.0359 113.963 44.6453 115.397 45.6804C116.047 46.149 116.918 46.138 117.538 45.6511C118.908 44.5754 120.864 45.941 120.371 47.6289L120.344 47.7189C120.123 48.4748 120.411 49.2995 121.053 49.7632Z" fill="#ECB784"/>
<path d="M72.9677 228.479C73.6065 230.333 71.5314 231.943 69.944 230.825C69.2342 230.326 68.2859 230.35 67.5967 230.885C66.0552 232.081 63.9183 230.57 64.4736 228.683C64.7218 227.84 64.4071 226.927 63.6978 226.427C62.1129 225.311 62.8518 222.767 64.7835 222.722C65.6503 222.701 66.4072 222.114 66.656 221.269C67.2105 219.385 69.8167 219.333 70.4544 221.184C70.7398 222.013 71.5221 222.563 72.3866 222.543C74.3214 222.498 75.1869 224.995 73.6454 226.191C72.9562 226.726 72.6821 227.65 72.9677 228.479Z" fill="#FDD0E5"/>
<path d="M21.6201 62.9924C20.4856 64.4335 18.2101 63.2401 18.3966 61.3019C18.4796 60.44 18.0252 59.5802 17.2802 59.1895L17.2137 59.1546C15.5413 58.2775 15.6682 55.6752 17.4037 55.2611L17.7576 55.1767C18.518 54.9953 19.0683 54.3226 19.1499 53.4746L19.2022 52.9309C19.3827 51.0552 21.7012 50.7247 22.5506 52.4537C22.9566 53.2802 23.8164 53.7311 24.6205 53.5392C26.3027 53.1379 27.6178 55.374 26.5199 56.7686L26.2017 57.1728C25.7053 57.8033 25.6319 58.7261 26.0159 59.5077L26.1946 59.8714C27.0708 61.6552 25.4661 63.4825 23.7937 62.6054L23.7272 62.5705C22.9822 62.1799 22.1246 62.3516 21.6201 62.9924Z" fill="#FDD0E5"/>
<path d="M265.442 192.531C264.466 194.089 262.067 193.188 262.066 191.264C262.065 190.409 261.526 189.618 260.743 189.324L260.657 189.292C258.899 188.632 258.747 186.069 260.428 185.434L260.853 185.274C261.586 184.997 262.061 184.275 262.06 183.438L262.059 182.772C262.058 180.923 264.33 180.344 265.332 181.938C265.818 182.712 266.732 183.055 267.517 182.758C269.136 182.147 270.683 184.159 269.746 185.656L269.408 186.195C268.984 186.873 269.003 187.78 269.457 188.502L269.72 188.921C270.76 190.577 269.339 192.55 267.581 191.89L267.495 191.858C266.712 191.564 265.875 191.838 265.442 192.531Z" fill="#FDD0E5"/>
<path d="M198.44 122.341C199.898 123.394 199.222 125.707 197.446 125.743C196.663 125.76 195.982 126.28 195.761 127.036L195.735 127.126C195.242 128.814 192.883 128.825 192.32 127.142C192.064 126.38 191.345 125.87 190.554 125.886C188.807 125.922 187.982 123.68 189.352 122.605L189.471 122.511C190.087 122.028 190.329 121.199 190.076 120.443L190.027 120.297C189.463 118.614 191.35 117.223 192.784 118.259C193.433 118.727 194.305 118.716 194.925 118.229C196.295 117.154 198.251 118.519 197.757 120.207L197.731 120.297C197.51 121.053 197.798 121.878 198.44 122.341Z" fill="#ECB784"/>
<path d="M219.923 257.236C221.524 258.371 220.772 260.896 218.822 260.936C217.956 260.954 217.198 261.537 216.95 262.37C216.396 264.23 213.777 264.302 213.148 262.457C212.865 261.626 212.078 261.073 211.207 261.091C209.273 261.13 208.389 258.659 209.919 257.48L209.984 257.43C210.67 256.901 210.942 255.988 210.659 255.161L210.633 255.083C210.003 253.237 212.086 251.681 213.674 252.806C214.388 253.313 215.344 253.297 216.033 252.766C217.563 251.587 219.702 253.126 219.148 254.986C218.9 255.819 219.212 256.732 219.923 257.236Z" fill="#ECB784"/>
<path d="M158.012 223.788C159.613 224.923 158.861 227.448 156.91 227.488C156.044 227.506 155.287 228.089 155.039 228.922C154.485 230.782 151.866 230.854 151.237 229.009C150.954 228.178 150.167 227.625 149.296 227.643C147.361 227.682 146.478 225.211 148.008 224.032L148.073 223.982C148.759 223.453 149.031 222.54 148.748 221.713L148.722 221.635C148.092 219.789 150.174 218.233 151.762 219.358C152.477 219.865 153.433 219.849 154.121 219.318C155.652 218.139 157.791 219.678 157.237 221.538C156.989 222.371 157.301 223.284 158.012 223.788Z" fill="#ECB784"/>
<path d="M119.668 123.421C120.243 125.122 118.365 126.606 116.935 125.581C116.296 125.123 115.439 125.147 114.816 125.639C113.422 126.741 111.496 125.349 111.997 123.614C112.221 122.839 111.936 121.996 111.298 121.538C109.873 120.517 110.532 118.171 112.274 118.13C113.058 118.111 113.745 117.568 113.97 116.79C114.47 115.06 116.826 115.022 117.4 116.717C117.657 117.476 118.365 117.984 119.145 117.965C120.893 117.923 121.678 120.216 120.284 121.318C119.66 121.811 119.411 122.661 119.668 123.421Z" fill="#FDD0E5"/>
<path d="M119.704 123.527C120.272 125.206 118.436 126.657 117.024 125.645L116.921 125.571C116.29 125.118 115.45 125.138 114.84 125.621L114.74 125.699C113.375 126.778 111.477 125.416 111.969 123.712L112.005 123.588C112.225 122.826 111.947 122.004 111.316 121.551L111.213 121.477C109.802 120.466 110.464 118.173 112.18 118.132L112.305 118.129C113.072 118.111 113.741 117.582 113.961 116.82L113.997 116.696C114.489 114.992 116.798 114.937 117.365 116.615L117.407 116.738C117.661 117.488 118.352 117.984 119.119 117.966L119.245 117.963C120.96 117.922 121.724 120.18 120.36 121.258L120.26 121.337C119.65 121.819 119.409 122.654 119.662 123.405L119.704 123.527Z" fill="#FDD0E5"/>
<path d="M209.668 38.2953C210.243 39.9958 208.365 41.4801 206.935 40.4548C206.296 39.9966 205.439 40.0207 204.816 40.5133C203.422 41.6153 201.496 40.2234 201.997 38.488C202.221 37.7133 201.936 36.8702 201.298 36.4125C199.873 35.3906 200.532 33.0455 202.274 33.0037C203.058 32.985 203.745 32.4425 203.97 31.6637C204.47 29.9339 206.826 29.8955 207.4 31.5905C207.657 32.3496 208.365 32.8578 209.145 32.8391C210.893 32.7973 211.678 35.0905 210.284 36.1925C209.66 36.6851 209.411 37.5352 209.668 38.2953Z" fill="#FDD0E5"/>
<path d="M209.704 38.4011C210.272 40.0796 208.436 41.5306 207.024 40.5186L206.921 40.4448C206.29 39.9923 205.45 40.0124 204.84 40.4947L204.74 40.5734C203.375 41.6518 201.477 40.2902 201.969 38.5864L202.005 38.4621C202.225 37.7001 201.947 36.8779 201.316 36.4253L201.213 36.3515C199.802 35.3396 200.464 33.0471 202.18 33.006L202.305 33.003C203.072 32.9846 203.741 32.4563 203.961 31.6943L203.997 31.57C204.489 29.8662 206.798 29.8109 207.365 31.4893L207.407 31.6118C207.661 32.3624 208.352 32.8581 209.119 32.8398L209.245 32.8368C210.96 32.7957 211.724 35.054 210.36 36.1324L210.26 36.2111C209.65 36.6934 209.409 37.5281 209.662 38.2787L209.704 38.4011Z" fill="#FDD0E5"/>
</svg>
