<svg width="36" height="37" viewBox="0 0 36 37" fill="none" xmlns="http://www.w3.org/2000/svg">
<path d="M32.1429 0.5625H3.85714C1.72768 0.5625 0 2.28418 0 4.40625V32.5938C0 34.7158 1.72768 36.4375 3.85714 36.4375H32.1429C34.2723 36.4375 36 34.7158 36 32.5938V4.40625C36 2.28418 34.2723 0.5625 32.1429 0.5625ZM11.6116 23.5449C8.79107 23.5449 6.50893 21.2707 6.50893 18.46C6.50893 15.6492 8.79107 13.375 11.6116 13.375C14.4321 13.375 16.7143 15.6492 16.7143 18.46C16.7143 21.2707 14.4321 23.5449 11.6116 23.5449ZM24.3884 23.5449C21.5679 23.5449 19.2857 21.2707 19.2857 18.46C19.2857 15.6492 21.5679 13.375 24.3884 13.375C27.2089 13.375 29.4911 15.6492 29.4911 18.46C29.4911 21.2707 27.2089 23.5449 24.3884 23.5449Z" fill="#FFDF50"/>
</svg>
