<svg width="324" height="106" viewBox="0 0 324 106" fill="none" xmlns="http://www.w3.org/2000/svg">
<g filter="url(#filter0_di_0_1)">
<path d="M15.7471 30.08C15.0031 30.248 14.1631 30.332 13.2271 30.332C11.6911 30.332 10.3231 30.08 9.12313 29.576C7.49113 28.928 6.67513 27.932 6.67513 26.588C6.67513 25.892 6.85513 25.244 7.21513 24.644C7.64713 23.924 8.25913 23.48 9.05113 23.312C9.36313 23.24 9.67513 23.204 9.98713 23.204C10.4671 23.204 11.1151 23.324 11.9311 23.564C12.7711 23.804 13.4191 23.924 13.8751 23.924C14.1391 23.924 14.4031 23.888 14.6671 23.816C15.4351 23.648 15.7711 23.372 15.6751 22.988C15.6271 22.796 14.7871 22.592 13.1551 22.376C11.1151 22.136 9.54313 21.752 8.43913 21.224C6.63913 20.384 5.53512 19.064 5.12712 17.264C4.98312 16.712 4.91112 16.172 4.91112 15.644C4.91112 13.484 5.83512 11.72 7.68313 10.352C9.36313 9.104 11.3191 8.48 13.5511 8.48C15.0631 8.48 16.3591 8.744 17.4391 9.272C18.8791 9.944 19.5991 10.952 19.5991 12.296C19.5991 13.136 19.3231 13.868 18.7711 14.492C18.2191 15.116 17.5471 15.428 16.7551 15.428C16.3951 15.428 15.7951 15.344 14.9551 15.176C14.1151 14.984 13.4911 14.888 13.0831 14.888C12.5311 14.888 12.1231 14.984 11.8591 15.176C11.6911 15.296 11.6311 15.464 11.6791 15.68C11.7271 15.896 12.5791 16.1 14.2351 16.292C16.2751 16.556 17.8471 16.94 18.9511 17.444C20.7511 18.308 21.8551 19.628 22.2631 21.404C22.3831 21.908 22.4431 22.412 22.4431 22.916C22.4431 24.62 21.8311 26.12 20.6071 27.416C19.4071 28.712 17.7871 29.6 15.7471 30.08ZM33.0567 30.224C30.0567 30.392 27.5367 29.444 25.4967 27.38C23.5287 25.388 22.4607 22.904 22.2927 19.928C22.1487 17 22.9647 14.42 24.7407 12.188C26.5887 9.86 28.9767 8.612 31.9047 8.444C33.4647 8.372 34.9887 8.624 36.4767 9.2C38.3247 9.92 39.2847 10.94 39.3567 12.26C39.4047 13.028 39.2127 13.76 38.7807 14.456C38.2527 15.296 37.5447 15.74 36.6567 15.788C36.1767 15.812 35.4807 15.68 34.5687 15.392C33.6807 15.104 32.9967 14.972 32.5167 14.996C31.4367 15.044 30.6087 15.5 30.0327 16.364C29.4567 17.228 29.2047 18.296 29.2767 19.568C29.3487 20.744 29.7207 21.74 30.3927 22.556C31.0887 23.372 31.9407 23.744 32.9487 23.672C33.4047 23.648 34.0407 23.444 34.8567 23.06C35.6967 22.652 36.3327 22.436 36.7647 22.412C37.6047 22.364 38.3487 22.64 38.9967 23.24C39.6447 23.816 39.9927 24.536 40.0407 25.4C40.1127 26.792 39.2367 27.968 37.4127 28.928C35.9727 29.72 34.5207 30.152 33.0567 30.224ZM47.6493 10.1C48.4173 9.26 49.5333 8.888 50.9973 8.984C51.9093 9.056 52.6653 9.416 53.2653 10.064C53.9133 10.808 54.2013 11.744 54.1293 12.872C54.0573 13.928 53.4693 14.72 52.3653 15.248C51.3333 15.608 50.3013 15.968 49.2693 16.328C48.1653 16.808 47.5773 17.504 47.5053 18.416L46.9653 26.336C46.8693 27.416 46.4733 28.292 45.7773 28.964C45.0813 29.636 44.2173 29.936 43.1853 29.864C42.1773 29.792 41.3733 29.384 40.7733 28.64C40.1733 27.872 39.9093 26.948 39.9813 25.868L40.9533 11.792C41.0493 10.688 41.5053 9.836 42.3213 9.236C43.0413 8.708 43.8573 8.48 44.7693 8.552C46.1853 8.648 47.1453 9.164 47.6493 10.1ZM62.834 30.332C59.834 30.476 57.314 29.516 55.274 27.452C53.306 25.46 52.238 22.976 52.07 20C51.926 17.072 52.742 14.492 54.518 12.26C56.366 9.932 58.754 8.684 61.682 8.516C64.634 8.372 67.142 9.368 69.206 11.504C71.198 13.52 72.278 15.992 72.446 18.92C72.59 21.92 71.798 24.5 70.07 26.66C68.246 28.94 65.834 30.164 62.834 30.332ZM62.042 15.068C61.058 15.116 60.29 15.584 59.738 16.472C59.21 17.336 58.982 18.392 59.054 19.64C59.126 20.84 59.474 21.848 60.098 22.664C60.722 23.456 61.514 23.828 62.474 23.78C63.458 23.732 64.214 23.276 64.742 22.412C65.294 21.548 65.534 20.504 65.462 19.28C65.39 18.056 65.042 17.036 64.418 16.22C63.818 15.404 63.026 15.02 62.042 15.068ZM75.8739 30.08C74.8419 30.008 74.0259 29.6 73.4259 28.856C72.8499 28.088 72.5979 27.152 72.6699 26.048L74.2179 3.944C74.2899 2.864 74.6739 1.988 75.3699 1.316C76.0659 0.643998 76.9299 0.343998 77.9619 0.415999C78.9939 0.487999 79.7979 0.907999 80.3739 1.676C80.9739 2.42 81.2379 3.344 81.1659 4.448L79.6179 26.552C79.5459 27.632 79.1619 28.508 78.4659 29.18C77.7699 29.852 76.9059 30.152 75.8739 30.08ZM83.2918 30.08C82.2598 30.008 81.4438 29.6 80.8438 28.856C80.2678 28.088 80.0158 27.152 80.0878 26.048L81.6358 3.944C81.7078 2.864 82.0918 1.988 82.7878 1.316C83.4838 0.643998 84.3478 0.343998 85.3798 0.415999C86.4118 0.487999 87.2158 0.907999 87.7918 1.676C88.3918 2.42 88.6558 3.344 88.5838 4.448L87.0358 26.552C86.9638 27.632 86.5798 28.508 85.8838 29.18C85.1878 29.852 84.3238 30.152 83.2918 30.08ZM108.514 16.184L107.974 16.04L105.49 26.804C105.274 27.716 104.854 28.448 104.229 29C103.606 29.528 102.874 29.792 102.034 29.792C101.77 29.792 101.494 29.768 101.206 29.72C100.39 29.528 99.7415 29.12 99.2615 28.496C98.7815 27.848 98.5415 27.104 98.5415 26.264C98.5415 25.928 98.5775 25.592 98.6495 25.256L101.17 14.456L100.918 14.42C99.2615 14.036 98.4335 13.052 98.4335 11.468C98.4335 11.18 98.4695 10.892 98.5415 10.604C98.7095 9.86 99.0695 9.272 99.6215 8.84C100.198 8.384 100.846 8.156 101.566 8.156C101.83 8.156 102.082 8.18 102.322 8.228L102.574 8.3L103.078 6.14C103.294 5.252 103.702 4.532 104.302 3.98C104.926 3.428 105.658 3.152 106.498 3.152C106.762 3.152 107.038 3.188 107.326 3.26C108.166 3.452 108.814 3.86 109.27 4.484C109.75 5.108 109.99 5.852 109.99 6.716C109.99 7.052 109.954 7.388 109.882 7.724L109.378 9.884L109.954 9.992C111.73 10.4 112.618 11.396 112.618 12.98C112.618 13.244 112.594 13.532 112.546 13.844C112.162 15.476 111.142 16.292 109.486 16.292C109.174 16.292 108.85 16.256 108.514 16.184ZM121.615 30.332C118.615 30.476 116.095 29.516 114.055 27.452C112.087 25.46 111.019 22.976 110.851 20C110.707 17.072 111.523 14.492 113.299 12.26C115.147 9.932 117.535 8.684 120.463 8.516C123.415 8.372 125.923 9.368 127.987 11.504C129.979 13.52 131.059 15.992 131.227 18.92C131.371 21.92 130.579 24.5 128.851 26.66C127.027 28.94 124.615 30.164 121.615 30.332ZM120.823 15.068C119.839 15.116 119.071 15.584 118.519 16.472C117.991 17.336 117.763 18.392 117.835 19.64C117.907 20.84 118.255 21.848 118.879 22.664C119.503 23.456 120.295 23.828 121.255 23.78C122.239 23.732 122.995 23.276 123.523 22.412C124.075 21.548 124.315 20.504 124.243 19.28C124.171 18.056 123.823 17.036 123.199 16.22C122.599 15.404 121.807 15.02 120.823 15.068ZM144.921 30.08C143.889 30.008 143.073 29.6 142.473 28.856C141.897 28.088 141.645 27.152 141.717 26.048L143.265 3.944C143.337 2.864 143.721 1.988 144.417 1.316C145.113 0.643998 145.977 0.343998 147.009 0.415999C148.041 0.487999 148.845 0.907999 149.421 1.676C150.021 2.42 150.285 3.344 150.213 4.448L148.665 26.552C148.593 27.632 148.209 28.508 147.513 29.18C146.817 29.852 145.953 30.152 144.921 30.08ZM167.473 19.604L158.149 22.844C158.773 23.468 159.577 23.78 160.561 23.78C161.113 23.78 161.689 23.672 162.289 23.456C163.105 23.168 163.993 22.496 164.953 21.44C165.913 20.384 166.645 19.76 167.149 19.568C167.437 19.472 167.725 19.424 168.013 19.424C168.853 19.424 169.585 19.724 170.209 20.324C170.857 20.924 171.181 21.632 171.181 22.448C171.181 23.768 170.365 25.172 168.733 26.66C167.269 28.028 165.661 29.012 163.909 29.612C162.661 30.044 161.413 30.26 160.165 30.26C157.933 30.26 155.929 29.588 154.153 28.244C152.401 26.9 151.129 25.076 150.337 22.772C149.905 21.548 149.689 20.276 149.689 18.956C149.689 16.748 150.253 14.768 151.381 13.016C152.605 11.144 154.273 9.848 156.385 9.128C157.441 8.768 158.509 8.588 159.589 8.588C161.797 8.588 163.849 9.296 165.745 10.712C167.545 12.032 168.769 13.652 169.417 15.572C169.585 16.052 169.669 16.508 169.669 16.94C169.669 18.212 168.937 19.1 167.473 19.604ZM158.401 14.888C157.009 15.368 156.301 16.376 156.277 17.912L161.929 15.968C161.281 15.128 160.477 14.708 159.517 14.708C159.157 14.708 158.785 14.768 158.401 14.888ZM190.19 28.316C189.878 28.388 189.566 28.424 189.254 28.424C188.438 28.424 187.73 28.112 187.13 27.488C186.098 28.904 184.73 29.804 183.026 30.188C182.33 30.356 181.634 30.44 180.938 30.44C178.682 30.44 176.666 29.648 174.89 28.064C173.138 26.456 171.95 24.344 171.326 21.728C171.11 20.768 171.002 19.808 171.002 18.848C171.002 16.424 171.65 14.3 172.946 12.476C174.242 10.628 175.958 9.452 178.094 8.948C178.694 8.804 179.282 8.732 179.858 8.732C180.986 8.732 182.03 8.984 182.99 9.488C183.422 8.432 184.214 7.76 185.366 7.472C185.75 7.4 186.11 7.364 186.446 7.364C188.03 7.364 189.098 8.54 189.65 10.892L192.53 23.384C192.698 24.152 192.782 24.788 192.782 25.292C192.782 26.924 191.918 27.932 190.19 28.316ZM177.986 18.704C177.986 19.184 178.034 19.676 178.13 20.18C178.37 21.212 178.802 22.064 179.426 22.736C180.05 23.408 180.77 23.744 181.586 23.744C182.522 23.744 183.242 23.372 183.746 22.628C184.226 21.98 184.466 21.164 184.466 20.18C184.466 19.724 184.406 19.244 184.286 18.74C184.046 17.684 183.614 16.82 182.99 16.148C182.366 15.452 181.658 15.104 180.866 15.104C179.93 15.104 179.21 15.464 178.706 16.184C178.226 16.88 177.986 17.72 177.986 18.704ZM199.981 10.1C200.749 9.26 201.865 8.888 203.329 8.984C204.241 9.056 204.997 9.416 205.597 10.064C206.245 10.808 206.533 11.744 206.461 12.872C206.389 13.928 205.801 14.72 204.697 15.248C203.665 15.608 202.633 15.968 201.601 16.328C200.497 16.808 199.909 17.504 199.837 18.416L199.297 26.336C199.201 27.416 198.805 28.292 198.109 28.964C197.413 29.636 196.549 29.936 195.517 29.864C194.509 29.792 193.705 29.384 193.105 28.64C192.505 27.872 192.241 26.948 192.313 25.868L193.285 11.792C193.381 10.688 193.837 9.836 194.653 9.236C195.373 8.708 196.189 8.48 197.101 8.552C198.517 8.648 199.477 9.164 199.981 10.1ZM217.692 31.16C216.876 30.968 216.228 30.56 215.748 29.936C215.268 29.312 215.028 28.58 215.028 27.74C215.028 27.404 215.064 27.056 215.136 26.696L217.188 17.912C217.26 17.6 217.296 17.3 217.296 17.012C217.296 16.292 217.044 15.728 216.54 15.32C216.036 14.888 215.424 14.672 214.704 14.672C213.504 14.672 212.736 15.38 212.4 16.796L210.384 25.616C210.168 26.504 209.748 27.224 209.124 27.776C208.5 28.328 207.78 28.604 206.964 28.604C206.676 28.604 206.4 28.568 206.136 28.496C205.296 28.304 204.648 27.896 204.192 27.272C203.712 26.648 203.472 25.916 203.472 25.076C203.472 24.716 203.508 24.368 203.58 24.032L206.676 10.568C206.892 9.656 207.312 8.936 207.936 8.408C208.56 7.856 209.28 7.58 210.096 7.58C211.632 7.58 212.688 8.192 213.264 9.416C214.056 9.032 214.956 8.84 215.964 8.84C216.636 8.84 217.368 8.936 218.16 9.128C220.056 9.56 221.568 10.436 222.696 11.756C223.848 13.076 224.424 14.66 224.424 16.508C224.424 17.18 224.352 17.876 224.208 18.596L221.94 28.28C221.748 29.192 221.34 29.912 220.716 30.44C220.092 30.992 219.36 31.268 218.52 31.268C218.256 31.268 217.98 31.232 217.692 31.16ZM263.896 27.308C263.632 27.38 263.356 27.416 263.068 27.416C262.252 27.416 261.532 27.14 260.908 26.588C260.284 26.036 259.864 25.304 259.648 24.392L257.632 15.608C257.296 14.144 256.576 13.412 255.472 13.412C254.824 13.412 254.308 13.628 253.924 14.06C253.54 14.468 253.348 14.996 253.348 15.644C253.348 15.932 253.384 16.244 253.456 16.58L255.472 25.364C255.568 25.724 255.616 26.072 255.616 26.408C255.616 27.248 255.376 27.98 254.896 28.604C254.416 29.228 253.756 29.636 252.916 29.828C252.652 29.9 252.376 29.936 252.088 29.936C251.272 29.936 250.552 29.66 249.928 29.108C249.304 28.556 248.884 27.836 248.668 26.948L246.652 18.128C246.316 16.688 245.596 15.968 244.492 15.968C243.052 15.968 242.332 16.664 242.332 18.056C242.332 18.368 242.38 18.716 242.476 19.1L244.492 27.92C244.588 28.256 244.636 28.592 244.636 28.928C244.636 29.768 244.396 30.5 243.916 31.124C243.436 31.772 242.788 32.192 241.972 32.384C241.684 32.432 241.396 32.456 241.108 32.456C240.292 32.456 239.572 32.18 238.948 31.628C238.324 31.1 237.904 30.38 237.688 29.468L234.592 16.004C234.52 15.668 234.484 15.332 234.484 14.996C234.484 14.132 234.712 13.388 235.168 12.764C235.648 12.14 236.308 11.732 237.148 11.54C237.46 11.468 237.76 11.432 238.048 11.432C238.864 11.432 239.548 11.684 240.1 12.188C241.564 10.388 243.496 9.488 245.896 9.488C247.312 9.488 248.632 9.872 249.856 10.64C251.152 8.84 252.76 7.712 254.68 7.256C255.448 7.088 256.204 7.004 256.948 7.004C258.748 7.004 260.296 7.532 261.592 8.588C262.888 9.644 263.764 11.168 264.22 13.16L266.452 22.844C266.548 23.18 266.596 23.516 266.596 23.852C266.596 24.716 266.356 25.46 265.876 26.084C265.396 26.708 264.736 27.116 263.896 27.308ZM276.338 30.332C273.338 30.476 270.818 29.516 268.778 27.452C266.81 25.46 265.742 22.976 265.574 20C265.43 17.072 266.246 14.492 268.022 12.26C269.87 9.932 272.258 8.684 275.186 8.516C278.138 8.372 280.646 9.368 282.71 11.504C284.702 13.52 285.782 15.992 285.95 18.92C286.094 21.92 285.302 24.5 283.574 26.66C281.75 28.94 279.338 30.164 276.338 30.332ZM275.546 15.068C274.562 15.116 273.794 15.584 273.242 16.472C272.714 17.336 272.486 18.392 272.558 19.64C272.63 20.84 272.978 21.848 273.602 22.664C274.226 23.456 275.018 23.828 275.978 23.78C276.962 23.732 277.718 23.276 278.246 22.412C278.798 21.548 279.038 20.504 278.966 19.28C278.894 18.056 278.546 17.036 277.922 16.22C277.322 15.404 276.53 15.02 275.546 15.068ZM293.216 10.1C293.984 9.26 295.1 8.888 296.564 8.984C297.476 9.056 298.232 9.416 298.832 10.064C299.48 10.808 299.768 11.744 299.696 12.872C299.624 13.928 299.036 14.72 297.932 15.248C296.9 15.608 295.868 15.968 294.836 16.328C293.732 16.808 293.144 17.504 293.072 18.416L292.532 26.336C292.436 27.416 292.04 28.292 291.344 28.964C290.648 29.636 289.784 29.936 288.752 29.864C287.744 29.792 286.94 29.384 286.34 28.64C285.74 27.872 285.476 26.948 285.548 25.868L286.52 11.792C286.616 10.688 287.072 9.836 287.888 9.236C288.608 8.708 289.424 8.48 290.336 8.552C291.752 8.648 292.712 9.164 293.216 10.1ZM315.516 19.604L306.192 22.844C306.816 23.468 307.62 23.78 308.604 23.78C309.156 23.78 309.732 23.672 310.332 23.456C311.148 23.168 312.036 22.496 312.996 21.44C313.956 20.384 314.688 19.76 315.192 19.568C315.48 19.472 315.768 19.424 316.056 19.424C316.896 19.424 317.628 19.724 318.252 20.324C318.9 20.924 319.224 21.632 319.224 22.448C319.224 23.768 318.408 25.172 316.776 26.66C315.312 28.028 313.704 29.012 311.952 29.612C310.704 30.044 309.456 30.26 308.208 30.26C305.976 30.26 303.972 29.588 302.196 28.244C300.444 26.9 299.172 25.076 298.38 22.772C297.948 21.548 297.732 20.276 297.732 18.956C297.732 16.748 298.296 14.768 299.424 13.016C300.648 11.144 302.316 9.848 304.428 9.128C305.484 8.768 306.552 8.588 307.632 8.588C309.84 8.588 311.892 9.296 313.788 10.712C315.588 12.032 316.812 13.652 317.46 15.572C317.628 16.052 317.712 16.508 317.712 16.94C317.712 18.212 316.98 19.1 315.516 19.604ZM306.444 14.888C305.052 15.368 304.344 16.376 304.32 17.912L309.972 15.968C309.324 15.128 308.52 14.708 307.56 14.708C307.2 14.708 306.828 14.768 306.444 14.888Z" fill="#191717"/>
</g>
<g filter="url(#filter1_di_0_1)">
<path d="M149.5 77.0449C149.072 77.0449 148.657 76.9646 148.255 76.8042C147.853 76.6438 147.519 76.4299 147.254 76.1626L132.496 61.4042C131.908 60.816 131.614 60.0674 131.614 59.1584C131.614 58.2494 131.908 57.5008 132.496 56.9126C133.084 56.3244 133.833 56.0303 134.742 56.0303C135.651 56.0303 136.399 56.3244 136.987 56.9126L149.5 69.4251L162.012 56.9126C162.601 56.3244 163.349 56.0303 164.258 56.0303C165.167 56.0303 165.916 56.3244 166.504 56.9126C167.092 57.5008 167.386 58.2494 167.386 59.1584C167.386 60.0674 167.092 60.816 166.504 61.4042L151.746 76.1626C151.425 76.4834 151.077 76.7112 150.703 76.8459C150.329 76.9807 149.928 77.047 149.5 77.0449Z" fill="white"/>
</g>
<defs>
<filter id="filter0_di_0_1" x="0.911133" y="0.308105" width="322.313" height="40.1479" filterUnits="userSpaceOnUse" color-interpolation-filters="sRGB">
<feFlood flood-opacity="0" result="BackgroundImageFix"/>
<feColorMatrix in="SourceAlpha" type="matrix" values="0 0 0 0 0 0 0 0 0 0 0 0 0 0 0 0 0 0 127 0" result="hardAlpha"/>
<feOffset dy="4"/>
<feGaussianBlur stdDeviation="2"/>
<feComposite in2="hardAlpha" operator="out"/>
<feColorMatrix type="matrix" values="0 0 0 0 0 0 0 0 0 0 0 0 0 0 0 0 0 0 0.25 0"/>
<feBlend mode="normal" in2="BackgroundImageFix" result="effect1_dropShadow_0_1"/>
<feBlend mode="normal" in="SourceGraphic" in2="effect1_dropShadow_0_1" result="shape"/>
<feColorMatrix in="SourceAlpha" type="matrix" values="0 0 0 0 0 0 0 0 0 0 0 0 0 0 0 0 0 0 127 0" result="hardAlpha"/>
<feOffset dx="5" dy="5"/>
<feGaussianBlur stdDeviation="2"/>
<feComposite in2="hardAlpha" operator="arithmetic" k2="-1" k3="1"/>
<feColorMatrix type="matrix" values="0 0 0 0 0 0 0 0 0 0 0 0 0 0 0 0 0 0 0.25 0"/>
<feBlend mode="normal" in2="shape" result="effect2_innerShadow_0_1"/>
</filter>
<filter id="filter1_di_0_1" x="107" y="29" width="85" height="85" filterUnits="userSpaceOnUse" color-interpolation-filters="sRGB">
<feFlood flood-opacity="0" result="BackgroundImageFix"/>
<feColorMatrix in="SourceAlpha" type="matrix" values="0 0 0 0 0 0 0 0 0 0 0 0 0 0 0 0 0 0 127 0" result="hardAlpha"/>
<feOffset dy="4"/>
<feGaussianBlur stdDeviation="2"/>
<feComposite in2="hardAlpha" operator="out"/>
<feColorMatrix type="matrix" values="0 0 0 0 0 0 0 0 0 0 0 0 0 0 0 0 0 0 0.25 0"/>
<feBlend mode="normal" in2="BackgroundImageFix" result="effect1_dropShadow_0_1"/>
<feBlend mode="normal" in="SourceGraphic" in2="effect1_dropShadow_0_1" result="shape"/>
<feColorMatrix in="SourceAlpha" type="matrix" values="0 0 0 0 0 0 0 0 0 0 0 0 0 0 0 0 0 0 127 0" result="hardAlpha"/>
<feOffset dx="5" dy="5"/>
<feGaussianBlur stdDeviation="2"/>
<feComposite in2="hardAlpha" operator="arithmetic" k2="-1" k3="1"/>
<feColorMatrix type="matrix" values="0 0 0 0 0 0 0 0 0 0 0 0 0 0 0 0 0 0 0.25 0"/>
<feBlend mode="normal" in2="shape" result="effect2_innerShadow_0_1"/>
</filter>
</defs>
</svg>
