<svg width="706" height="376" viewBox="0 0 706 376" fill="none" xmlns="http://www.w3.org/2000/svg">
<path d="M674.027 242.209C671.323 256.437 659.836 268.469 640.99 277.97C622.161 287.463 596.155 294.335 564.786 298.314C502.06 306.27 418.123 302.627 327.859 285.469C237.595 268.311 158.176 240.902 102.744 210.486C75.0231 195.275 53.3526 179.339 39.3195 163.6C25.2743 147.847 19.0034 132.439 21.7079 118.211C24.4124 103.983 35.8994 91.9511 54.745 82.4502C73.5745 72.9574 99.5805 66.0849 130.949 62.1061C193.675 54.1501 277.612 57.793 367.876 74.9511C458.14 92.1092 537.559 119.518 592.991 149.935C620.712 165.146 642.383 181.081 656.416 196.821C670.461 212.574 676.732 227.982 674.027 242.209Z" stroke="black" stroke-width="2"/>
<path d="M149.53 219.683C153.33 227.283 157.63 237.883 162.43 251.483C164.03 255.483 164.83 259.583 164.83 263.783C164.83 277.183 158.23 286.183 145.03 290.783C141.83 291.983 138.63 292.583 135.43 292.583C121.63 292.583 112.23 285.183 107.23 270.383L47.2303 95.7828C45.8303 91.7828 45.1303 87.7828 45.1303 83.7828C45.1303 69.9828 51.5303 60.8828 64.3303 56.4828C67.5303 55.2828 70.8303 54.6828 74.2303 54.6828C87.8303 54.6828 97.1303 62.0828 102.13 76.8828L129.13 155.483L151.03 112.283C157.83 98.8828 167.03 92.1828 178.63 92.1828C186.03 92.1828 192.33 94.9828 197.53 100.583C202.93 106.183 205.63 112.683 205.63 120.083C205.63 125.083 204.03 130.283 200.83 135.683L179.53 174.083L240.43 210.083C250.03 215.683 254.83 223.983 254.83 234.983C254.83 248.183 248.63 256.983 236.23 261.383C233.43 262.183 230.63 262.583 227.83 262.583C221.63 262.583 214.33 259.983 205.93 254.783L149.53 219.683ZM323.324 281.783C317.124 283.183 310.124 283.883 302.324 283.883C289.524 283.883 278.124 281.783 268.124 277.583C254.524 272.183 247.724 263.883 247.724 252.683C247.724 246.883 249.224 241.483 252.224 236.483C255.824 230.483 260.924 226.783 267.524 225.383C270.124 224.783 272.724 224.483 275.324 224.483C279.324 224.483 284.724 225.483 291.524 227.483C298.524 229.483 303.924 230.483 307.724 230.483C309.924 230.483 312.124 230.183 314.324 229.583C320.724 228.183 323.524 225.883 322.724 222.683C322.324 221.083 315.324 219.383 301.724 217.583C284.724 215.583 271.624 212.383 262.424 207.983C247.424 200.983 238.224 189.983 234.824 174.983C233.624 170.383 233.024 165.883 233.024 161.483C233.024 143.483 240.724 128.783 256.124 117.383C270.124 106.983 286.424 101.783 305.024 101.783C317.624 101.783 328.424 103.983 337.424 108.383C349.424 113.983 355.424 122.383 355.424 133.583C355.424 140.583 353.124 146.683 348.524 151.883C343.924 157.083 338.324 159.683 331.724 159.683C328.724 159.683 323.724 158.983 316.724 157.583C309.724 155.983 304.524 155.183 301.124 155.183C296.524 155.183 293.124 155.983 290.924 157.583C289.524 158.583 289.024 159.983 289.424 161.783C289.824 163.583 296.924 165.283 310.724 166.883C327.724 169.083 340.824 172.283 350.024 176.483C365.024 183.683 374.224 194.683 377.624 209.483C378.624 213.683 379.124 217.883 379.124 222.083C379.124 236.283 374.024 248.783 363.824 259.583C353.824 270.383 340.324 277.783 323.324 281.783ZM506.87 286.583C496.27 285.583 488.67 280.983 484.07 272.783C473.07 280.783 460.27 284.183 445.67 282.983C423.87 280.983 406.37 271.083 393.17 253.283C380.77 236.883 374.57 217.783 374.57 195.983C374.57 171.783 381.37 150.483 394.97 132.083C409.97 111.683 429.27 101.483 452.87 101.483C467.67 101.483 480.97 105.283 492.77 112.883L496.67 68.4828C497.47 59.4828 500.77 52.2828 506.57 46.8828C512.57 41.2828 519.87 38.8828 528.47 39.6828C536.87 40.2828 543.47 43.8828 548.27 50.4828C553.27 56.8828 555.37 64.5828 554.57 73.5828L538.37 257.483C537.57 266.483 534.17 273.683 528.17 279.083C522.37 284.683 515.27 287.183 506.87 286.583ZM462.47 156.683C454.67 156.083 448.07 159.183 442.67 165.983C437.27 172.583 434.07 180.883 433.07 190.883C432.27 200.683 433.97 209.183 438.17 216.383C442.37 224.183 448.37 228.383 456.17 228.983C464.17 229.783 470.87 226.783 476.27 219.983C481.67 213.183 484.77 204.483 485.57 193.883C486.57 183.883 484.97 175.383 480.77 168.383C476.57 161.383 470.47 157.483 462.47 156.683ZM631.729 165.983L627.229 164.783L606.529 254.483C604.729 262.083 601.229 268.183 596.029 272.783C590.829 277.183 584.729 279.383 577.729 279.383C575.529 279.383 573.229 279.183 570.829 278.783C564.029 277.183 558.629 273.783 554.629 268.583C550.629 263.183 548.629 256.983 548.629 249.983C548.629 247.183 548.929 244.383 549.529 241.583L570.529 151.583L568.429 151.283C554.629 148.083 547.729 139.883 547.729 126.683C547.729 124.283 548.029 121.883 548.629 119.483C550.029 113.283 553.029 108.383 557.629 104.783C562.429 100.983 567.829 99.0828 573.829 99.0828C576.029 99.0828 578.129 99.2828 580.129 99.6828L582.229 100.283L586.429 82.2828C588.229 74.8828 591.629 68.8828 596.629 64.2828C601.829 59.6828 607.929 57.3828 614.929 57.3828C617.129 57.3828 619.429 57.6828 621.829 58.2828C628.829 59.8828 634.229 63.2828 638.029 68.4828C642.029 73.6828 644.029 79.8828 644.029 87.0828C644.029 89.8828 643.729 92.6828 643.129 95.4828L638.929 113.483L643.729 114.383C658.529 117.783 665.929 126.083 665.929 139.283C665.929 141.483 665.729 143.883 665.329 146.483C662.129 160.083 653.629 166.883 639.829 166.883C637.229 166.883 634.529 166.583 631.729 165.983Z" fill="#1A1717"/>
<path d="M149.53 219.683L151.644 216.287L139.618 208.803L145.953 221.472L149.53 219.683ZM162.43 251.483L158.658 252.814L158.686 252.892L158.716 252.968L162.43 251.483ZM145.03 290.783L143.714 287.006L143.67 287.021L143.626 287.038L145.03 290.783ZM107.23 270.383L111.02 269.103L111.017 269.093L111.013 269.083L107.23 270.383ZM47.2303 95.7828L51.0131 94.4829L51.0095 94.4721L51.0057 94.4614L47.2303 95.7828ZM64.3303 56.4828L65.6306 60.2656L65.6829 60.2476L65.7348 60.2281L64.3303 56.4828ZM102.13 76.8828L98.3407 78.1631L98.3439 78.1727L98.3472 78.1823L102.13 76.8828ZM129.13 155.483L125.347 156.782L128.421 165.729L132.698 157.291L129.13 155.483ZM151.03 112.283L147.463 110.473L147.463 110.474L151.03 112.283ZM197.53 100.583L194.599 103.305L194.625 103.332L194.651 103.359L197.53 100.583ZM200.83 135.683L197.389 133.644L197.36 133.693L197.332 133.743L200.83 135.683ZM179.53 174.083L176.032 172.143L174.145 175.546L177.495 177.526L179.53 174.083ZM240.43 210.083L238.395 213.526L238.405 213.532L238.415 213.538L240.43 210.083ZM236.23 261.383L237.329 265.229L237.45 265.194L237.568 265.153L236.23 261.383ZM205.93 254.783L203.817 258.179L203.825 258.184L205.93 254.783ZM145.953 221.472C149.645 228.856 153.881 239.279 158.658 252.814L166.202 250.152C161.379 236.487 157.016 225.709 153.108 217.894L145.953 221.472ZM158.716 252.968C160.132 256.508 160.83 260.105 160.83 263.783H168.83C168.83 259.061 167.928 254.457 166.144 249.997L158.716 252.968ZM160.83 263.783C160.83 269.807 159.357 274.532 156.655 278.217C153.942 281.916 149.743 284.905 143.714 287.006L146.347 294.56C153.517 292.061 159.218 288.249 163.106 282.948C167.004 277.633 168.83 271.159 168.83 263.783H160.83ZM143.626 287.038C140.844 288.081 138.119 288.583 135.43 288.583V296.583C139.142 296.583 142.816 295.885 146.435 294.528L143.626 287.038ZM135.43 288.583C129.284 288.583 124.394 286.952 120.505 283.89C116.575 280.797 113.346 275.989 111.02 269.103L103.441 271.663C106.114 279.577 110.085 285.869 115.556 290.176C121.067 294.514 127.777 296.583 135.43 296.583V288.583ZM111.013 269.083L51.0131 94.4829L43.4474 97.0828L103.447 271.683L111.013 269.083ZM51.0057 94.4614C49.7455 90.8607 49.1303 87.3067 49.1303 83.7828H41.1303C41.1303 88.259 41.9151 92.705 43.4548 97.1042L51.0057 94.4614ZM49.1303 83.7828C49.1303 77.5065 50.5793 72.6382 53.2021 68.9089C55.8203 65.1862 59.8514 62.2522 65.6306 60.2656L63.03 52.7001C56.0091 55.1135 50.4402 58.9295 46.6584 64.3067C42.8812 69.6775 41.1303 76.2592 41.1303 83.7828H49.1303ZM65.7348 60.2281C68.488 59.1957 71.3125 58.6828 74.2303 58.6828V50.6828C70.3481 50.6828 66.5725 51.37 62.9258 52.7375L65.7348 60.2281ZM74.2303 58.6828C80.2628 58.6828 85.073 60.306 88.9147 63.3629C92.8007 66.455 96.0109 71.2668 98.3407 78.1631L105.92 75.6026C103.25 67.6988 99.3098 61.4107 93.8958 57.1028C88.4375 52.7596 81.7977 50.6828 74.2303 50.6828V58.6828ZM98.3472 78.1823L125.347 156.782L132.913 154.183L105.913 75.5833L98.3472 78.1823ZM132.698 157.291L154.598 114.091L147.463 110.474L125.563 153.674L132.698 157.291ZM154.597 114.093C160.953 101.569 168.998 96.1828 178.63 96.1828V88.1828C165.063 88.1828 154.708 96.1971 147.463 110.473L154.597 114.093ZM178.63 96.1828C184.878 96.1828 190.128 98.4895 194.599 103.305L200.461 97.861C194.533 91.4761 187.183 88.1828 178.63 88.1828V96.1828ZM194.651 103.359C199.373 108.256 201.63 113.776 201.63 120.083H209.63C209.63 111.59 206.488 104.11 200.41 97.8063L194.651 103.359ZM201.63 120.083C201.63 124.203 200.316 128.705 197.389 133.644L204.271 137.722C207.745 131.861 209.63 125.962 209.63 120.083H201.63ZM197.332 133.743L176.032 172.143L183.028 176.023L204.328 137.623L197.332 133.743ZM177.495 177.526L238.395 213.526L242.466 206.639L181.566 170.639L177.495 177.526ZM238.415 213.538C246.802 218.43 250.83 225.424 250.83 234.983H258.83C258.83 222.542 253.259 212.935 242.446 206.628L238.415 213.538ZM250.83 234.983C250.83 240.947 249.437 245.593 246.91 249.179C244.385 252.764 240.489 255.628 234.893 257.613L237.568 265.153C244.372 262.738 249.776 259.002 253.45 253.787C257.124 248.573 258.83 242.218 258.83 234.983H250.83ZM235.131 257.537C232.674 258.239 230.244 258.583 227.83 258.583V266.583C231.017 266.583 234.186 266.127 237.329 265.229L235.131 257.537ZM227.83 258.583C222.693 258.583 216.144 256.402 208.036 251.382L203.825 258.184C212.516 263.564 220.567 266.583 227.83 266.583V258.583ZM208.044 251.387L151.644 216.287L147.417 223.079L203.817 258.179L208.044 251.387ZM323.324 281.783L324.205 285.685L324.223 285.681L324.24 285.676L323.324 281.783ZM268.124 277.583L269.673 273.895L269.637 273.88L269.6 273.865L268.124 277.583ZM252.224 236.483L255.654 238.541L252.224 236.483ZM267.524 225.383L268.354 229.296L268.389 229.288L268.423 229.28L267.524 225.383ZM291.524 227.483L290.395 231.32L290.41 231.325L290.425 231.329L291.524 227.483ZM314.324 229.583L313.469 225.675L313.37 225.697L313.272 225.724L314.324 229.583ZM301.724 217.583L302.249 213.617L302.22 213.614L302.191 213.61L301.724 217.583ZM262.424 207.983L264.15 204.374L264.133 204.366L264.116 204.358L262.424 207.983ZM234.824 174.983L238.725 174.099L238.711 174.036L238.694 173.973L234.824 174.983ZM256.124 117.383L258.504 120.598L258.509 120.594L256.124 117.383ZM337.424 108.383L335.667 111.976L335.7 111.992L335.732 112.008L337.424 108.383ZM348.524 151.883L345.528 149.233L348.524 151.883ZM316.724 157.583L315.833 161.482L315.886 161.494L315.94 161.505L316.724 157.583ZM290.924 157.583L293.249 160.838L293.263 160.828L293.277 160.818L290.924 157.583ZM289.424 161.783L285.519 162.651L289.424 161.783ZM310.724 166.883L311.237 162.916L311.211 162.913L311.185 162.909L310.724 166.883ZM350.024 176.483L351.755 172.877L351.72 172.86L351.685 172.844L350.024 176.483ZM377.624 209.483L373.726 210.378L373.729 210.394L373.733 210.409L377.624 209.483ZM363.824 259.583L360.916 256.836L360.902 256.851L360.889 256.865L363.824 259.583ZM322.443 277.881C316.589 279.203 309.892 279.883 302.324 279.883V287.883C310.356 287.883 317.659 287.163 324.205 285.685L322.443 277.881ZM302.324 279.883C289.962 279.883 279.102 277.855 269.673 273.895L266.575 281.271C277.146 285.71 289.086 287.883 302.324 287.883V279.883ZM269.6 273.865C263.212 271.329 258.76 268.241 255.918 264.773C253.131 261.371 251.724 257.402 251.724 252.683H243.724C243.724 259.163 245.717 264.945 249.73 269.843C253.688 274.674 259.436 278.437 266.648 281.301L269.6 273.865ZM251.724 252.683C251.724 247.612 253.025 242.923 255.654 238.541L248.794 234.425C245.423 240.043 243.724 246.154 243.724 252.683H251.724ZM255.654 238.541C258.706 233.453 262.885 230.456 268.354 229.296L266.694 221.47C258.963 223.11 252.942 227.512 248.794 234.425L255.654 238.541ZM268.423 229.28C270.736 228.747 273.035 228.483 275.324 228.483V220.483C272.413 220.483 269.512 220.819 266.625 221.485L268.423 229.28ZM275.324 228.483C278.756 228.483 283.726 229.359 290.395 231.32L292.653 223.645C285.722 221.607 279.892 220.483 275.324 220.483V228.483ZM290.425 231.329C297.519 233.356 303.353 234.483 307.724 234.483V226.483C304.495 226.483 299.529 225.61 292.623 223.637L290.425 231.329ZM307.724 234.483C310.292 234.483 312.846 234.132 315.376 233.442L313.272 225.724C311.402 226.234 309.556 226.483 307.724 226.483V234.483ZM315.179 233.49C318.574 232.748 321.623 231.656 323.763 229.899C324.886 228.976 325.861 227.785 326.408 226.281C326.965 224.751 326.973 223.184 326.605 221.713L318.843 223.653C318.876 223.781 318.833 223.702 318.89 223.547C318.937 223.418 318.962 223.489 318.685 223.717C318.025 224.259 316.475 225.018 313.469 225.675L315.179 233.49ZM326.605 221.713C326.248 220.285 325.319 219.395 324.749 218.944C324.129 218.452 323.436 218.088 322.816 217.811C321.563 217.252 319.952 216.766 318.118 216.321C314.407 215.42 309.088 214.523 302.249 213.617L301.199 221.548C307.96 222.443 312.941 223.296 316.23 224.095C317.896 224.499 318.96 224.851 319.557 225.117C319.862 225.253 319.888 225.298 319.78 225.213C319.723 225.167 319.1 224.681 318.843 223.653L326.605 221.713ZM302.191 213.61C285.374 211.632 272.774 208.499 264.15 204.374L260.698 211.591C270.474 216.267 284.074 219.534 301.257 221.555L302.191 213.61ZM264.116 204.358C250.137 197.835 241.829 187.79 238.725 174.099L230.923 175.867C234.62 192.175 244.711 204.131 260.732 211.608L264.116 204.358ZM238.694 173.973C237.574 169.677 237.024 165.516 237.024 161.483H229.024C229.024 166.25 229.674 171.089 230.954 175.993L238.694 173.973ZM237.024 161.483C237.024 144.843 244.046 131.3 258.504 120.598L253.744 114.168C237.402 126.265 229.024 142.122 229.024 161.483H237.024ZM258.509 120.594C271.772 110.741 287.222 105.783 305.024 105.783V97.7828C285.626 97.7828 268.476 103.224 253.739 114.172L258.509 120.594ZM305.024 105.783C317.168 105.783 327.337 107.904 335.667 111.976L339.181 104.789C329.511 100.062 318.08 97.7828 305.024 97.7828V105.783ZM335.732 112.008C341.281 114.597 345.167 117.705 347.669 121.208C350.143 124.671 351.424 128.742 351.424 133.583H359.424C359.424 127.224 357.705 121.495 354.179 116.558C350.681 111.66 345.567 107.769 339.116 104.758L335.732 112.008ZM351.424 133.583C351.424 139.615 349.475 144.77 345.528 149.233L351.52 154.533C356.773 148.595 359.424 141.55 359.424 133.583H351.424ZM345.528 149.233C341.643 153.625 337.112 155.683 331.724 155.683V163.683C339.536 163.683 346.206 160.541 351.52 154.533L345.528 149.233ZM331.724 155.683C329.16 155.683 324.506 155.06 317.508 153.661L315.94 161.505C322.942 162.906 328.288 163.683 331.724 163.683V155.683ZM317.615 153.683C310.571 152.073 305.002 151.183 301.124 151.183V159.183C304.047 159.183 308.877 159.892 315.833 161.482L317.615 153.683ZM301.124 151.183C296.205 151.183 291.784 152.011 288.571 154.348L293.277 160.818C294.464 159.954 296.843 159.183 301.124 159.183V151.183ZM288.599 154.328C287.343 155.225 286.298 156.453 285.732 158.037C285.174 159.6 285.195 161.191 285.519 162.651L293.329 160.915C293.29 160.743 293.29 160.653 293.291 160.633C293.291 160.623 293.292 160.629 293.288 160.648C293.285 160.667 293.278 160.695 293.266 160.728C293.254 160.762 293.239 160.795 293.222 160.825C293.205 160.855 293.19 160.877 293.179 160.891C293.157 160.919 293.167 160.896 293.249 160.838L288.599 154.328ZM285.519 162.651C285.828 164.042 286.673 164.966 287.288 165.493C287.925 166.038 288.642 166.437 289.289 166.739C290.587 167.345 292.247 167.85 294.118 168.298C297.904 169.205 303.319 170.051 310.263 170.856L311.185 162.909C304.329 162.115 299.294 161.311 295.98 160.518C294.301 160.116 293.248 159.758 292.672 159.489C292.381 159.354 292.37 159.312 292.488 159.414C292.585 159.496 293.12 159.974 293.329 160.915L285.519 162.651ZM310.211 170.85C327.049 173.029 339.693 176.164 348.363 180.122L351.685 172.844C341.955 168.402 328.399 165.137 311.237 162.916L310.211 170.85ZM348.293 180.089C362.316 186.82 370.627 196.889 373.726 210.378L381.522 208.587C377.822 192.477 367.732 180.546 351.755 172.877L348.293 180.089ZM373.733 210.409C374.663 214.314 375.124 218.203 375.124 222.083H383.124C383.124 217.562 382.586 213.051 381.515 208.556L373.733 210.409ZM375.124 222.083C375.124 235.211 370.45 246.741 360.916 256.836L366.732 262.329C377.598 250.825 383.124 237.355 383.124 222.083H375.124ZM360.889 256.865C351.524 266.979 338.78 274.037 322.408 277.889L324.24 285.676C341.868 281.529 356.124 273.787 366.759 262.3L360.889 256.865ZM506.87 286.583L506.494 290.565L506.54 290.569L506.585 290.573L506.87 286.583ZM484.07 272.783L487.559 270.826L485.357 266.901L481.717 269.548L484.07 272.783ZM445.67 282.983L445.305 286.966L445.324 286.968L445.342 286.969L445.67 282.983ZM393.17 253.283L396.383 250.9L396.372 250.885L396.361 250.87L393.17 253.283ZM394.97 132.083L398.187 134.46L398.193 134.452L394.97 132.083ZM492.77 112.883L490.604 116.246L496.175 119.834L496.755 113.233L492.77 112.883ZM496.67 68.4828L492.686 68.1287L492.685 68.1328L496.67 68.4828ZM506.57 46.8828L509.296 49.8104L509.299 49.8071L506.57 46.8828ZM528.47 39.6828L528.1 43.6656L528.142 43.6696L528.185 43.6727L528.47 39.6828ZM548.27 50.4828L545.035 52.8355L545.076 52.8912L545.118 52.9454L548.27 50.4828ZM554.57 73.5828L550.586 73.2287L550.586 73.2318L554.57 73.5828ZM538.37 257.483L542.354 257.837L542.355 257.834L538.37 257.483ZM528.17 279.083L525.494 276.11L525.442 276.157L525.392 276.205L528.17 279.083ZM462.47 156.683L462.868 152.703L462.823 152.698L462.777 152.695L462.47 156.683ZM442.67 165.983L445.766 168.516L445.784 168.493L445.803 168.47L442.67 165.983ZM433.07 190.883L429.09 190.485L429.086 190.521L429.083 190.557L433.07 190.883ZM438.17 216.383L441.692 214.486L441.66 214.426L441.625 214.367L438.17 216.383ZM456.17 228.983L456.568 225.003L456.523 224.998L456.477 224.995L456.17 228.983ZM476.27 219.983L473.138 217.495L476.27 219.983ZM485.57 193.883L481.59 193.485L481.585 193.533L481.581 193.582L485.57 193.883ZM480.77 168.383L484.2 166.325L480.77 168.383ZM507.246 282.601C497.752 281.705 491.423 277.715 487.559 270.826L480.582 274.74C485.917 284.25 494.788 289.461 506.494 290.565L507.246 282.601ZM481.717 269.548C471.554 276.939 459.723 280.124 445.998 278.996L445.342 286.969C460.818 288.241 474.586 284.626 486.423 276.018L481.717 269.548ZM446.036 279C425.385 277.105 408.914 267.799 396.383 250.9L389.957 255.665C403.826 274.367 422.355 284.861 445.305 286.966L446.036 279ZM396.361 250.87C384.519 235.208 378.57 216.968 378.57 195.983H370.57C370.57 218.598 377.021 238.557 389.979 255.695L396.361 250.87ZM378.57 195.983C378.57 172.586 385.126 152.131 398.187 134.46L391.753 129.705C377.614 148.835 370.57 170.979 370.57 195.983H378.57ZM398.193 134.452C412.503 114.99 430.647 105.483 452.87 105.483V97.4828C427.893 97.4828 407.437 108.375 391.748 129.713L398.193 134.452ZM452.87 105.483C466.946 105.483 479.486 109.085 490.604 116.246L494.936 109.52C482.454 101.481 468.394 97.4828 452.87 97.4828V105.483ZM496.755 113.233L500.655 68.8328L492.685 68.1328L488.785 112.533L496.755 113.233ZM500.654 68.837C501.38 60.6732 504.32 54.4429 509.296 49.8104L503.844 43.9553C497.22 50.1228 493.56 58.2925 492.686 68.1287L500.654 68.837ZM509.299 49.8071C514.416 45.0313 520.569 42.9651 528.1 43.6656L528.841 35.7C519.171 34.8005 510.724 37.5344 503.841 43.9586L509.299 49.8071ZM528.185 43.6727C535.452 44.1917 540.954 47.224 545.035 52.8355L551.505 48.1301C545.986 40.5417 538.289 36.3739 528.755 35.693L528.185 43.6727ZM545.118 52.9454C549.421 58.4535 551.307 65.1159 550.586 73.2287L558.554 73.937C559.433 64.0498 557.119 55.3121 551.422 48.0202L545.118 52.9454ZM550.586 73.2318L534.386 257.132L542.355 257.834L558.555 73.9338L550.586 73.2318ZM534.386 257.129C533.664 265.252 530.651 271.468 525.494 276.11L530.846 282.056C537.689 275.897 541.476 267.714 542.354 257.837L534.386 257.129ZM525.392 276.205C520.449 280.977 514.48 283.116 507.155 282.593L506.585 290.573C516.061 291.249 524.291 288.388 530.948 281.96L525.392 276.205ZM462.777 152.695C453.49 151.98 445.657 155.789 439.538 163.495L445.803 168.47C450.483 162.576 455.85 160.185 462.163 160.671L462.777 152.695ZM439.574 163.45C433.592 170.761 430.154 179.844 429.09 190.485L437.05 191.281C437.986 181.921 440.948 174.404 445.766 168.516L439.574 163.45ZM429.083 190.557C428.229 201.023 430.032 210.371 434.715 218.398L441.625 214.367C437.908 207.995 436.311 200.342 437.057 191.208L429.083 190.557ZM434.648 218.279C439.393 227.091 446.506 232.251 455.863 232.971L456.477 224.995C450.234 224.514 445.347 221.274 441.692 214.486L434.648 218.279ZM455.772 232.963C465.251 233.911 473.237 230.234 479.403 222.47L473.138 217.495C468.503 223.331 463.09 225.655 456.568 225.003L455.772 232.963ZM479.403 222.47C485.402 214.915 488.712 205.401 489.559 194.184L481.581 193.582C480.828 203.564 477.938 211.45 473.138 217.495L479.403 222.47ZM489.55 194.281C490.616 183.626 488.937 174.22 484.2 166.325L477.34 170.441C481.003 176.546 482.525 184.14 481.59 193.485L489.55 194.281ZM484.2 166.325C479.362 158.261 472.148 153.631 462.868 152.703L462.072 160.663C468.792 161.335 473.779 164.505 477.34 170.441L484.2 166.325ZM631.729 165.983L630.698 169.848L630.794 169.873L630.891 169.894L631.729 165.983ZM627.229 164.783L628.259 160.918L624.262 159.852L623.331 163.883L627.229 164.783ZM606.529 254.483L610.421 255.405L610.424 255.393L610.426 255.382L606.529 254.483ZM596.029 272.783L598.612 275.836L598.646 275.808L598.679 275.779L596.029 272.783ZM570.829 278.783L569.913 282.676L570.041 282.707L570.171 282.728L570.829 278.783ZM554.629 268.583L551.414 270.964L551.436 270.993L551.458 271.022L554.629 268.583ZM549.529 241.583L545.633 240.674L545.625 240.709L545.617 240.745L549.529 241.583ZM570.529 151.583L574.424 152.492L575.416 148.24L571.094 147.623L570.529 151.583ZM568.429 151.283L567.525 155.179L567.693 155.218L567.863 155.243L568.429 151.283ZM548.629 119.483L552.509 120.453L552.52 120.409L552.53 120.364L548.629 119.483ZM557.629 104.783L560.094 107.933L560.103 107.926L560.112 107.919L557.629 104.783ZM580.129 99.6828L581.228 95.8367L581.072 95.7923L580.913 95.7605L580.129 99.6828ZM582.229 100.283L581.13 104.129L585.169 105.283L586.124 101.192L582.229 100.283ZM586.429 82.2828L582.542 81.3374L582.538 81.3556L582.533 81.3739L586.429 82.2828ZM596.629 64.2828L593.978 61.2868L593.949 61.3127L593.92 61.3391L596.629 64.2828ZM621.829 58.2828L620.859 62.1634L620.898 62.1732L620.937 62.1823L621.829 58.2828ZM638.029 68.4828L634.799 70.8429L634.828 70.8826L634.858 70.9217L638.029 68.4828ZM643.129 95.4828L647.024 96.3918L647.032 96.3564L647.04 96.3209L643.129 95.4828ZM638.929 113.483L635.033 112.574L634.084 116.644L638.192 117.414L638.929 113.483ZM643.729 114.383L644.624 110.484L644.545 110.466L644.466 110.451L643.729 114.383ZM665.329 146.483L669.222 147.399L669.258 147.246L669.282 147.091L665.329 146.483ZM632.759 162.118L628.259 160.918L626.198 168.648L630.698 169.848L632.759 162.118ZM623.331 163.883L602.631 253.583L610.426 255.382L631.126 165.682L623.331 163.883ZM602.636 253.561C601.002 260.463 597.885 265.801 593.378 269.787L598.679 275.779C604.573 270.565 608.456 263.703 610.421 255.405L602.636 253.561ZM593.445 269.729C588.989 273.5 583.811 275.383 577.729 275.383V283.383C585.646 283.383 592.669 280.866 598.612 275.836L593.445 269.729ZM577.729 275.383C575.771 275.383 573.692 275.205 571.486 274.837L570.171 282.728C572.766 283.161 575.287 283.383 577.729 283.383V275.383ZM571.745 274.889C565.779 273.485 561.2 270.565 557.799 266.144L551.458 271.022C556.058 277.001 562.279 280.88 569.913 282.676L571.745 274.889ZM557.843 266.202C554.376 261.521 552.629 256.164 552.629 249.983H544.629C544.629 257.802 546.882 264.845 551.414 270.964L557.843 266.202ZM552.629 249.983C552.629 247.471 552.898 244.952 553.44 242.421L545.617 240.745C544.96 243.814 544.629 246.895 544.629 249.983H552.629ZM553.424 242.492L574.424 152.492L566.633 150.674L545.633 240.674L553.424 242.492ZM571.094 147.623L568.994 147.323L567.863 155.243L569.963 155.543L571.094 147.623ZM569.332 147.386C563.005 145.919 558.702 143.411 555.964 140.157C553.252 136.934 551.729 132.567 551.729 126.683H543.729C543.729 133.999 545.655 140.331 549.843 145.308C554.006 150.255 560.052 153.447 567.525 155.179L569.332 147.386ZM551.729 126.683C551.729 124.62 551.986 122.545 552.509 120.453L544.748 118.513C544.071 121.22 543.729 123.946 543.729 126.683H551.729ZM552.53 120.364C553.747 114.978 556.286 110.913 560.094 107.933L555.163 101.633C549.772 105.852 546.311 111.587 544.727 118.602L552.53 120.364ZM560.112 107.919C564.22 104.666 568.75 103.083 573.829 103.083V95.0828C566.908 95.0828 560.637 97.2996 555.146 101.647L560.112 107.919ZM573.829 103.083C575.786 103.083 577.622 103.261 579.344 103.605L580.913 95.7605C578.636 95.305 576.272 95.0828 573.829 95.0828V103.083ZM579.03 103.529L581.13 104.129L583.328 96.4367L581.228 95.8367L579.03 103.529ZM586.124 101.192L590.324 83.1917L582.533 81.3739L578.333 99.3739L586.124 101.192ZM590.315 83.2282C591.952 76.4999 594.987 71.2282 599.337 67.2265L593.92 61.3391C588.27 66.5375 584.505 73.2657 582.542 81.3374L590.315 83.2282ZM599.279 67.2788C603.741 63.3316 608.896 61.3828 614.929 61.3828V53.3828C606.961 53.3828 599.916 56.034 593.978 61.2868L599.279 67.2788ZM614.929 61.3828C616.764 61.3828 618.737 61.633 620.859 62.1634L622.799 54.4023C620.12 53.7326 617.493 53.3828 614.929 53.3828V61.3828ZM620.937 62.1823C627.114 63.594 631.634 66.5117 634.799 70.8429L641.258 66.1228C636.823 60.054 630.544 56.1717 622.72 54.3834L620.937 62.1823ZM634.858 70.9217C638.267 75.3535 640.029 80.6739 640.029 87.0828H648.029C648.029 79.0918 645.79 72.0121 641.199 66.044L634.858 70.9217ZM640.029 87.0828C640.029 89.5948 639.76 92.1139 639.218 94.6447L647.04 96.3209C647.698 93.2518 648.029 90.1709 648.029 87.0828H640.029ZM639.233 94.5739L635.033 112.574L642.824 114.392L647.024 96.3918L639.233 94.5739ZM638.192 117.414L642.992 118.314L644.466 110.451L639.666 109.551L638.192 117.414ZM642.833 118.281C649.714 119.862 654.414 122.478 657.393 125.82C660.321 129.104 661.929 133.471 661.929 139.283H669.929C669.929 131.895 667.836 125.512 663.364 120.496C658.944 115.537 652.543 112.304 644.624 110.484L642.833 118.281ZM661.929 139.283C661.929 141.244 661.75 143.438 661.375 145.875L669.282 147.091C669.707 144.327 669.929 141.721 669.929 139.283H661.929ZM661.435 145.567C659.981 151.745 657.429 155.96 654.055 158.659C650.686 161.354 646.068 162.883 639.829 162.883V170.883C647.389 170.883 653.921 169.011 659.052 164.906C664.178 160.806 667.476 154.82 669.222 147.399L661.435 145.567ZM639.829 162.883C637.537 162.883 635.119 162.618 632.567 162.072L630.891 169.894C633.939 170.547 636.92 170.883 639.829 170.883V162.883Z" fill="white" fill-opacity="0.5"/>
<path d="M113.518 343.443V345.783H116.506V328.215H113.59V338.367C113.59 341.535 111.682 343.587 108.91 343.587C106.57 343.587 105.274 342.183 105.274 339.627V328.215H102.358V340.707C102.358 341.895 102.574 342.939 103.042 343.767C103.942 345.315 105.85 346.251 108.154 346.251C109.702 346.251 111.07 345.783 112.042 345.027C112.438 344.703 112.69 344.451 113.518 343.443ZM133.331 339.483H130.235C129.947 342.291 128.579 343.695 126.167 343.695C123.035 343.695 121.127 341.283 121.127 337.431C121.127 335.307 121.415 333.687 122.027 332.643C122.855 331.167 124.403 330.267 126.167 330.267C128.435 330.267 129.767 331.527 130.019 333.831H133.187C132.935 329.835 130.379 327.567 126.167 327.567C123.611 327.567 121.559 328.539 120.047 330.447C118.643 332.283 118.031 334.335 118.031 337.323C118.031 339.159 118.499 341.247 119.327 342.651C120.659 345.099 123.251 346.467 126.419 346.467C130.487 346.467 133.079 343.839 133.331 339.483ZM145.109 333.183H148.205C148.205 329.727 145.613 327.567 141.329 327.567C138.989 327.567 137.405 328.143 136.145 329.403C135.101 330.411 134.561 331.671 134.561 333.075C134.561 334.371 135.029 335.595 136.001 336.315C136.865 336.999 137.981 337.431 140.393 338.007C141.077 338.187 141.869 338.331 142.445 338.511C143.417 338.763 143.705 338.835 144.029 338.979C145.001 339.375 145.505 340.023 145.505 340.923C145.505 342.615 143.957 343.659 141.653 343.659C139.961 343.659 138.485 343.191 137.765 342.471C137.225 341.931 137.081 341.391 137.045 340.095H134.021C134.021 344.163 136.577 346.431 141.329 346.431C145.757 346.431 148.673 344.055 148.673 340.419C148.673 338.547 147.845 337.179 146.153 336.351C145.541 336.063 143.993 335.631 141.941 335.091L139.313 334.407C138.881 334.263 138.557 334.155 138.305 333.975C137.909 333.723 137.657 333.291 137.657 332.751C137.657 331.203 139.097 330.195 141.113 330.195C142.769 330.195 143.921 330.555 144.533 331.239C144.929 331.707 145.001 332.067 145.109 333.183ZM164.976 345.783V321.771H162.06V330.015C160.584 328.251 159.108 327.531 156.912 327.531C154.572 327.531 152.592 328.467 151.296 330.195C150.036 331.887 149.496 334.047 149.496 337.251C149.496 342.903 152.304 346.395 156.912 346.395C159.216 346.395 160.548 345.747 161.952 343.767V345.783H164.976ZM157.416 330.087C158.82 330.087 160.26 330.843 160.98 331.959C161.7 333.075 162.168 335.019 162.168 337.035C162.168 341.247 160.404 343.839 157.416 343.839C154.392 343.839 152.664 341.319 152.664 336.819C152.664 332.643 154.428 330.087 157.416 330.087ZM166.37 328.755V330.195C168.674 329.907 169.754 328.359 169.754 325.299V321.771H166.37V325.299H168.098C167.99 327.639 167.63 328.467 166.37 328.755ZM181.636 333.183H184.732C184.732 329.727 182.14 327.567 177.856 327.567C175.516 327.567 173.932 328.143 172.672 329.403C171.628 330.411 171.088 331.671 171.088 333.075C171.088 334.371 171.556 335.595 172.528 336.315C173.392 336.999 174.508 337.431 176.92 338.007C177.604 338.187 178.396 338.331 178.972 338.511C179.944 338.763 180.232 338.835 180.556 338.979C181.528 339.375 182.032 340.023 182.032 340.923C182.032 342.615 180.484 343.659 178.18 343.659C176.488 343.659 175.012 343.191 174.292 342.471C173.752 341.931 173.608 341.391 173.572 340.095H170.548C170.548 344.163 173.104 346.431 177.856 346.431C182.284 346.431 185.2 344.055 185.2 340.419C185.2 338.547 184.372 337.179 182.68 336.351C182.068 336.063 180.52 335.631 178.468 335.091L175.84 334.407C175.408 334.263 175.084 334.155 174.832 333.975C174.436 333.723 174.184 333.291 174.184 332.751C174.184 331.203 175.624 330.195 177.64 330.195C179.296 330.195 180.448 330.555 181.06 331.239C181.456 331.707 181.528 332.067 181.636 333.183ZM191.571 328.215V330.519H194.091V345.783H197.007V330.519H200.067V328.215H197.079V326.415C197.079 324.651 197.655 324.039 199.239 324.039C199.563 324.039 199.743 324.039 200.067 324.075V321.267C199.023 321.159 198.735 321.195 198.267 321.195C195.531 321.195 194.019 322.779 194.019 325.659V328.215H191.571ZM201.29 328.215V345.783H204.206V328.215H201.29ZM201.29 321.771V325.119H204.206V321.771H201.29ZM221.445 340.059H218.205C217.917 341.211 217.773 341.787 217.233 342.327C216.513 343.299 215.289 343.767 213.885 343.767C212.265 343.767 210.789 343.047 209.961 341.787C209.241 340.779 208.953 339.699 208.845 337.863H221.625V336.459C221.625 334.623 221.193 332.895 220.365 331.347C219.033 328.899 216.765 327.603 213.777 327.603C211.185 327.603 208.989 328.647 207.513 330.663C206.253 332.355 205.641 334.407 205.641 337.287C205.641 342.939 208.773 346.431 213.777 346.431C216.333 346.431 218.457 345.603 219.717 344.127C220.761 342.939 221.337 341.607 221.445 340.059ZM218.457 335.451H208.845C209.097 332.283 210.897 330.267 213.669 330.267C216.441 330.267 218.313 332.283 218.457 335.451ZM223.123 328.215V345.783H226.039V336.279C226.039 335.307 226.399 333.795 226.795 333.111C227.623 331.707 228.919 331.023 230.755 331.023H231.691V327.855H230.503C228.667 327.855 227.407 328.719 226.111 331.023V328.215H223.123ZM246.394 339.483H243.298C243.01 342.291 241.642 343.695 239.23 343.695C236.098 343.695 234.19 341.283 234.19 337.431C234.19 335.307 234.478 333.687 235.09 332.643C235.918 331.167 237.466 330.267 239.23 330.267C241.498 330.267 242.83 331.527 243.082 333.831H246.25C245.998 329.835 243.442 327.567 239.23 327.567C236.674 327.567 234.622 328.539 233.11 330.447C231.706 332.283 231.094 334.335 231.094 337.323C231.094 339.159 231.562 341.247 232.39 342.651C233.722 345.099 236.314 346.467 239.482 346.467C243.55 346.467 246.142 343.839 246.394 339.483ZM263.175 340.059H259.935C259.647 341.211 259.503 341.787 258.963 342.327C258.243 343.299 257.019 343.767 255.615 343.767C253.995 343.767 252.519 343.047 251.691 341.787C250.971 340.779 250.683 339.699 250.575 337.863H263.355V336.459C263.355 334.623 262.923 332.895 262.095 331.347C260.763 328.899 258.495 327.603 255.507 327.603C252.915 327.603 250.719 328.647 249.243 330.663C247.983 332.355 247.371 334.407 247.371 337.287C247.371 342.939 250.503 346.431 255.507 346.431C258.063 346.431 260.187 345.603 261.447 344.127C262.491 342.939 263.067 341.607 263.175 340.059ZM260.187 335.451H250.575C250.827 332.283 252.627 330.267 255.399 330.267C258.171 330.267 260.043 332.283 260.187 335.451ZM264.853 321.771V345.783H267.769V321.771H264.853ZM271.939 328.215H268.771L275.035 346.467L274.135 348.915C273.847 349.743 273.055 350.319 272.155 350.319C271.615 350.319 271.291 350.283 270.283 350.031V352.551C271.543 352.731 272.011 352.767 272.551 352.767C273.811 352.767 274.783 352.443 275.467 351.759C276.223 351.111 276.583 350.427 277.339 348.231L284.359 328.215H281.371L276.619 342.687L271.939 328.215ZM291.15 328.215V345.783H294.066V328.215H291.15ZM291.15 321.771V325.119H294.066V321.771H291.15ZM298.848 330.519V328.215H295.896V345.783H298.812V335.631C298.812 332.463 300.648 330.411 303.492 330.411C305.832 330.411 307.128 331.779 307.128 334.371V345.783H310.044V333.291C310.044 332.103 309.828 331.059 309.36 330.231C308.46 328.683 306.552 327.747 304.248 327.747C302.7 327.747 301.332 328.215 300.36 328.971C299.964 329.295 299.676 329.547 298.848 330.519ZM326.941 345.783V321.771H324.025V330.015C322.549 328.251 321.073 327.531 318.877 327.531C316.537 327.531 314.557 328.467 313.261 330.195C312.001 331.887 311.461 334.047 311.461 337.251C311.461 342.903 314.269 346.395 318.877 346.395C321.181 346.395 322.513 345.747 323.917 343.767V345.783H326.941ZM319.381 330.087C320.785 330.087 322.225 330.843 322.945 331.959C323.665 333.075 324.133 335.019 324.133 337.035C324.133 341.247 322.369 343.839 319.381 343.839C316.357 343.839 314.629 341.319 314.629 336.819C314.629 332.643 316.393 330.087 319.381 330.087ZM344.175 340.059H340.935C340.647 341.211 340.503 341.787 339.963 342.327C339.243 343.299 338.019 343.767 336.615 343.767C334.995 343.767 333.519 343.047 332.691 341.787C331.971 340.779 331.683 339.699 331.575 337.863H344.355V336.459C344.355 334.623 343.923 332.895 343.095 331.347C341.763 328.899 339.495 327.603 336.507 327.603C333.915 327.603 331.719 328.647 330.243 330.663C328.983 332.355 328.371 334.407 328.371 337.287C328.371 342.939 331.503 346.431 336.507 346.431C339.063 346.431 341.187 345.603 342.447 344.127C343.491 342.939 344.067 341.607 344.175 340.059ZM341.187 335.451H331.575C331.827 332.283 333.627 330.267 336.399 330.267C339.171 330.267 341.043 332.283 341.187 335.451ZM345.853 328.215V352.227H348.769V343.983C350.209 345.747 351.685 346.431 353.881 346.431C356.221 346.431 358.201 345.531 359.497 343.767C360.757 342.075 361.333 339.951 361.333 336.747C361.333 331.131 358.489 327.567 353.917 327.567C351.577 327.567 350.281 328.215 348.841 330.195V328.215H345.853ZM353.377 330.123C356.401 330.123 358.129 332.643 358.129 337.143C358.129 341.319 356.293 343.875 353.377 343.875C351.973 343.875 350.533 343.119 349.813 342.003C349.093 340.851 348.625 338.979 348.625 336.963C348.625 332.679 350.389 330.123 353.377 330.123ZM378.171 340.059H374.931C374.643 341.211 374.499 341.787 373.959 342.327C373.239 343.299 372.015 343.767 370.611 343.767C368.991 343.767 367.515 343.047 366.687 341.787C365.967 340.779 365.679 339.699 365.571 337.863H378.351V336.459C378.351 334.623 377.919 332.895 377.091 331.347C375.759 328.899 373.491 327.603 370.503 327.603C367.911 327.603 365.715 328.647 364.239 330.663C362.979 332.355 362.367 334.407 362.367 337.287C362.367 342.939 365.499 346.431 370.503 346.431C373.059 346.431 375.183 345.603 376.443 344.127C377.487 342.939 378.063 341.607 378.171 340.059ZM375.183 335.451H365.571C365.823 332.283 367.623 330.267 370.395 330.267C373.167 330.267 375.039 332.283 375.183 335.451ZM382.801 330.519V328.215H379.849V345.783H382.765V335.631C382.765 332.463 384.601 330.411 387.445 330.411C389.785 330.411 391.081 331.779 391.081 334.371V345.783H393.997V333.291C393.997 332.103 393.781 331.059 393.313 330.231C392.413 328.683 390.505 327.747 388.201 327.747C386.653 327.747 385.285 328.215 384.313 328.971C383.917 329.295 383.629 329.547 382.801 330.519ZM410.894 345.783V321.771H407.978V330.015C406.502 328.251 405.026 327.531 402.83 327.531C400.49 327.531 398.51 328.467 397.214 330.195C395.954 331.887 395.414 334.047 395.414 337.251C395.414 342.903 398.222 346.395 402.83 346.395C405.134 346.395 406.466 345.747 407.87 343.767V345.783H410.894ZM403.334 330.087C404.738 330.087 406.178 330.843 406.898 331.959C407.618 333.075 408.086 335.019 408.086 337.035C408.086 341.247 406.322 343.839 403.334 343.839C400.31 343.839 398.582 341.319 398.582 336.819C398.582 332.643 400.346 330.087 403.334 330.087ZM428.128 340.059H424.888C424.6 341.211 424.456 341.787 423.916 342.327C423.196 343.299 421.972 343.767 420.568 343.767C418.948 343.767 417.472 343.047 416.644 341.787C415.924 340.779 415.636 339.699 415.528 337.863H428.308V336.459C428.308 334.623 427.876 332.895 427.048 331.347C425.716 328.899 423.448 327.603 420.46 327.603C417.868 327.603 415.672 328.647 414.196 330.663C412.936 332.355 412.324 334.407 412.324 337.287C412.324 342.939 415.456 346.431 420.46 346.431C423.016 346.431 425.14 345.603 426.4 344.127C427.444 342.939 428.02 341.607 428.128 340.059ZM425.14 335.451H415.528C415.78 332.283 417.58 330.267 420.352 330.267C423.124 330.267 424.996 332.283 425.14 335.451ZM432.758 330.519V328.215H429.806V345.783H432.722V335.631C432.722 332.463 434.558 330.411 437.402 330.411C439.742 330.411 441.038 331.779 441.038 334.371V345.783H443.954V333.291C443.954 332.103 443.738 331.059 443.27 330.231C442.37 328.683 440.462 327.747 438.158 327.747C436.61 327.747 435.242 328.215 434.27 328.971C433.874 329.295 433.586 329.547 432.758 330.519ZM445.083 328.107V330.447H447.495V342.111C447.495 344.739 448.575 345.819 451.167 345.819C451.635 345.819 452.067 345.783 453.363 345.675V343.299C452.895 343.299 452.571 343.335 452.427 343.335C450.807 343.335 450.519 343.011 450.519 341.139V330.447H453.255V328.107H450.411V323.607H447.495V328.107H445.083ZM460.357 328.215V345.783H463.273V336.279C463.273 335.307 463.633 333.795 464.029 333.111C464.857 331.707 466.153 331.023 467.989 331.023H468.925V327.855H467.737C465.901 327.855 464.641 328.719 463.345 331.023V328.215H460.357ZM485.096 345.891V343.551C484.664 343.659 484.52 343.659 484.268 343.659C483.44 343.659 483.08 343.299 483.08 342.183V332.787C483.08 329.619 480.596 327.675 476.42 327.675C471.92 327.675 469.184 329.799 468.896 333.543H471.992C472.244 331.275 473.54 330.267 476.276 330.267C478.868 330.267 480.164 331.275 480.164 333.327C480.164 334.623 479.696 334.983 476.42 335.379C473.144 335.847 472.28 336.027 471.38 336.423C469.616 337.251 468.536 339.015 468.536 341.175C468.536 344.343 470.768 346.323 474.332 346.323C475.664 346.323 477.068 345.999 478.112 345.423C478.868 344.955 479.372 344.487 480.344 343.227C480.452 345.135 481.172 346.035 483.008 346.035C483.548 346.035 483.836 345.999 485.096 345.891ZM480.092 336.891V339.771C480.092 340.815 479.84 341.319 479.012 342.183C477.824 343.299 476.456 343.875 474.908 343.875C472.784 343.875 471.596 342.831 471.596 341.067C471.596 339.231 472.82 338.295 475.736 337.863C478.04 337.575 478.688 337.359 480.092 336.891ZM500.929 345.783V321.771H498.013V330.015C496.537 328.251 495.061 327.531 492.865 327.531C490.525 327.531 488.545 328.467 487.249 330.195C485.989 331.887 485.449 334.047 485.449 337.251C485.449 342.903 488.257 346.395 492.865 346.395C495.169 346.395 496.501 345.747 497.905 343.767V345.783H500.929ZM493.369 330.087C494.773 330.087 496.213 330.843 496.933 331.959C497.653 333.075 498.121 335.019 498.121 337.035C498.121 341.247 496.357 343.839 493.369 343.839C490.345 343.839 488.617 341.319 488.617 336.819C488.617 332.643 490.381 330.087 493.369 330.087ZM502.755 328.215V345.783H505.671V328.215H502.755ZM502.755 321.771V325.119H505.671V321.771H502.755ZM515.241 327.495C510.453 327.495 507.105 331.455 507.105 337.107C507.105 342.723 510.309 346.431 515.097 346.431C520.101 346.431 523.305 342.759 523.305 336.963C523.305 331.203 520.137 327.495 515.241 327.495ZM515.205 330.267C518.337 330.267 520.137 332.715 520.137 336.999C520.137 341.283 518.337 343.767 515.169 343.767C512.037 343.767 510.273 341.283 510.273 336.963C510.273 332.751 512.073 330.267 515.205 330.267ZM540.968 333.183H544.064C544.064 329.727 541.472 327.567 537.188 327.567C534.848 327.567 533.264 328.143 532.004 329.403C530.96 330.411 530.42 331.671 530.42 333.075C530.42 334.371 530.888 335.595 531.86 336.315C532.724 336.999 533.84 337.431 536.252 338.007C536.936 338.187 537.728 338.331 538.304 338.511C539.276 338.763 539.564 338.835 539.888 338.979C540.86 339.375 541.364 340.023 541.364 340.923C541.364 342.615 539.816 343.659 537.512 343.659C535.82 343.659 534.344 343.191 533.624 342.471C533.084 341.931 532.94 341.391 532.904 340.095H529.88C529.88 344.163 532.436 346.431 537.188 346.431C541.616 346.431 544.532 344.055 544.532 340.419C544.532 338.547 543.704 337.179 542.012 336.351C541.4 336.063 539.852 335.631 537.8 335.091L535.172 334.407C534.74 334.263 534.416 334.155 534.164 333.975C533.768 333.723 533.516 333.291 533.516 332.751C533.516 331.203 534.956 330.195 536.972 330.195C538.628 330.195 539.78 330.555 540.392 331.239C540.788 331.707 540.86 332.067 540.968 333.183ZM543.978 328.107V330.447H546.39V342.111C546.39 344.739 547.47 345.819 550.062 345.819C550.53 345.819 550.962 345.783 552.258 345.675V343.299C551.79 343.299 551.466 343.335 551.322 343.335C549.702 343.335 549.414 343.011 549.414 341.139V330.447H552.15V328.107H549.306V323.607H546.39V328.107H543.978ZM569.12 345.891V343.551C568.688 343.659 568.544 343.659 568.292 343.659C567.464 343.659 567.104 343.299 567.104 342.183V332.787C567.104 329.619 564.62 327.675 560.444 327.675C555.944 327.675 553.208 329.799 552.92 333.543H556.016C556.268 331.275 557.564 330.267 560.3 330.267C562.892 330.267 564.188 331.275 564.188 333.327C564.188 334.623 563.72 334.983 560.444 335.379C557.168 335.847 556.304 336.027 555.404 336.423C553.64 337.251 552.56 339.015 552.56 341.175C552.56 344.343 554.792 346.323 558.356 346.323C559.688 346.323 561.092 345.999 562.136 345.423C562.892 344.955 563.396 344.487 564.368 343.227C564.476 345.135 565.196 346.035 567.032 346.035C567.572 346.035 567.86 345.999 569.12 345.891ZM564.116 336.891V339.771C564.116 340.815 563.864 341.319 563.036 342.183C561.848 343.299 560.48 343.875 558.932 343.875C556.808 343.875 555.62 342.831 555.62 341.067C555.62 339.231 556.844 338.295 559.76 337.863C562.064 337.575 562.712 337.359 564.116 336.891ZM568.13 328.107V330.447H570.542V342.111C570.542 344.739 571.622 345.819 574.214 345.819C574.682 345.819 575.114 345.783 576.41 345.675V343.299C575.942 343.299 575.618 343.335 575.474 343.335C573.854 343.335 573.566 343.011 573.566 341.139V330.447H576.302V328.107H573.458V323.607H570.542V328.107H568.13ZM577.568 328.215V345.783H580.484V328.215H577.568ZM577.568 321.771V325.119H580.484V321.771H577.568ZM590.054 327.495C585.266 327.495 581.918 331.455 581.918 337.107C581.918 342.723 585.122 346.431 589.91 346.431C594.914 346.431 598.118 342.759 598.118 336.963C598.118 331.203 594.95 327.495 590.054 327.495ZM590.018 330.267C593.15 330.267 594.95 332.715 594.95 336.999C594.95 341.283 593.15 343.767 589.982 343.767C586.85 343.767 585.086 341.283 585.086 336.963C585.086 332.751 586.886 330.267 590.018 330.267ZM602.492 330.519V328.215H599.54V345.783H602.456V335.631C602.456 332.463 604.292 330.411 607.136 330.411C609.476 330.411 610.772 331.779 610.772 334.371V345.783H613.688V333.291C613.688 332.103 613.472 331.059 613.004 330.231C612.104 328.683 610.196 327.747 607.892 327.747C606.344 327.747 604.976 328.215 604.004 328.971C603.608 329.295 603.32 329.547 602.492 330.519ZM615.069 342.291V345.783H618.417V342.291H615.069Z" fill="black"/>
<path d="M324.373 42.9283C324.488 41.2174 324.788 38.6253 325.272 35.1519C325.489 33.2886 326.437 32.229 328.118 31.9732C328.592 31.913 329.03 31.9193 329.432 31.9922C330.967 32.2709 331.855 33.2249 332.095 34.8541C332.164 35.2813 332.1 36.038 331.903 37.1242L329.388 50.1688C328.98 52.4121 327.838 53.6681 325.959 53.9369C325.481 54.0207 325.017 54.0219 324.568 53.9404C323.34 53.7175 322.389 52.9106 321.715 51.5197L318.867 45.8436C318.752 47.2862 318.483 49.3717 318.06 52.1002C317.782 54.1717 316.664 55.3591 314.706 55.6622C314.227 55.746 313.776 55.7494 313.351 55.6722C312.099 55.4449 311.086 54.5779 310.31 53.0712L304.074 41.4744C303.509 40.4206 303.18 39.5437 303.088 38.844C303.021 38.5392 303.016 38.2333 303.072 37.9263C303.226 37.0762 303.739 36.401 304.61 35.9006C305.458 35.3959 306.319 35.2229 307.192 35.3816C308.302 35.5831 309.148 36.2977 309.73 37.5255L313.126 44.6182C313.256 42.9588 313.579 40.444 314.093 37.0736C314.335 35.0686 315.334 33.9328 317.09 33.6662C317.541 33.6017 317.967 33.6059 318.369 33.6788C319.455 33.8761 320.325 34.6562 320.98 36.0191L324.373 42.9283ZM347.816 49.7096L338.063 51.2317C338.565 51.9572 339.301 52.4078 340.269 52.5836C340.812 52.6822 341.398 52.6788 342.027 52.5735C342.881 52.4359 343.875 51.9334 345.008 51.0659C346.142 50.1984 346.973 49.7152 347.503 49.6163C347.804 49.5733 348.096 49.5775 348.379 49.629C349.206 49.7791 349.872 50.205 350.379 50.9068C350.91 51.613 351.102 52.3675 350.956 53.1703C350.72 54.4691 349.666 55.7047 347.795 56.8772C346.11 57.9617 344.352 58.6426 342.521 58.9199C341.216 59.122 339.95 59.1115 338.722 58.8886C336.526 58.4898 334.674 57.4706 333.166 55.8309C331.683 54.1956 330.757 52.1737 330.389 49.7652C330.183 48.4837 330.198 47.1936 330.434 45.8949C330.828 43.7224 331.737 41.875 333.16 40.3527C334.698 38.7295 336.571 37.7523 338.778 37.4212C339.881 37.2557 340.964 37.2694 342.027 37.4623C344.199 37.8568 346.092 38.92 347.704 40.652C349.239 42.2723 350.154 44.0849 350.449 46.0898C350.528 46.5921 350.53 47.0558 350.452 47.4808C350.225 48.7324 349.346 49.4753 347.816 49.7096ZM339.732 43.4487C338.277 43.6723 337.4 44.5376 337.102 46.0446L343.011 45.1417C342.523 44.1994 341.807 43.6425 340.862 43.471C340.508 43.4067 340.132 43.3993 339.732 43.4487ZM378.711 64.174C378.392 64.1891 378.078 64.1688 377.771 64.113C376.968 63.9673 376.327 63.5338 375.849 62.8126C374.58 64.0215 373.073 64.6626 371.328 64.736C370.613 64.777 369.914 64.7353 369.229 64.6109C367.009 64.2079 365.167 63.0684 363.703 61.1926C362.266 59.2975 361.475 57.0072 361.328 54.3218C361.287 53.3387 361.352 52.3749 361.524 51.4303C361.957 49.0453 362.974 47.0712 364.575 45.5081C366.18 43.9214 368.079 43.0709 370.27 42.9566C370.886 42.9221 371.478 42.9563 372.044 43.0592C373.154 43.2607 374.136 43.6952 374.991 44.3626C375.605 43.4008 376.504 42.8811 377.689 42.8035C378.08 42.8013 378.44 42.8302 378.771 42.8902C380.329 43.1732 381.17 44.5211 381.293 46.9338L381.895 59.7394C381.923 60.5251 381.892 61.1658 381.802 61.6617C381.51 63.2675 380.48 64.1049 378.711 64.174ZM368.421 52.5363C368.335 53.0086 368.295 53.5013 368.299 54.0143C368.351 55.0726 368.624 55.9881 369.118 56.7607C369.611 57.5334 370.26 57.9926 371.063 58.1384C371.984 58.3056 372.759 58.0682 373.387 57.4263C373.975 56.8744 374.357 56.1144 374.533 55.1463C374.615 54.6976 374.641 54.2146 374.613 53.6973C374.566 52.6154 374.295 51.6881 373.801 50.9154C373.312 50.1192 372.677 49.6503 371.898 49.5088C370.977 49.3416 370.204 49.5671 369.58 50.1855C368.983 50.7846 368.597 51.5682 368.421 52.5363ZM391.6 48.0004C392.505 47.3111 393.67 47.1444 395.093 47.5004C395.978 47.7342 396.657 48.2235 397.132 48.9683C397.636 49.8161 397.753 50.7885 397.48 51.8854C397.221 52.9116 396.501 53.5858 395.32 53.9081C394.24 54.0779 393.161 54.2477 392.081 54.4176C390.909 54.6926 390.206 55.2724 389.972 56.1568L388.026 63.8529C387.739 64.8984 387.193 65.6896 386.388 66.2264C385.583 66.7633 384.679 66.9041 383.677 66.6489C382.698 66.3979 381.98 65.8529 381.522 65.0136C381.069 64.1508 380.974 63.1945 381.238 62.1447L384.709 48.4689C385.001 47.3998 385.602 46.6429 386.512 46.1984C387.315 45.8075 388.158 45.729 389.043 45.9627C390.419 46.3102 391.271 46.9894 391.6 48.0004ZM411.843 61.3355L402.09 62.8576C402.593 63.583 403.328 64.0336 404.296 64.2094C404.839 64.308 405.425 64.3047 406.054 64.1993C406.909 64.0618 407.902 63.5592 409.036 62.6917C410.169 61.8242 411.001 61.341 411.531 61.2422C411.831 61.1992 412.123 61.2034 412.407 61.2548C413.233 61.4049 413.9 61.8309 414.406 62.5327C414.937 63.2388 415.129 63.9933 414.983 64.7962C414.747 66.0949 413.694 67.3306 411.822 68.5031C410.137 69.5875 408.379 70.2684 406.548 70.5457C405.243 70.7478 403.977 70.7374 402.749 70.5144C400.553 70.1157 398.701 69.0964 397.194 67.4568C395.71 65.8214 394.784 63.7995 394.417 61.3911C394.21 60.1096 394.225 58.8195 394.461 57.5207C394.855 55.3482 395.764 53.5008 397.187 51.9785C398.726 50.3553 400.598 49.3782 402.805 49.0471C403.908 48.8815 404.991 48.8952 406.054 49.0882C408.226 49.4826 410.119 50.5459 411.731 52.2778C413.267 53.8981 414.182 55.7108 414.476 57.7156C414.556 58.2179 414.557 58.6816 414.48 59.1066C414.252 60.3582 413.374 61.1011 411.843 61.3355ZM403.76 55.0746C402.304 55.2982 401.428 56.1635 401.129 57.6705L407.038 56.7675C406.55 55.8252 405.834 55.2684 404.89 55.0969C404.536 55.0325 404.159 55.0251 403.76 55.0746Z" fill="white"/>
<path d="M47.0303 246.783L51.5381 267.775L72.5303 272.283L51.5381 276.791L47.0303 297.783L42.5225 276.791L21.5303 272.283L42.5225 267.775L47.0303 246.783Z" fill="#211C1C"/>
<path d="M683.56 44.985L683.696 45.617L684.328 45.7527L700.767 49.2828L684.328 52.8129L683.696 52.9487L683.56 53.5807L680.03 70.0198L676.5 53.5807L676.364 52.9487L675.732 52.8129L659.293 49.2828L675.732 45.7527L676.364 45.617L676.5 44.985L680.03 28.5459L683.56 44.985Z" stroke="black" stroke-width="2"/>
<path d="M47.0303 246.783L51.5381 267.775L72.5303 272.283L51.5381 276.791L47.0303 297.783L42.5225 276.791L21.5303 272.283L42.5225 267.775L47.0303 246.783Z" fill="#211C1C"/>
<path d="M683.56 44.985L683.696 45.617L684.328 45.7527L700.767 49.2828L684.328 52.8129L683.696 52.9487L683.56 53.5807L680.03 70.0198L676.5 53.5807L676.364 52.9487L675.732 52.8129L659.293 49.2828L675.732 45.7527L676.364 45.617L676.5 44.985L680.03 28.5459L683.56 44.985Z" stroke="black" stroke-width="2"/>
</svg>
