<svg width="657" height="102" viewBox="0 0 657 102" fill="none" xmlns="http://www.w3.org/2000/svg">
<path d="M25.5 51L30.0078 71.9922L51 76.5L30.0078 81.0078L25.5 102L20.9922 81.0078L0 76.5L20.9922 71.9922L25.5 51Z" fill="#211C1C"/>
<path d="M635.03 21.2021L635.166 21.8342L635.798 21.9699L652.237 25.5L635.798 29.0301L635.166 29.1658L635.03 29.7979L631.5 46.237L627.97 29.7979L627.834 29.1658L627.202 29.0301L610.763 25.5L627.202 21.9699L627.834 21.8342L627.97 21.2021L631.5 4.76302L635.03 21.2021Z" stroke="black" stroke-width="2"/>
<path d="M94.59 46.9C94.2167 43.5867 93.89 38.5233 93.61 31.71C93.3767 28.07 94.8233 25.7133 97.95 24.64C98.8367 24.36 99.6767 24.22 100.47 24.22C103.503 24.22 105.533 25.7367 106.56 28.77C106.84 29.5633 106.98 31.0333 106.98 33.18L106.7 59.01C106.7 63.4433 104.95 66.2433 101.45 67.41C100.563 67.7367 99.6767 67.9 98.79 67.9C96.3633 67.9 94.2633 66.6867 92.49 64.26L85.07 54.39C85.35 57.19 85.56 61.2733 85.7 66.64C85.8867 70.7 84.16 73.36 80.52 74.62C79.6333 74.9467 78.77 75.11 77.93 75.11C75.4567 75.11 73.2167 73.8033 71.21 71.19L55.25 51.17C53.8033 49.35 52.87 47.7867 52.45 46.48C52.2167 45.92 52.1 45.3367 52.1 44.73C52.1 43.05 52.8467 41.58 54.34 40.32C55.7867 39.06 57.3733 38.43 59.1 38.43C61.2933 38.43 63.16 39.5033 64.7 41.65L73.66 54.04C73.3333 50.82 73.0767 45.8967 72.89 39.27C72.6567 35.35 74.1733 32.83 77.44 31.71C78.28 31.43 79.0967 31.29 79.89 31.29C82.0367 31.29 83.9733 32.48 85.7 34.86L94.59 46.9ZM141.796 51.73L123.666 58.03C124.88 59.2433 126.443 59.85 128.356 59.85C129.43 59.85 130.55 59.64 131.716 59.22C133.303 58.66 135.03 57.3533 136.896 55.3C138.763 53.2467 140.186 52.0333 141.166 51.66C141.726 51.4733 142.286 51.38 142.846 51.38C144.48 51.38 145.903 51.9633 147.116 53.13C148.376 54.2967 149.006 55.6733 149.006 57.26C149.006 59.8267 147.42 62.5567 144.246 65.45C141.4 68.11 138.273 70.0233 134.866 71.19C132.44 72.03 130.013 72.45 127.586 72.45C123.246 72.45 119.35 71.1433 115.896 68.53C112.49 65.9167 110.016 62.37 108.476 57.89C107.636 55.51 107.216 53.0367 107.216 50.47C107.216 46.1767 108.313 42.3267 110.506 38.92C112.886 35.28 116.13 32.76 120.236 31.36C122.29 30.66 124.366 30.31 126.466 30.31C130.76 30.31 134.75 31.6867 138.436 34.44C141.936 37.0067 144.316 40.1567 145.576 43.89C145.903 44.8233 146.066 45.71 146.066 46.55C146.066 49.0233 144.643 50.75 141.796 51.73ZM124.156 42.56C121.45 43.4933 120.073 45.4533 120.026 48.44L131.016 44.66C129.756 43.0267 128.193 42.21 126.326 42.21C125.626 42.21 124.903 42.3267 124.156 42.56ZM154.888 72.1C152.882 71.96 151.295 71.1667 150.128 69.72C149.008 68.2267 148.518 66.4067 148.658 64.26L151.668 21.28C151.808 19.18 152.555 17.4767 153.908 16.17C155.262 14.8633 156.942 14.28 158.948 14.42C160.955 14.56 162.518 15.3767 163.638 16.87C164.805 18.3167 165.318 20.1133 165.178 22.26L162.168 65.24C162.028 67.34 161.282 69.0433 159.928 70.35C158.575 71.6567 156.895 72.24 154.888 72.1ZM184.289 72.38C178.456 72.7067 173.556 70.8633 169.589 66.85C165.762 62.9767 163.686 58.1467 163.359 52.36C163.079 46.6667 164.666 41.65 168.119 37.31C171.712 32.7833 176.356 30.3567 182.049 30.03C185.082 29.89 188.046 30.38 190.939 31.5C194.532 32.9 196.399 34.8833 196.539 37.45C196.632 38.9433 196.259 40.3667 195.419 41.72C194.392 43.3533 193.016 44.2167 191.289 44.31C190.356 44.3567 189.002 44.1 187.229 43.54C185.502 42.98 184.172 42.7233 183.239 42.77C181.139 42.8633 179.529 43.75 178.409 45.43C177.289 47.11 176.799 49.1867 176.939 51.66C177.079 53.9467 177.802 55.8833 179.109 57.47C180.462 59.0567 182.119 59.78 184.079 59.64C184.966 59.5933 186.202 59.1967 187.789 58.45C189.422 57.6567 190.659 57.2367 191.499 57.19C193.132 57.0967 194.579 57.6333 195.839 58.8C197.099 59.92 197.776 61.32 197.869 63C198.009 65.7067 196.306 67.9933 192.759 69.86C189.959 71.4 187.136 72.24 184.289 72.38ZM215.598 72.59C209.764 72.87 204.864 71.0033 200.898 66.99C197.071 63.1167 194.994 58.2867 194.668 52.5C194.388 46.8067 195.974 41.79 199.428 37.45C203.021 32.9233 207.664 30.4967 213.358 30.17C219.098 29.89 223.974 31.8267 227.988 35.98C231.861 39.9 233.961 44.7067 234.288 50.4C234.568 56.2333 233.028 61.25 229.668 65.45C226.121 69.8833 221.431 72.2633 215.598 72.59ZM214.058 42.91C212.144 43.0033 210.651 43.9133 209.578 45.64C208.551 47.32 208.108 49.3733 208.248 51.8C208.388 54.1333 209.064 56.0933 210.278 57.68C211.491 59.22 213.031 59.9433 214.898 59.85C216.811 59.7567 218.281 58.87 219.308 57.19C220.381 55.51 220.848 53.48 220.708 51.1C220.568 48.72 219.891 46.7367 218.678 45.15C217.511 43.5633 215.971 42.8167 214.058 42.91ZM289.706 66.71C289.192 66.85 288.656 66.92 288.096 66.92C286.509 66.92 285.109 66.3833 283.896 65.31C282.682 64.2367 281.866 62.8133 281.446 61.04L277.526 43.96C276.872 41.1133 275.472 39.69 273.326 39.69C272.066 39.69 271.062 40.11 270.316 40.95C269.569 41.7433 269.196 42.77 269.196 44.03C269.196 44.59 269.266 45.1967 269.406 45.85L273.326 62.93C273.512 63.63 273.606 64.3067 273.606 64.96C273.606 66.5933 273.139 68.0167 272.206 69.23C271.272 70.4433 269.989 71.2367 268.356 71.61C267.842 71.75 267.306 71.82 266.746 71.82C265.159 71.82 263.759 71.2833 262.546 70.21C261.332 69.1367 260.516 67.7367 260.096 66.01L256.176 48.86C255.522 46.06 254.122 44.66 251.976 44.66C249.176 44.66 247.776 46.0133 247.776 48.72C247.776 49.3267 247.869 50.0033 248.056 50.75L251.976 67.9C252.162 68.5533 252.256 69.2067 252.256 69.86C252.256 71.4933 251.789 72.9167 250.856 74.13C249.922 75.39 248.662 76.2067 247.076 76.58C246.516 76.6733 245.956 76.72 245.396 76.72C243.809 76.72 242.409 76.1833 241.196 75.11C239.982 74.0833 239.166 72.6833 238.746 70.91L232.726 44.73C232.586 44.0767 232.516 43.4233 232.516 42.77C232.516 41.09 232.959 39.6433 233.846 38.43C234.779 37.2167 236.062 36.4233 237.696 36.05C238.302 35.91 238.886 35.84 239.446 35.84C241.032 35.84 242.362 36.33 243.436 37.31C246.282 33.81 250.039 32.06 254.706 32.06C257.459 32.06 260.026 32.8067 262.406 34.3C264.926 30.8 268.052 28.6067 271.786 27.72C273.279 27.3933 274.749 27.23 276.196 27.23C279.696 27.23 282.706 28.2567 285.226 30.31C287.746 32.3633 289.449 35.3267 290.336 39.2L294.676 58.03C294.862 58.6833 294.956 59.3367 294.956 59.99C294.956 61.67 294.489 63.1167 293.556 64.33C292.622 65.5433 291.339 66.3367 289.706 66.71ZM328.554 51.73L310.424 58.03C311.637 59.2433 313.201 59.85 315.114 59.85C316.187 59.85 317.307 59.64 318.474 59.22C320.061 58.66 321.787 57.3533 323.654 55.3C325.521 53.2467 326.944 52.0333 327.924 51.66C328.484 51.4733 329.044 51.38 329.604 51.38C331.237 51.38 332.661 51.9633 333.874 53.13C335.134 54.2967 335.764 55.6733 335.764 57.26C335.764 59.8267 334.177 62.5567 331.004 65.45C328.157 68.11 325.031 70.0233 321.624 71.19C319.197 72.03 316.771 72.45 314.344 72.45C310.004 72.45 306.107 71.1433 302.654 68.53C299.247 65.9167 296.774 62.37 295.234 57.89C294.394 55.51 293.974 53.0367 293.974 50.47C293.974 46.1767 295.071 42.3267 297.264 38.92C299.644 35.28 302.887 32.76 306.994 31.36C309.047 30.66 311.124 30.31 313.224 30.31C317.517 30.31 321.507 31.6867 325.194 34.44C328.694 37.0067 331.074 40.1567 332.334 43.89C332.661 44.8233 332.824 45.71 332.824 46.55C332.824 49.0233 331.401 50.75 328.554 51.73ZM310.914 42.56C308.207 43.4933 306.831 45.4533 306.784 48.44L317.774 44.66C316.514 43.0267 314.951 42.21 313.084 42.21C312.384 42.21 311.661 42.3267 310.914 42.56ZM374.487 45.08L373.437 44.8L368.607 65.73C368.187 67.5033 367.371 68.9267 366.157 70C364.944 71.0267 363.521 71.54 361.887 71.54C361.374 71.54 360.837 71.4933 360.277 71.4C358.691 71.0267 357.431 70.2333 356.497 69.02C355.564 67.76 355.097 66.3133 355.097 64.68C355.097 64.0267 355.167 63.3733 355.307 62.72L360.207 41.72L359.717 41.65C356.497 40.9033 354.887 38.99 354.887 35.91C354.887 35.35 354.957 34.79 355.097 34.23C355.424 32.7833 356.124 31.64 357.197 30.8C358.317 29.9133 359.577 29.47 360.977 29.47C361.491 29.47 361.981 29.5167 362.447 29.61L362.937 29.75L363.917 25.55C364.337 23.8233 365.131 22.4233 366.297 21.35C367.511 20.2767 368.934 19.74 370.567 19.74C371.081 19.74 371.617 19.81 372.177 19.95C373.811 20.3233 375.071 21.1167 375.957 22.33C376.891 23.5433 377.357 24.99 377.357 26.67C377.357 27.3233 377.287 27.9767 377.147 28.63L376.167 32.83L377.287 33.04C380.741 33.8333 382.467 35.77 382.467 38.85C382.467 39.3633 382.421 39.9233 382.327 40.53C381.581 43.7033 379.597 45.29 376.377 45.29C375.771 45.29 375.141 45.22 374.487 45.08ZM399.963 72.59C394.129 72.87 389.229 71.0033 385.263 66.99C381.436 63.1167 379.359 58.2867 379.033 52.5C378.753 46.8067 380.339 41.79 383.793 37.45C387.386 32.9233 392.029 30.4967 397.723 30.17C403.463 29.89 408.339 31.8267 412.353 35.98C416.226 39.9 418.326 44.7067 418.653 50.4C418.933 56.2333 417.393 61.25 414.033 65.45C410.486 69.8833 405.796 72.2633 399.963 72.59ZM398.423 42.91C396.509 43.0033 395.016 43.9133 393.943 45.64C392.916 47.32 392.473 49.3733 392.613 51.8C392.753 54.1333 393.429 56.0933 394.643 57.68C395.856 59.22 397.396 59.9433 399.263 59.85C401.176 59.7567 402.646 58.87 403.673 57.19C404.746 55.51 405.213 53.48 405.073 51.1C404.933 48.72 404.256 46.7367 403.043 45.15C401.876 43.5633 400.336 42.8167 398.423 42.91ZM471.179 74.41C469.219 73.99 467.306 72.31 465.439 69.37L453.749 50.47L451.229 63.56C450.902 65.1933 450.109 66.5233 448.849 67.55C447.636 68.5767 446.189 69.09 444.509 69.09C442.549 69.09 440.869 68.46 439.469 67.2C438.022 65.94 437.299 64.33 437.299 62.37C437.299 61.9033 437.346 61.4133 437.439 60.9L445.209 21.21C445.489 19.53 446.236 18.1767 447.449 17.15C448.709 16.1233 450.179 15.61 451.859 15.61C453.866 15.61 455.569 16.24 456.969 17.5C458.369 18.76 459.069 20.37 459.069 22.33C459.069 22.8433 459.022 23.3567 458.929 23.87L456.899 34.37L473.699 22.26C475.146 21.1867 476.616 20.65 478.109 20.65C479.976 20.65 481.586 21.3267 482.939 22.68C484.339 23.9867 485.039 25.5733 485.039 27.44C485.039 27.9067 484.992 28.35 484.899 28.77C484.526 30.73 482.799 32.7133 479.719 34.72L465.719 44.03L477.409 62.23C478.902 64.5633 479.649 66.5 479.649 68.04C479.649 68.46 479.602 68.88 479.509 69.3C478.856 72.8 476.662 74.55 472.929 74.55C472.369 74.55 471.786 74.5033 471.179 74.41ZM500.399 72.59C496.245 72.59 492.372 71.9133 488.779 70.56C484.019 68.7867 481.639 66.2667 481.639 63C481.639 61.18 482.222 59.6167 483.389 58.31C484.602 56.9567 486.165 56.28 488.079 56.28C489.432 56.28 491.369 56.7467 493.889 57.68C496.455 58.5667 498.439 59.01 499.839 59.01C503.432 59.01 505.229 57.5867 505.229 54.74C505.229 53.34 503.199 52.0567 499.139 50.89C493.679 49.35 489.945 47.9267 487.939 46.62C483.879 44.0067 481.849 40.2033 481.849 35.21C481.849 29.89 483.785 25.5733 487.659 22.26C491.299 19.1333 495.732 17.57 500.959 17.57C504.085 17.57 507.235 18.2233 510.409 19.53C514.422 21.2567 516.429 23.52 516.429 26.32C516.429 28.14 515.845 29.75 514.679 31.15C513.512 32.55 511.949 33.25 509.989 33.25C508.915 33.25 507.375 32.9 505.369 32.2C503.362 31.5 501.799 31.15 500.679 31.15C498.019 31.15 496.689 32.0833 496.689 33.95C496.689 34.93 498.719 36.0033 502.779 37.17C507.912 38.6167 511.645 40.2033 513.979 41.93C518.039 44.9167 520.069 49.14 520.069 54.6C520.069 60.0133 518.085 64.4233 514.119 67.83C510.385 71.0033 505.812 72.59 500.399 72.59ZM543.429 71.89L531.389 73.99C530.969 74.0833 530.502 74.13 529.989 74.13C526.022 74.13 523.712 72.2167 523.059 68.39L516.199 29.75C516.152 29.2833 516.129 28.8167 516.129 28.35C516.129 26.6233 516.666 25.13 517.739 23.87C518.812 22.61 520.236 21.8167 522.009 21.49L533.489 19.46C535.496 19.1333 537.456 18.97 539.369 18.97C545.949 18.97 551.409 21 555.749 25.06C560.136 29.12 562.959 34.72 564.219 41.86C564.546 43.7733 564.709 45.6633 564.709 47.53C564.709 53.83 562.796 59.1733 558.969 63.56C555.189 67.9467 550.009 70.7233 543.429 71.89ZM535.589 32.48L531.039 33.25L535.729 59.85L540.979 58.94C547.186 57.8667 550.289 54.0633 550.289 47.53C550.289 46.3633 550.172 45.15 549.939 43.89C548.539 36.0967 544.712 32.2 538.459 32.2C537.572 32.2 536.616 32.2933 535.589 32.48ZM590.994 30.1L585.114 30.8L589.244 63.98C589.291 64.3533 589.314 64.7267 589.314 65.1C589.314 66.9667 588.731 68.53 587.564 69.79C586.444 71.0033 584.974 71.7267 583.154 71.96C581.148 72.1933 579.398 71.75 577.904 70.63C576.458 69.51 575.594 67.8533 575.314 65.66L571.254 32.55L565.374 33.25C563.274 33.4833 561.548 32.97 560.194 31.71C559.028 30.6367 558.351 29.2367 558.164 27.51C557.931 25.7833 558.328 24.1967 559.354 22.75C560.381 21.2567 561.874 20.3933 563.834 20.16L589.384 17.01C591.344 16.7767 593.024 17.2667 594.424 18.48C595.684 19.6 596.431 21.0233 596.664 22.75C596.851 24.4767 596.524 26.0167 595.684 27.37C594.658 28.91 593.094 29.82 590.994 30.1Z" fill="white"/>
</svg>
