<svg width="41" height="41" viewBox="0 0 41 41" fill="none" xmlns="http://www.w3.org/2000/svg">
<path d="M12.275 0.916504H28.725C34.9917 0.916504 40.0833 6.00817 40.0833 12.2748V28.7248C40.0833 31.7373 38.8867 34.6263 36.7566 36.7564C34.6265 38.8865 31.7374 40.0832 28.725 40.0832H12.275C6.00833 40.0832 0.916668 34.9915 0.916668 28.7248V12.2748C0.916668 9.26242 2.11335 6.37338 4.24345 4.24328C6.37355 2.11318 9.26258 0.916504 12.275 0.916504ZM11.8833 4.83317C10.0136 4.83317 8.22036 5.57594 6.89823 6.89807C5.5761 8.2202 4.83333 10.0134 4.83333 11.8832V29.1165C4.83333 33.0136 7.98625 36.1665 11.8833 36.1665H29.1167C30.9864 36.1665 32.7796 35.4237 34.1018 34.1016C35.4239 32.7795 36.1667 30.9863 36.1667 29.1165V11.8832C36.1667 7.98609 33.0138 4.83317 29.1167 4.83317H11.8833ZM30.7813 7.77067C31.4305 7.77067 32.0531 8.02858 32.5122 8.48765C32.9713 8.94672 33.2292 9.56936 33.2292 10.2186C33.2292 10.8678 32.9713 11.4905 32.5122 11.9495C32.0531 12.4086 31.4305 12.6665 30.7813 12.6665C30.132 12.6665 29.5094 12.4086 29.0503 11.9495C28.5912 11.4905 28.3333 10.8678 28.3333 10.2186C28.3333 9.56936 28.5912 8.94672 29.0503 8.48765C29.5094 8.02858 30.132 7.77067 30.7813 7.77067ZM20.5 10.7082C23.0969 10.7082 25.5875 11.7398 27.4238 13.5761C29.26 15.4124 30.2917 17.9029 30.2917 20.4998C30.2917 23.0968 29.26 25.5873 27.4238 27.4236C25.5875 29.2599 23.0969 30.2915 20.5 30.2915C17.9031 30.2915 15.4125 29.2599 13.5762 27.4236C11.74 25.5873 10.7083 23.0968 10.7083 20.4998C10.7083 17.9029 11.74 15.4124 13.5762 13.5761C15.4125 11.7398 17.9031 10.7082 20.5 10.7082ZM20.5 14.6248C18.9419 14.6248 17.4475 15.2438 16.3457 16.3456C15.244 17.4474 14.625 18.9417 14.625 20.4998C14.625 22.058 15.244 23.5523 16.3457 24.6541C17.4475 25.7559 18.9419 26.3748 20.5 26.3748C22.0581 26.3748 23.5525 25.7559 24.6543 24.6541C25.756 23.5523 26.375 22.058 26.375 20.4998C26.375 18.9417 25.756 17.4474 24.6543 16.3456C23.5525 15.2438 22.0581 14.6248 20.5 14.6248Z" fill="#FD0C72"/>
</svg>
