<svg width="134" height="55" viewBox="0 0 134 55" fill="none" xmlns="http://www.w3.org/2000/svg">
<path d="M22.28 38.672C23.0907 40.2933 24.008 42.5547 25.032 45.456C25.3733 46.3093 25.544 47.184 25.544 48.08C25.544 50.9387 24.136 52.8587 21.32 53.84C20.6373 54.096 19.9547 54.224 19.272 54.224C16.328 54.224 14.3227 52.6453 13.256 49.488L0.456 12.24C0.157333 11.3867 0.0079999 10.5333 0.0079999 9.68C0.0079999 6.736 1.37333 4.79466 4.104 3.856C4.78667 3.6 5.49067 3.472 6.216 3.472C9.11733 3.472 11.1013 5.05066 12.168 8.208L17.928 24.976L22.6 15.76C24.0507 12.9013 26.0133 11.472 28.488 11.472C30.0667 11.472 31.4107 12.0693 32.52 13.264C33.672 14.4587 34.248 15.8453 34.248 17.424C34.248 18.4907 33.9067 19.6 33.224 20.752L28.68 28.944L41.672 36.624C43.72 37.8187 44.744 39.5893 44.744 41.936C44.744 44.752 43.4213 46.6293 40.776 47.568C40.1787 47.7387 39.5813 47.824 38.984 47.824C37.6613 47.824 36.104 47.2693 34.312 46.16L22.28 38.672ZM59.356 51.92C58.0333 52.2187 56.54 52.368 54.876 52.368C52.1453 52.368 49.7133 51.92 47.58 51.024C44.6787 49.872 43.228 48.1013 43.228 45.712C43.228 44.4747 43.548 43.3227 44.188 42.256C44.956 40.976 46.044 40.1867 47.452 39.888C48.0067 39.76 48.5613 39.696 49.116 39.696C49.9693 39.696 51.1213 39.9093 52.572 40.336C54.0653 40.7627 55.2173 40.976 56.028 40.976C56.4973 40.976 56.9667 40.912 57.436 40.784C58.8013 40.4853 59.3987 39.9947 59.228 39.312C59.1427 38.9707 57.6493 38.608 54.748 38.224C51.1213 37.7973 48.3267 37.1147 46.364 36.176C43.164 34.6827 41.2013 32.336 40.476 29.136C40.22 28.1547 40.092 27.1947 40.092 26.256C40.092 22.416 41.7347 19.28 45.02 16.848C48.0067 14.6293 51.484 13.52 55.452 13.52C58.14 13.52 60.444 13.9893 62.364 14.928C64.924 16.1227 66.204 17.9147 66.204 20.304C66.204 21.7973 65.7133 23.0987 64.732 24.208C63.7507 25.3173 62.556 25.872 61.148 25.872C60.508 25.872 59.4413 25.7227 57.948 25.424C56.4547 25.0827 55.3453 24.912 54.62 24.912C53.6387 24.912 52.9133 25.0827 52.444 25.424C52.1453 25.6373 52.0387 25.936 52.124 26.32C52.2093 26.704 53.724 27.0667 56.668 27.408C60.2947 27.8773 63.0893 28.56 65.052 29.456C68.252 30.992 70.2147 33.3387 70.94 36.496C71.1533 37.392 71.26 38.288 71.26 39.184C71.26 42.2133 70.172 44.88 67.996 47.184C65.8627 49.488 62.9827 51.0667 59.356 51.92ZM98.5125 52.944C96.2512 52.7307 94.6298 51.7493 93.6485 50C91.3018 51.7067 88.5712 52.432 85.4565 52.176C80.8058 51.7493 77.0725 49.6373 74.2565 45.84C71.6112 42.3413 70.2885 38.2667 70.2885 33.616C70.2885 28.4533 71.7392 23.9093 74.6405 19.984C77.8405 15.632 81.9578 13.456 86.9925 13.456C90.1498 13.456 92.9872 14.2667 95.5045 15.888L96.3365 6.416C96.5072 4.496 97.2112 2.96 98.4485 1.808C99.7285 0.613332 101.286 0.101332 103.121 0.271999C104.913 0.399998 106.321 1.168 107.345 2.576C108.411 3.94133 108.859 5.584 108.689 7.504L105.233 46.736C105.062 48.656 104.337 50.192 103.057 51.344C101.819 52.5387 100.305 53.072 98.5125 52.944ZM89.0405 25.232C87.3765 25.104 85.9685 25.7653 84.8165 27.216C83.6645 28.624 82.9818 30.3947 82.7685 32.528C82.5978 34.6187 82.9605 36.432 83.8565 37.968C84.7525 39.632 86.0325 40.528 87.6965 40.656C89.4032 40.8267 90.8325 40.1867 91.9845 38.736C93.1365 37.2853 93.7978 35.4293 93.9685 33.168C94.1818 31.0347 93.8405 29.2213 92.9445 27.728C92.0485 26.2347 90.7472 25.4027 89.0405 25.232ZM125.149 27.216L124.189 26.96L119.773 46.096C119.389 47.7173 118.642 49.0187 117.533 50C116.424 50.9387 115.122 51.408 113.629 51.408C113.16 51.408 112.669 51.3653 112.157 51.28C110.706 50.9387 109.554 50.2133 108.701 49.104C107.848 47.952 107.421 46.6293 107.421 45.136C107.421 44.5387 107.485 43.9413 107.613 43.344L112.093 24.144L111.645 24.08C108.701 23.3973 107.229 21.648 107.229 18.832C107.229 18.32 107.293 17.808 107.421 17.296C107.72 15.9733 108.36 14.928 109.341 14.16C110.365 13.3493 111.517 12.944 112.797 12.944C113.266 12.944 113.714 12.9867 114.141 13.072L114.589 13.2L115.485 9.36C115.869 7.78133 116.594 6.50133 117.661 5.52C118.77 4.53866 120.072 4.048 121.565 4.048C122.034 4.048 122.525 4.112 123.037 4.24C124.53 4.58133 125.682 5.30666 126.493 6.416C127.346 7.52533 127.773 8.848 127.773 10.384C127.773 10.9813 127.709 11.5787 127.581 12.176L126.685 16.016L127.709 16.208C130.866 16.9333 132.445 18.704 132.445 21.52C132.445 21.9893 132.402 22.5013 132.317 23.056C131.634 25.9573 129.821 27.408 126.877 27.408C126.322 27.408 125.746 27.344 125.149 27.216ZM120.672 45.776C120.672 43.984 121.312 42.448 122.592 41.168C123.872 39.8453 125.429 39.184 127.264 39.184C129.056 39.184 130.592 39.824 131.872 41.104C133.194 42.384 133.856 43.9413 133.856 45.776C133.856 47.568 133.216 49.104 131.936 50.384C130.656 51.7067 129.098 52.368 127.264 52.368C125.472 52.368 123.914 51.728 122.592 50.448C121.312 49.168 120.672 47.6107 120.672 45.776Z" fill="white"/>
</svg>
