<svg width="156" height="83" viewBox="0 0 156 83" fill="none" xmlns="http://www.w3.org/2000/svg">
<g filter="url(#filter0_dddddd_596_578)">
<rect x="28" y="24.2407" width="100" height="33.7963" fill="#FD0C72"/>
</g>
<g filter="url(#filter1_dddddd_596_578)">
<rect x="78" y="24.2407" width="50" height="33.7963" fill="white"/>
</g>
<path d="M44.5815 52.0963C42.1123 52.2148 40.0383 51.4247 38.3593 49.7259C36.7395 48.0864 35.8605 46.042 35.7222 43.5926C35.6037 41.1827 36.2753 39.0593 37.737 37.2222C39.258 35.3062 41.2234 34.279 43.6333 34.1407C46.063 34.0222 48.1272 34.842 49.8259 36.6C51.4654 38.2593 52.3543 40.2938 52.4926 42.7037C52.6111 45.1728 51.9593 47.2963 50.537 49.0741C49.0358 50.9506 47.0506 51.958 44.5815 52.0963ZM43.9296 39.5333C43.1197 39.5728 42.4876 39.958 42.0333 40.6889C41.5988 41.4 41.4111 42.2691 41.4704 43.2963C41.5296 44.2839 41.816 45.1136 42.3296 45.7852C42.8432 46.437 43.4951 46.7432 44.2852 46.7037C45.0951 46.6642 45.7173 46.2889 46.1518 45.5778C46.6062 44.8667 46.8037 44.0074 46.7444 43C46.6852 41.9926 46.3988 41.1531 45.8852 40.4815C45.3914 39.8099 44.7395 39.4938 43.9296 39.5333ZM63.8768 52.7778C63.2052 52.6198 62.6719 52.284 62.2768 51.7704C61.8818 51.2568 61.6843 50.6543 61.6843 49.963C61.6843 49.6864 61.7139 49.4 61.7731 49.1037L63.462 41.8741C63.5213 41.6173 63.5509 41.3704 63.5509 41.1333C63.5509 40.5407 63.3435 40.0765 62.9287 39.7407C62.5139 39.3852 62.0102 39.2074 61.4176 39.2074C60.4299 39.2074 59.7978 39.7901 59.5213 40.9556L57.862 48.2148C57.6843 48.9457 57.3386 49.5383 56.825 49.9926C56.3114 50.4469 55.7188 50.6741 55.0472 50.6741C54.8102 50.6741 54.583 50.6444 54.3657 50.5852C53.6744 50.4272 53.141 50.0914 52.7657 49.5778C52.3707 49.0642 52.1731 48.4617 52.1731 47.7704C52.1731 47.4741 52.2028 47.1877 52.262 46.9111L54.8102 35.8296C54.988 35.079 55.3336 34.4864 55.8472 34.0519C56.3608 33.5975 56.9534 33.3704 57.625 33.3704C58.8892 33.3704 59.7583 33.8741 60.2324 34.8815C60.8843 34.5654 61.625 34.4074 62.4546 34.4074C63.0077 34.4074 63.6102 34.4864 64.262 34.6444C65.8225 35 67.067 35.721 67.9954 36.8074C68.9435 37.8938 69.4176 39.1975 69.4176 40.7185C69.4176 41.2716 69.3583 41.8444 69.2398 42.437L67.3731 50.4074C67.2151 51.158 66.8793 51.7506 66.3657 52.1852C65.8522 52.6395 65.2497 52.8667 64.5583 52.8667C64.341 52.8667 64.1139 52.837 63.8768 52.7778Z" fill="white"/>
<path d="M100.993 50.437C100.736 50.4963 100.479 50.5259 100.222 50.5259C99.5506 50.5259 98.9679 50.2691 98.4741 49.7556C97.6247 50.921 96.4988 51.6617 95.0963 51.9778C94.5235 52.116 93.9506 52.1852 93.3778 52.1852C91.521 52.1852 89.8617 51.5333 88.4 50.2296C86.958 48.9062 85.9802 47.1679 85.4667 45.0148C85.2889 44.2247 85.2 43.4346 85.2 42.6444C85.2 40.6494 85.7333 38.9012 86.8 37.4C87.8667 35.879 89.279 34.9111 91.037 34.4963C91.5309 34.3778 92.0148 34.3185 92.4889 34.3185C93.4173 34.3185 94.2765 34.5259 95.0667 34.9407C95.4222 34.0716 96.0741 33.5185 97.0222 33.2815C97.3383 33.2222 97.6346 33.1926 97.9111 33.1926C99.2148 33.1926 100.094 34.1605 100.548 36.0963L102.919 46.3778C103.057 47.0099 103.126 47.5333 103.126 47.9481C103.126 49.2914 102.415 50.121 100.993 50.437ZM90.9482 42.5259C90.9482 42.921 90.9877 43.3259 91.0667 43.7407C91.2642 44.5901 91.6198 45.2914 92.1333 45.8444C92.6469 46.3975 93.2395 46.6741 93.9111 46.6741C94.6815 46.6741 95.2741 46.3679 95.6889 45.7556C96.084 45.2222 96.2815 44.5506 96.2815 43.7407C96.2815 43.3654 96.2321 42.9704 96.1333 42.5556C95.9358 41.6864 95.5803 40.9753 95.0667 40.4222C94.5531 39.8494 93.9704 39.563 93.3185 39.563C92.5482 39.563 91.9556 39.8593 91.5407 40.4519C91.1457 41.0247 90.9482 41.716 90.9482 42.5259ZM105.703 34.2C104.854 34.2593 104.103 33.9827 103.451 33.3704C102.8 32.758 102.444 32.0272 102.385 31.1778C102.345 30.3679 102.622 29.637 103.214 28.9852C103.827 28.3333 104.548 27.9877 105.377 27.9481C106.207 27.8889 106.948 28.1556 107.6 28.7481C108.271 29.321 108.627 30.0222 108.666 30.8519C108.706 31.721 108.439 32.4914 107.866 33.163C107.293 33.8148 106.572 34.1605 105.703 34.2ZM106.622 51.8889C105.772 51.9481 105.061 51.6914 104.488 51.1185C103.935 50.5654 103.639 49.8444 103.6 48.9556L103.007 37.5778C102.948 36.6889 103.165 35.9383 103.659 35.3259C104.172 34.7136 104.854 34.3778 105.703 34.3185C106.553 34.279 107.254 34.5457 107.807 35.1185C108.38 35.6716 108.686 36.3926 108.725 37.2815L109.348 48.6593C109.387 49.5481 109.15 50.2988 108.637 50.9111C108.143 51.5235 107.471 51.8494 106.622 51.8889ZM115.996 35.4444C116.628 34.7531 117.546 34.4469 118.751 34.5259C119.502 34.5852 120.124 34.8815 120.618 35.4148C121.151 36.0272 121.388 36.7975 121.329 37.7259C121.27 38.5951 120.786 39.2469 119.877 39.6815C119.028 39.9778 118.179 40.2741 117.329 40.5704C116.421 40.9654 115.937 41.5383 115.877 42.2889L115.433 48.8074C115.354 49.6963 115.028 50.4173 114.455 50.9704C113.882 51.5235 113.171 51.7704 112.322 51.7111C111.492 51.6519 110.83 51.316 110.337 50.7037C109.843 50.0716 109.625 49.3111 109.685 48.4222L110.485 36.837C110.564 35.9284 110.939 35.2272 111.611 34.7333C112.203 34.2988 112.875 34.1111 113.625 34.1704C114.791 34.2494 115.581 34.6741 115.996 35.4444Z" fill="#FD0C72"/>
<defs>
<filter id="filter0_dddddd_596_578" x="0.566238" y="-3.19304" width="154.868" height="88.6638" filterUnits="userSpaceOnUse" color-interpolation-filters="sRGB">
<feFlood flood-opacity="0" result="BackgroundImageFix"/>
<feColorMatrix in="SourceAlpha" type="matrix" values="0 0 0 0 0 0 0 0 0 0 0 0 0 0 0 0 0 0 127 0" result="hardAlpha"/>
<feOffset/>
<feGaussianBlur stdDeviation="0.326592"/>
<feColorMatrix type="matrix" values="0 0 0 0 0.992157 0 0 0 0 0.0470588 0 0 0 0 0.447059 0 0 0 1 0"/>
<feBlend mode="normal" in2="BackgroundImageFix" result="effect1_dropShadow_596_578"/>
<feColorMatrix in="SourceAlpha" type="matrix" values="0 0 0 0 0 0 0 0 0 0 0 0 0 0 0 0 0 0 127 0" result="hardAlpha"/>
<feOffset/>
<feGaussianBlur stdDeviation="0.653185"/>
<feColorMatrix type="matrix" values="0 0 0 0 0.992157 0 0 0 0 0.0470588 0 0 0 0 0.447059 0 0 0 1 0"/>
<feBlend mode="normal" in2="effect1_dropShadow_596_578" result="effect2_dropShadow_596_578"/>
<feColorMatrix in="SourceAlpha" type="matrix" values="0 0 0 0 0 0 0 0 0 0 0 0 0 0 0 0 0 0 127 0" result="hardAlpha"/>
<feOffset/>
<feGaussianBlur stdDeviation="2.28615"/>
<feColorMatrix type="matrix" values="0 0 0 0 0.992157 0 0 0 0 0.0470588 0 0 0 0 0.447059 0 0 0 1 0"/>
<feBlend mode="normal" in2="effect2_dropShadow_596_578" result="effect3_dropShadow_596_578"/>
<feColorMatrix in="SourceAlpha" type="matrix" values="0 0 0 0 0 0 0 0 0 0 0 0 0 0 0 0 0 0 127 0" result="hardAlpha"/>
<feOffset/>
<feGaussianBlur stdDeviation="4.57229"/>
<feColorMatrix type="matrix" values="0 0 0 0 0.992157 0 0 0 0 0.0470588 0 0 0 0 0.447059 0 0 0 1 0"/>
<feBlend mode="normal" in2="effect3_dropShadow_596_578" result="effect4_dropShadow_596_578"/>
<feColorMatrix in="SourceAlpha" type="matrix" values="0 0 0 0 0 0 0 0 0 0 0 0 0 0 0 0 0 0 127 0" result="hardAlpha"/>
<feOffset/>
<feGaussianBlur stdDeviation="7.83822"/>
<feColorMatrix type="matrix" values="0 0 0 0 0.992157 0 0 0 0 0.0470588 0 0 0 0 0.447059 0 0 0 1 0"/>
<feBlend mode="normal" in2="effect4_dropShadow_596_578" result="effect5_dropShadow_596_578"/>
<feColorMatrix in="SourceAlpha" type="matrix" values="0 0 0 0 0 0 0 0 0 0 0 0 0 0 0 0 0 0 127 0" result="hardAlpha"/>
<feOffset/>
<feGaussianBlur stdDeviation="13.7169"/>
<feColorMatrix type="matrix" values="0 0 0 0 0.992157 0 0 0 0 0.0470588 0 0 0 0 0.447059 0 0 0 1 0"/>
<feBlend mode="normal" in2="effect5_dropShadow_596_578" result="effect6_dropShadow_596_578"/>
<feBlend mode="normal" in="SourceGraphic" in2="effect6_dropShadow_596_578" result="shape"/>
</filter>
<filter id="filter1_dddddd_596_578" x="64.2831" y="10.5238" width="77.4338" height="61.23" filterUnits="userSpaceOnUse" color-interpolation-filters="sRGB">
<feFlood flood-opacity="0" result="BackgroundImageFix"/>
<feColorMatrix in="SourceAlpha" type="matrix" values="0 0 0 0 0 0 0 0 0 0 0 0 0 0 0 0 0 0 127 0" result="hardAlpha"/>
<feOffset/>
<feGaussianBlur stdDeviation="0.163296"/>
<feColorMatrix type="matrix" values="0 0 0 0 1 0 0 0 0 1 0 0 0 0 1 0 0 0 1 0"/>
<feBlend mode="normal" in2="BackgroundImageFix" result="effect1_dropShadow_596_578"/>
<feColorMatrix in="SourceAlpha" type="matrix" values="0 0 0 0 0 0 0 0 0 0 0 0 0 0 0 0 0 0 127 0" result="hardAlpha"/>
<feOffset/>
<feGaussianBlur stdDeviation="0.326592"/>
<feColorMatrix type="matrix" values="0 0 0 0 1 0 0 0 0 1 0 0 0 0 1 0 0 0 1 0"/>
<feBlend mode="normal" in2="effect1_dropShadow_596_578" result="effect2_dropShadow_596_578"/>
<feColorMatrix in="SourceAlpha" type="matrix" values="0 0 0 0 0 0 0 0 0 0 0 0 0 0 0 0 0 0 127 0" result="hardAlpha"/>
<feOffset/>
<feGaussianBlur stdDeviation="1.14307"/>
<feColorMatrix type="matrix" values="0 0 0 0 1 0 0 0 0 1 0 0 0 0 1 0 0 0 1 0"/>
<feBlend mode="normal" in2="effect2_dropShadow_596_578" result="effect3_dropShadow_596_578"/>
<feColorMatrix in="SourceAlpha" type="matrix" values="0 0 0 0 0 0 0 0 0 0 0 0 0 0 0 0 0 0 127 0" result="hardAlpha"/>
<feOffset/>
<feGaussianBlur stdDeviation="2.28615"/>
<feColorMatrix type="matrix" values="0 0 0 0 1 0 0 0 0 1 0 0 0 0 1 0 0 0 1 0"/>
<feBlend mode="normal" in2="effect3_dropShadow_596_578" result="effect4_dropShadow_596_578"/>
<feColorMatrix in="SourceAlpha" type="matrix" values="0 0 0 0 0 0 0 0 0 0 0 0 0 0 0 0 0 0 127 0" result="hardAlpha"/>
<feOffset/>
<feGaussianBlur stdDeviation="3.91911"/>
<feColorMatrix type="matrix" values="0 0 0 0 1 0 0 0 0 1 0 0 0 0 1 0 0 0 1 0"/>
<feBlend mode="normal" in2="effect4_dropShadow_596_578" result="effect5_dropShadow_596_578"/>
<feColorMatrix in="SourceAlpha" type="matrix" values="0 0 0 0 0 0 0 0 0 0 0 0 0 0 0 0 0 0 127 0" result="hardAlpha"/>
<feOffset/>
<feGaussianBlur stdDeviation="6.85844"/>
<feColorMatrix type="matrix" values="0 0 0 0 1 0 0 0 0 1 0 0 0 0 1 0 0 0 1 0"/>
<feBlend mode="normal" in2="effect5_dropShadow_596_578" result="effect6_dropShadow_596_578"/>
<feBlend mode="normal" in="SourceGraphic" in2="effect6_dropShadow_596_578" result="shape"/>
</filter>
</defs>
</svg>
