<svg width="43" height="39" viewBox="0 0 43 39" fill="none" xmlns="http://www.w3.org/2000/svg">
<path d="M42.3702 17.9876L25.1701 0.876511C24.8695 0.57738 24.4864 0.373661 24.0694 0.291116C23.6524 0.208571 23.2201 0.250908 22.8272 0.412774C22.4344 0.574639 22.0986 0.848763 21.8624 1.20048C21.6262 1.55219 21.5001 1.9657 21.5001 2.38871V9.9709C15.6269 10.5117 10.1679 13.2133 6.19143 17.5471C2.21494 21.8809 0.0071133 27.5348 6.30819e-09 33.4026V36.6109C-3.41878e-05 37.0551 0.138947 37.4883 0.397649 37.8504C0.656351 38.2124 1.02194 38.4853 1.44366 38.6313C1.86538 38.7772 2.32231 38.7889 2.75101 38.6647C3.17972 38.5406 3.55893 38.2867 3.836 37.9384C5.94224 35.4464 8.52656 33.397 11.438 31.91C14.3494 30.4229 17.5295 29.5279 20.7925 29.2773C20.8996 29.2637 21.1683 29.2429 21.5001 29.222V36.6109C21.5001 37.034 21.6262 37.4475 21.8624 37.7992C22.0986 38.1509 22.4344 38.425 22.8272 38.5869C23.2201 38.7487 23.6524 38.7911 24.0694 38.7085C24.4864 38.626 24.8695 38.4223 25.1701 38.1231L42.3702 21.012C42.5698 20.8135 42.7282 20.5777 42.8363 20.3183C42.9444 20.0588 43 19.7807 43 19.4998C43 19.219 42.9444 18.9409 42.8363 18.6814C42.7282 18.4219 42.5698 18.1862 42.3702 17.9876ZM25.8001 31.4475V26.9859C25.8001 26.705 25.7446 26.4269 25.6366 26.1673C25.5285 25.9078 25.3702 25.672 25.1705 25.4734C24.9709 25.2747 24.7338 25.1172 24.4729 25.0097C24.212 24.9023 23.9324 24.847 23.6501 24.8471C23.1021 24.8471 20.8639 24.9525 20.2928 25.0289C14.4976 25.5598 8.98135 27.7501 4.4113 31.3347C4.92973 26.617 7.17926 22.2554 10.7291 19.085C14.2789 15.9147 18.8796 14.1584 23.6501 14.1526C23.9324 14.1527 24.212 14.0974 24.4729 13.9899C24.7338 13.8825 24.9709 13.7249 25.1705 13.5263C25.3702 13.3277 25.5285 13.0919 25.6366 12.8323C25.7446 12.5728 25.8001 12.2946 25.8001 12.0137V7.55212L37.8099 19.4998L25.8001 31.4475Z" fill="#F67225"/>
</svg>
