<svg width="227" height="227" viewBox="0 0 227 227" fill="none" xmlns="http://www.w3.org/2000/svg">
<circle cx="113.356" cy="112.554" r="92" transform="rotate(-14.8621 113.356 112.554)" fill="#EADC49"/>
<path d="M89.4397 23.8554L113.277 67.011L137.321 23.9707L136.387 73.263L178.73 48.0111L153.275 90.2324L202.571 89.5353L159.415 113.372L202.456 137.417L153.163 136.482L178.415 178.826L136.194 153.37L136.891 202.666L113.054 159.511L89.0096 202.551L89.944 153.259L47.6007 178.511L73.0561 136.289L23.7598 136.987L66.9155 113.15L23.8751 89.1052L73.1674 90.0396L47.9156 47.6963L90.1368 73.1517L89.4397 23.8554Z" fill="#2056C6"/>
<path d="M112.819 75.7532L113.254 76.5411L113.693 75.7553L132.344 42.369L131.619 80.6049L131.602 81.5048L132.375 81.0438L165.221 61.456L145.475 94.2069L145.01 94.9777L145.911 94.965L184.149 94.4242L150.674 112.914L149.886 113.35L150.672 113.789L184.058 132.44L145.822 131.715L144.922 131.698L145.383 132.471L164.971 165.317L132.22 145.571L131.449 145.106L131.462 146.006L132.003 184.245L113.512 150.769L113.077 149.982L112.638 150.767L93.9871 184.154L94.7119 145.918L94.729 145.018L93.9559 145.479L61.1104 165.067L80.8561 132.316L81.3208 131.545L80.4208 131.558L42.1818 132.098L75.6575 113.608L76.4454 113.173L75.6596 112.734L42.2733 94.0828L80.5092 94.8076L81.4092 94.8246L80.9481 94.0516L61.3604 61.2061L94.1112 80.9517L94.8821 81.4165L94.8693 80.5164L94.3286 42.2775L112.819 75.7532Z" fill="#2056C6" stroke="white"/>
<path d="M95.2158 94.0423C94.2514 91.422 92.841 90.1616 91.3525 90.5566C90.3086 90.8336 89.3346 91.9198 89.0317 93.1175C88.5489 94.9631 88.7882 98.438 88.9805 100.332C89.0646 101.117 89.1399 101.635 89.1451 101.654C89.1423 101.8 89.0378 101.952 88.878 101.973C88.7131 101.976 88.5805 101.866 88.5588 101.706C88.5588 101.706 88.5028 101.183 88.4136 100.379C88.1546 98.2336 87.0152 91.211 84.5014 91.4849C83.8816 91.5666 83.3684 91.9718 82.9719 92.7392C81.6134 95.4172 82.2698 101.244 83.3076 103.907C84.2542 106.304 86.1724 107.45 88.4234 106.108C90.04 105.183 90.6329 102.894 90.6277 102.875C90.6601 102.763 90.7413 102.679 90.838 102.653C90.8767 102.643 90.896 102.638 90.9398 102.647C91.066 102.655 91.1741 102.75 91.21 102.886C91.2152 102.905 91.4646 104.391 92.2832 104.98C92.5819 105.17 92.8884 105.234 93.2609 105.155C93.8459 105.021 94.5347 104.342 95.0396 103.359C96.0546 101.414 96.6256 97.9515 95.2158 94.0423ZM104.616 93.6377C103.475 93.9404 102.398 94.5574 101.527 95.4093C102.02 95.9406 102.575 96.083 103.178 95.8609C103.911 95.5835 104.578 94.7443 105.066 93.539C104.906 93.5607 104.771 93.5967 104.616 93.6377ZM108.235 94.3326C107.678 93.7148 106.805 93.3878 105.705 93.4522C105.179 94.9782 104.326 96.0529 103.385 96.4061C103.307 96.4266 103.23 96.4471 103.153 96.4676C102.631 96.6061 101.864 96.6026 101.126 95.8468C100.668 96.3822 100.308 96.9744 100.045 97.6234C99.9987 97.7599 99.8492 97.8202 99.7178 97.793C99.5864 97.7658 99.4732 97.651 99.476 97.5054L99.4788 91.9799C99.4764 91.815 99.5912 91.7017 99.7317 91.6851C99.8914 91.6634 100.024 91.7731 100.046 91.9329C100.051 91.9522 100.382 93.7472 101.176 94.9437C102.099 94.0572 103.249 93.4003 104.467 93.0771C104.738 93.0053 105.013 92.9528 105.289 92.9003C105.975 90.6492 105.904 87.7298 104.548 86.5996C103.807 85.9893 102.51 85.8576 101.079 86.2372C98.4697 86.9297 95.7718 89.239 96.0588 92.6598C96.5886 98.789 97.3065 102.82 102.363 102.926C102.926 102.942 103.468 102.881 103.99 102.743C106.445 102.091 107.937 99.9158 108.493 98.1128C108.976 96.5778 108.872 95.0948 108.235 94.3326ZM112.834 89.0978C112.839 89.1172 112.864 89.1314 112.888 89.1456C113.204 89.4758 113.661 89.5613 114.285 89.4165C115.223 89.2089 116.115 88.5169 116.732 87.5669C114.927 87.8597 113.665 88.4843 112.834 89.0978ZM121.267 89.2188C120.608 87.904 119.372 87.3008 117.696 87.456C117.633 87.452 117.555 87.4725 117.473 87.4737C116.778 88.7548 115.647 89.7171 114.414 89.9822C113.592 90.159 112.935 90.023 112.463 89.5689C112.433 89.5354 112.404 89.5018 112.374 89.4683C111.569 90.1785 111.297 90.7888 111.282 90.8133C111.183 90.9845 111.072 91.0346 110.936 90.9881C110.799 90.9415 110.695 90.7829 110.742 90.6464L111.836 85.8037C111.877 85.6479 112.022 85.5682 112.173 85.5902C112.328 85.6317 112.427 85.7709 112.41 85.941C112.316 86.442 112.198 87.7147 112.531 88.5783C113.506 87.8851 114.961 87.2092 117.101 86.9309C117.304 86.5253 117.453 86.072 117.519 85.6199C117.789 84.1412 117.334 82.8962 116.237 82.194C115.008 81.3822 112.654 81.9449 110.557 83.5566C108.474 85.1439 106.582 87.8393 107.512 90.7173C107.847 91.7457 108.37 92.3931 109.072 92.6207C110.266 92.9867 111.733 92.1215 112.063 91.8062C114.184 89.8158 117.658 89.887 117.702 89.896C117.867 89.8937 117.985 90.0278 117.968 90.1978C117.971 90.3627 117.836 90.4811 117.672 90.4835C117.502 90.4665 114.492 90.3547 112.616 92.0942L112.4 92.2962C111.75 92.9653 111.293 93.8937 111.17 95.147C110.95 97.3575 112.031 98.3122 112.988 98.7204C114.999 99.5938 118.043 98.7446 119.766 96.8181C121.652 94.7243 122.321 91.3188 121.267 89.2188ZM133.345 81.7512C132.186 80.4241 130.212 79.7685 127.92 79.9422C125.245 80.1554 122.775 81.4524 121.617 83.2495C120.275 85.3645 120.658 88.3668 121.888 89.2611C122.829 89.9218 124.135 89.3063 125.545 87.525C125.736 87.3088 126.244 87.1947 126.236 87.6314C126.246 87.6701 126.144 92.7459 128.307 94.3448C129.008 94.8829 129.878 94.9625 130.959 94.5928C132.842 93.9689 134.226 92.4014 134.829 90.1515C135.632 87.2486 134.983 83.6341 133.345 81.7512ZM129.839 89.5928C129.875 89.7281 129.771 89.88 129.635 89.9159C129.616 89.921 129.616 89.921 129.597 89.9261C129.437 89.9478 129.285 89.8433 129.263 89.6835L128.798 86.372C128.777 86.2122 128.881 86.0603 129.041 86.0386C129.201 86.0169 129.353 86.1214 129.374 86.2812L129.839 89.5928Z" fill="white"/>
<path d="M100.332 109.072C99.7777 108.309 98.9342 108.016 97.8737 108.152C96.8377 108.303 95.2747 108.573 93.7089 108.988C90.9639 109.717 87.7905 111.014 88.1899 113.143C88.5099 114.817 88.9432 116.606 89.8637 117.189C90.2357 117.421 90.6582 117.454 91.1608 117.321C91.5474 117.218 91.9715 117.023 92.4473 116.71C92.486 116.7 92.5053 116.695 92.544 116.685C92.6213 116.664 92.7089 116.682 92.7629 116.73C92.8608 116.787 92.9109 116.898 92.8979 117.005C92.8939 117.068 92.1237 122.197 94.2085 124.127C94.8725 124.758 96.1219 124.943 97.4364 124.594C98.8089 124.23 99.9269 123.375 100.282 122.453C100.53 121.828 100.424 121.194 100.002 120.541C97.8408 117.307 96.4252 116.027 96.42 116.008C96.3119 115.912 96.276 115.777 96.347 115.655C96.3987 115.538 96.5289 115.482 96.6603 115.51C96.6796 115.504 97.7693 115.712 98.8325 115.43C99.683 115.204 100.302 114.729 100.626 114.002C101.237 112.64 101.297 110.368 100.332 109.072ZM116.256 115.048C115.165 113.041 112.669 113.227 110.775 113.73C110.175 113.889 109.688 114.08 109.37 114.206C109.201 114.272 109.032 114.337 108.863 114.403C108.714 114.463 108.553 114.402 108.492 114.253C108.432 114.103 108.493 113.942 108.637 113.863C108.637 113.863 108.82 113.773 109.138 113.647C111.992 112.393 113.71 110.364 113.728 108.249C113.752 106.939 113.071 105.775 111.938 105.248C111.156 104.876 109.992 104.854 108.639 105.213C105.333 106.09 101.914 108.88 101.782 112.516C101.635 116.404 102.856 120.383 104.589 121.765C105.168 122.232 105.767 122.384 106.366 122.225C106.424 122.209 106.501 122.189 106.554 122.154C107.104 121.967 107.449 121.627 107.65 121.139C108.245 119.636 107.06 117.199 106.906 116.929C106.89 116.871 106.885 116.852 106.885 116.852C106.805 116.707 106.861 116.527 107.011 116.467C107.025 116.442 107.044 116.437 107.063 116.432C107.199 116.396 107.34 116.462 107.391 116.573C107.391 116.573 107.401 116.612 107.436 116.664C107.635 117.025 109.379 120.246 111.755 120.857C112.223 120.981 112.756 120.964 113.317 120.815C114.67 120.456 115.882 119.41 116.422 118.17C116.727 117.447 116.949 116.333 116.256 115.048ZM107.184 112.986C107.2 113.126 107.11 113.254 106.975 113.29C106.955 113.295 106.955 113.295 106.936 113.3C106.776 113.322 106.624 113.217 106.602 113.057L106.143 109.765C106.121 109.605 106.226 109.454 106.385 109.432C106.545 109.41 106.697 109.515 106.719 109.674L107.184 112.986ZM120.79 102.154C120.266 101.506 119.548 101.138 118.776 101.115C118.524 101.1 118.281 101.123 118.049 101.184C116.735 101.533 115.789 102.881 115.754 104.463C115.741 104.963 115.812 105.461 115.973 105.915C116.136 105.748 116.323 105.595 116.515 105.461C116.971 105.153 117.448 104.923 117.893 104.805C119.13 104.477 120.315 104.887 121.334 105.92C121.498 105.525 121.589 105.087 121.592 104.631C121.612 103.694 121.338 102.815 120.79 102.154ZM121.071 106.487C120.282 105.62 119.279 105.038 118.042 105.366C117.655 105.469 117.25 105.659 116.827 105.937C116.602 106.1 116.42 106.272 116.248 106.483C116.751 107.364 117.608 107.943 118.569 107.978C118.817 107.975 119.059 107.952 119.291 107.89C120.026 107.695 120.654 107.177 121.071 106.487ZM122.986 110.117C122.773 109.47 122.282 108.09 121.446 106.966C120.957 107.696 120.271 108.23 119.44 108.451C119.15 108.528 118.85 108.566 118.558 108.56C117.471 108.518 116.531 107.94 115.922 107.046C115.069 108.824 115.66 111.751 116.807 114.281C118.36 117.717 120.708 120.012 122.235 119.607C122.293 119.592 122.326 119.562 122.384 119.547C124.039 118.921 124.331 114.25 122.986 110.117ZM134.388 100.035C133.833 99.2717 132.99 98.9783 131.929 99.1148C130.893 99.2656 129.33 99.5355 127.765 99.9511C125.02 100.68 121.846 101.977 122.246 104.106C122.566 105.78 122.999 107.568 123.919 108.152C124.291 108.384 124.714 108.417 125.216 108.283C125.603 108.181 126.027 107.985 126.503 107.673C126.542 107.663 126.561 107.658 126.6 107.647C126.677 107.627 126.765 107.645 126.819 107.693C126.916 107.749 126.967 107.86 126.954 107.967C126.95 108.03 126.179 113.16 128.264 115.089C128.928 115.72 130.178 115.906 131.492 115.557C132.865 115.193 133.983 114.337 134.338 113.415C134.586 112.791 134.48 112.157 134.058 111.503C131.896 108.27 130.481 106.99 130.476 106.971C130.368 106.875 130.332 106.74 130.403 106.617C130.454 106.5 130.585 106.445 130.716 106.472C130.735 106.467 131.825 106.675 132.888 106.392C133.739 106.167 134.358 105.692 134.682 104.965C135.293 103.602 135.352 101.331 134.388 100.035ZM108.947 130.872C107.68 128.436 105.966 128.683 105.483 128.812C105.425 128.827 105.405 128.832 105.405 128.832C103.074 129.637 100.717 135.105 100.805 139.489C100.834 141.55 101.43 144.185 104.018 144.968C104.758 145.185 105.452 145.229 106.09 145.059C107.231 144.757 108.144 143.832 108.83 142.284C110.385 138.788 110.165 133.28 108.947 130.872ZM106.194 139.135C106.216 139.294 106.106 139.427 105.971 139.463C105.971 139.463 105.952 139.468 105.932 139.473C105.772 139.495 105.64 139.385 105.618 139.225L105.134 135.919C105.112 135.759 105.217 135.607 105.377 135.586C105.536 135.564 105.693 135.688 105.715 135.847L106.194 139.135ZM122.201 129.9C120.633 127.109 118.691 125.72 116.971 126.177C116.894 126.197 116.816 126.218 116.739 126.238C115.967 126.526 115.503 126.96 115.298 127.593C114.782 129.158 115.934 131.625 117.19 133.32C118.294 134.827 119.238 136.046 119.243 136.065C119.318 136.19 119.301 136.36 119.181 136.454C119.061 136.548 118.872 136.536 118.778 136.416C118.743 136.363 117.837 135.134 116.725 133.671C114.52 130.821 112.469 129.565 111.232 129.893C111.136 129.919 111.039 129.944 110.967 129.984C109.835 130.554 110.097 134.581 111.494 138.287C112.457 140.825 114.071 143.397 115.679 142.908C116.268 142.71 116.642 142.404 116.844 141.916C117.228 140.945 116.848 139.204 115.591 137.117C115.039 136.208 114.623 135.574 114.598 135.559C114.518 135.415 114.574 135.235 114.699 135.16C114.824 135.086 114.999 135.122 115.093 135.242C115.118 135.256 115.501 135.92 116.086 136.799C117.247 138.602 119.645 141.4 121.791 140.831C122.197 140.723 122.591 140.494 122.974 140.144C124.97 138.228 124.128 133.341 122.201 129.9ZM128.351 128.434C128.356 128.453 128.38 128.467 128.405 128.481C128.72 128.811 129.177 128.897 129.801 128.752C130.739 128.545 131.632 127.853 132.249 126.903C130.443 127.195 129.181 127.82 128.351 128.434ZM136.784 128.555C136.125 127.24 134.889 126.637 133.212 126.792C133.149 126.788 133.072 126.808 132.989 126.809C132.295 128.09 131.164 129.053 129.93 129.318C129.108 129.495 128.451 129.359 127.979 128.905C127.95 128.871 127.92 128.838 127.89 128.804C127.086 129.514 126.813 130.125 126.799 130.149C126.699 130.32 126.589 130.37 126.452 130.324C126.316 130.277 126.211 130.119 126.258 129.982L127.352 125.139C127.394 124.984 127.538 124.904 127.689 124.926C127.845 124.967 127.944 125.107 127.927 125.277C127.832 125.778 127.715 127.05 128.047 127.914C129.022 127.221 130.478 126.545 132.618 126.267C132.821 125.861 132.969 125.408 133.035 124.956C133.305 123.477 132.851 122.232 131.754 121.53C130.525 120.718 128.17 121.281 126.073 122.892C123.991 124.48 122.099 127.175 123.028 130.053C123.363 131.081 123.887 131.729 124.589 131.956C125.782 132.322 127.25 131.457 127.58 131.142C129.7 129.151 133.175 129.223 133.218 129.232C133.383 129.229 133.502 129.363 133.485 129.534C133.487 129.698 133.353 129.817 133.188 129.819C133.018 129.802 130.009 129.69 128.132 131.43L127.917 131.632C127.267 132.301 126.809 133.229 126.687 134.483C126.466 136.693 127.547 137.648 128.504 138.056C130.515 138.929 133.559 138.08 135.283 136.154C137.169 134.06 137.838 130.654 136.784 128.555Z" fill="white"/>
</svg>
