<svg width="250" height="254" viewBox="0 0 250 254" fill="none" xmlns="http://www.w3.org/2000/svg">
<circle cx="125.273" cy="129.069" r="107.5" transform="rotate(-9.95467 125.273 129.069)" fill="black"/>
<circle cx="124.64" cy="129.971" r="42.8442" transform="rotate(-9.95467 124.64 129.971)" fill="#B86F8E"/>
<circle cx="124.641" cy="129.971" r="34.8043" transform="rotate(-9.95467 124.641 129.971)" stroke="black" stroke-width="0.5"/>
<circle cx="125.273" cy="129.069" r="4.67391" transform="rotate(-9.95467 125.273 129.069)" fill="black"/>
<path d="M61.484 157.665L65.3378 168.152L75.2821 168.688L66.1148 172.579L66.0625 183.751L62.2086 173.264L52.2644 172.728L61.4316 168.837L61.484 157.665Z" fill="#D9D9D9"/>
<path d="M170.241 56.3233L174.095 66.8104L184.039 67.3468L174.872 71.2374L174.819 82.4101L170.965 71.923L161.021 71.3866L170.188 67.496L170.241 56.3233Z" fill="#D9D9D9"/>
<path d="M50.9809 108.441C50.1043 108.963 49.3917 110.311 49.0301 112.156C48.8455 113.098 48.7082 114.11 48.8176 115.008L49.0825 116.568C49.091 116.733 49.0052 116.859 48.8562 116.891C48.7073 116.922 48.558 116.852 48.5064 116.7L48.2334 115.077C47.868 112.886 46.814 109.113 44.9075 108.026C44.3375 107.71 43.7372 107.654 43.0557 107.907C42.4407 108.133 42.089 108.472 41.9967 108.943C41.5851 111.043 45.9121 115.274 47.6278 116.711C47.7498 116.816 47.7545 117.001 47.6687 117.127C47.5632 117.249 47.3947 117.277 47.2531 117.167C47.2177 117.14 43.7759 114.631 41.5386 115.232C40.8724 115.407 40.376 115.86 40.0494 116.591C40.0105 116.685 39.9913 116.784 39.9721 116.882C39.5336 119.119 44.8388 122.727 49.2756 123.902C50.6733 124.258 53.9744 124.884 54.6723 122.779C54.715 122.665 54.7381 122.547 54.7612 122.43C55.2151 120.114 52.022 119.04 50.6047 118.68C50.0551 118.573 49.7057 118.484 49.6861 118.48C49.5329 118.429 49.4578 118.292 49.4886 118.135C49.5194 117.978 49.6602 117.884 49.8211 117.895C49.8211 117.895 50.194 117.968 50.7201 118.091C52.7493 118.448 56.2093 118.576 56.8409 115.561L56.8525 115.503C57.3602 112.912 55.656 110.377 53.8468 109.105C52.718 108.313 51.6266 108.058 50.9809 108.441Z" fill="white"/>
<path d="M59.4421 80.2847C59.4576 80.2974 59.4857 80.2947 59.5139 80.2919C59.9627 80.3756 60.3837 80.1779 60.8053 79.6959C61.4453 78.9793 61.7651 77.8962 61.7106 76.7648C60.4167 78.0573 59.7575 79.3016 59.4421 80.2847ZM66.3564 75.4551C65.0531 74.7733 63.6976 75.0062 62.4279 76.1116C62.3744 76.1453 62.3236 76.2071 62.2574 76.2562C62.4422 77.7017 62.0867 79.1435 61.2409 80.0794C60.677 80.7033 60.0644 80.9767 59.4158 80.8842C59.3722 80.8742 59.3286 80.8643 59.285 80.8544C59.0469 81.901 59.1824 82.5555 59.1851 82.5837C59.2045 82.7807 59.1438 82.8862 59.0059 82.9282C58.8679 82.9702 58.6907 82.9023 58.6487 82.7643L56.7071 78.1949C56.6497 78.0442 56.7203 77.8952 56.8555 77.825C57.0061 77.7676 57.1679 77.8227 57.2535 77.9706C57.4694 78.4325 58.1178 79.534 58.8923 80.0404C59.2783 78.9082 60.0644 77.5093 61.6386 76.0329C61.5661 75.5853 61.4219 75.1306 61.2115 74.7249C60.5664 73.3674 59.47 72.6226 58.1696 72.6937C56.6976 72.7532 55.1158 74.5857 54.356 77.1188C53.5935 79.6238 53.6332 82.9167 56.069 84.7092C56.9418 85.348 57.745 85.5674 58.4475 85.342C59.6302 84.9415 60.3152 83.382 60.399 82.9332C60.9566 80.0789 63.8178 78.1064 63.8587 78.0882C63.9911 77.9899 64.1655 78.0296 64.2511 78.1775C64.3494 78.3099 64.3097 78.4843 64.1773 78.5826C64.0294 78.6682 61.5219 80.3359 61.0155 82.8441L60.9587 83.1339C60.8221 84.0568 60.9936 85.0773 61.6265 86.1661C62.7393 88.0887 64.1744 88.2318 65.1894 88.004C67.3319 87.5375 69.3059 85.0696 69.5788 82.4991C69.8859 79.6979 68.4388 76.5434 66.3564 75.4551Z" fill="white"/>
<path d="M93.5615 51.4709C92.2255 50.3221 90.1782 49.9537 87.934 50.4514C85.3167 51.0426 83.0561 52.6774 82.1654 54.6208C81.1372 56.9052 81.9429 59.8225 83.288 60.5328C84.3133 61.0532 85.5184 60.2583 86.6612 58.2946C86.8195 58.0535 87.3059 57.8685 87.3598 58.3019C87.3754 58.3387 87.9963 63.3775 90.364 64.6528C91.1348 65.0857 92.0069 65.041 93.0247 64.5213C94.7999 63.6362 95.9473 61.8879 96.2245 59.5751C96.6061 56.5876 95.4502 53.102 93.5615 51.4709ZM91.2055 59.7312C91.2603 59.86 91.1784 60.0252 91.0496 60.08C91.0312 60.0878 91.0312 60.0878 91.0128 60.0957C90.8577 60.1399 90.6925 60.058 90.6483 59.9029L89.7174 56.6911C89.6733 56.536 89.7551 56.3708 89.9102 56.3266C90.0653 56.2824 90.2305 56.3643 90.2747 56.5194L91.2055 59.7312Z" fill="white"/>
<path d="M131.555 44.1733C131.286 43.2691 130.588 42.712 129.543 42.4882C128.516 42.2861 126.952 42.0211 125.337 41.8924C122.506 41.667 119.082 41.8357 118.751 43.9761C118.496 45.6612 118.31 47.4923 118.984 48.3485C119.258 48.6913 119.645 48.8626 120.164 48.9039C120.563 48.9357 121.027 48.8924 121.58 48.7559C121.62 48.759 121.64 48.7606 121.68 48.7638C121.759 48.7702 121.836 48.8164 121.871 48.8794C121.945 48.9655 121.955 49.0867 121.907 49.1832C121.882 49.2414 119.451 53.8228 120.776 56.3359C121.192 57.1516 122.309 57.7421 123.665 57.8501C125.08 57.9628 126.419 57.5277 127.061 56.7763C127.502 56.2697 127.613 55.6365 127.432 54.8798C126.468 51.1114 125.559 49.4339 125.56 49.4139C125.49 49.288 125.501 49.1484 125.609 49.0567C125.697 48.9633 125.838 48.9545 125.953 49.0238C125.973 49.0254 126.931 49.5833 128.028 49.6706C128.905 49.7405 129.647 49.4986 130.194 48.9203C131.223 47.8385 132.034 45.7162 131.555 44.1733Z" fill="white"/>
</svg>
