<svg width="133" height="136" viewBox="0 0 133 136" fill="none" xmlns="http://www.w3.org/2000/svg">
<g filter="url(#filter0_d_16_50)">
<g clip-path="url(#clip0_16_50)">
<rect x="3" y="26.3584" width="104.214" height="106" rx="7" transform="rotate(-14.3756 3 26.3584)" fill="#FFDF50"/>
<path d="M102 33.3852C103.537 39.0455 100.984 45.6499 94.7496 51.8521C88.5622 58.0072 79.0383 63.4271 67.622 66.5275C56.2058 69.6279 45.2486 69.7702 36.7976 67.5905C28.2821 65.3942 22.7394 60.9882 21.2022 55.3279C19.665 49.6676 22.2175 43.0631 28.4522 36.861C34.6397 30.7058 44.1635 25.2859 55.5798 22.1856C66.9961 19.0852 77.9532 18.9429 86.4042 21.1226C94.9198 23.3189 100.462 27.7249 102 33.3852Z" stroke="#211C1C" stroke-width="4"/>
<path d="M19.8058 33.8352C19.8642 30.5055 24.1493 29.1959 26.0591 31.924C26.9132 33.144 28.4558 33.6753 29.8801 33.24C33.0648 32.2666 35.6345 35.9373 33.6302 38.5967C32.7338 39.786 32.7052 41.4173 33.5593 42.6373C35.4691 45.3654 32.7722 48.9436 29.6236 47.8591C28.2155 47.3741 26.6552 47.851 25.7588 49.0403C23.7544 51.6998 19.518 50.2406 19.5764 46.9109C19.6025 45.4219 18.6668 44.0853 17.2587 43.6003C14.1101 42.5158 14.1887 38.0358 17.3734 37.0625C18.7977 36.6272 19.7797 35.3243 19.8058 33.8352Z" fill="#211C1C" stroke="black"/>
<path d="M50.5584 93.7088C48.7013 89.1892 46.1526 87.0769 43.5753 87.8646C41.7679 88.4171 40.1353 90.38 39.6836 92.4943C38.9595 95.7533 39.6043 101.815 40.0638 105.114C40.2619 106.481 40.4275 107.382 40.4377 107.415C40.4424 107.67 40.2695 107.943 39.9915 107.991C39.7032 108.006 39.4643 107.823 39.4159 107.545C39.4159 107.545 39.2838 106.634 39.0754 105.233C38.4829 101.498 36.033 89.2915 31.6547 89.9343C30.5761 90.1175 29.705 90.8595 29.0617 92.2273C26.8603 96.9991 28.3877 107.146 30.3759 111.735C32.1874 115.866 35.6166 117.746 39.4657 115.252C42.2327 113.528 43.1203 109.487 43.1101 109.453C43.1593 109.255 43.296 109.104 43.4634 109.053C43.5303 109.032 43.5638 109.022 43.641 109.035C43.8623 109.041 44.0575 109.2 44.1291 109.435C44.1394 109.468 44.6723 112.05 46.1424 113.028C46.677 113.341 47.2172 113.432 47.8634 113.271C48.8778 112.997 50.0381 111.764 50.8571 110.014C52.5054 106.545 53.2785 100.453 50.5584 93.7088ZM66.9708 92.3891C64.996 92.9926 63.1514 94.142 61.6843 95.6883C62.5806 96.5855 63.5607 96.7983 64.6011 96.3706C65.8655 95.8377 66.9774 94.3267 67.7509 92.1872C67.4729 92.2356 67.2386 92.3072 66.9708 92.3891ZM73.3455 93.3686C72.331 92.3245 70.7829 91.8095 68.8629 91.9938C68.0421 94.6967 66.6206 96.6317 64.9981 97.3106C64.8643 97.3515 64.7304 97.3924 64.5965 97.4333C63.6928 97.7095 62.352 97.7533 61.0112 96.4796C60.2451 97.4457 59.6538 98.5048 59.2374 99.6568C59.1648 99.8986 58.9073 100.014 58.6758 99.9748C58.4443 99.9358 58.2388 99.7424 58.2341 99.4877L57.8792 89.8244C57.8643 89.5362 58.0577 89.3307 58.3022 89.2925C58.5802 89.2442 58.8192 89.4273 58.8675 89.7053C58.8778 89.7388 59.5744 92.8563 61.0399 94.8971C62.5972 93.2866 64.5654 92.0629 66.6741 91.4184C67.1427 91.2752 67.6216 91.1654 68.1004 91.0557C69.1526 87.0742 68.838 81.9735 66.3944 80.0852C65.0582 79.0663 62.7812 78.9205 60.3043 79.6775C55.7856 81.0585 51.2179 85.2726 51.9426 91.2362C53.2683 101.92 54.7862 108.922 63.6359 108.78C64.6215 108.771 65.5661 108.629 66.4698 108.353C70.7207 107.053 73.1881 103.152 74.0433 99.9626C74.7869 97.2466 74.5087 94.66 73.3455 93.3686ZM81.0475 83.9146C81.0577 83.948 81.1014 83.9713 81.1451 83.9945C81.7179 84.5514 82.5231 84.6713 83.6044 84.3774C85.2315 83.9533 86.747 82.685 87.7641 80.9834C84.6261 81.6131 82.4598 82.7876 81.0475 83.9146ZM95.8032 83.5769C94.5645 81.3204 92.3637 80.3462 89.4423 80.7267C89.3317 80.7239 89.1978 80.7648 89.0537 80.7723C87.9223 83.0577 86.007 84.8142 83.8676 85.3583C82.4414 85.721 81.2838 85.5259 80.4283 84.7626C80.3744 84.7059 80.3204 84.6491 80.2665 84.5924C78.9054 85.8868 78.4685 86.9719 78.4452 87.0156C78.2825 87.3215 78.0919 87.4163 77.8502 87.3438C77.6084 87.2713 77.416 87.0008 77.4885 86.759L79.0871 78.2188C79.1494 77.9436 79.3967 77.7948 79.6617 77.8236C79.9369 77.8859 80.1192 78.123 80.1006 78.4215C79.9677 79.3038 79.8451 81.5372 80.483 83.0257C82.1426 81.7499 84.6437 80.4732 88.3683 79.8472C88.6965 79.1247 88.927 78.3223 89.0134 77.5273C89.3889 74.9239 88.5129 72.7761 86.5491 71.6196C84.3463 70.2799 80.2656 71.4174 76.7038 74.3725C73.1652 77.2839 70.0322 82.1209 71.8447 87.0932C72.4975 88.87 73.4553 89.968 74.6975 90.3203C76.8091 90.8827 79.3185 89.274 79.8754 88.7012C83.4539 85.0822 89.5347 84.9804 89.6118 84.9934C89.9001 84.9785 90.1158 85.2054 90.0972 85.5039C90.1121 85.7921 89.8853 86.0078 89.597 86.0227C89.2986 86.0041 84.0285 86.0045 80.86 89.1688L80.4965 89.5361C79.4032 90.7486 78.6641 92.4018 78.5313 94.6017C78.2898 98.4817 80.2425 100.081 81.9422 100.732C85.5164 102.129 90.7844 100.445 93.673 96.9642C96.835 93.1797 97.7829 87.1807 95.8032 83.5769ZM116.438 69.731C114.325 67.4857 110.829 66.4678 106.832 66.9209C102.169 67.468 97.9336 69.8969 96.0259 73.115C93.816 76.9012 94.6811 82.1266 96.8913 83.6104C98.5799 84.7046 100.823 83.5431 103.174 80.3361C103.493 79.9456 104.374 79.7131 104.388 80.4774C104.408 80.5443 104.562 89.4275 108.447 92.0827C109.709 92.978 111.235 93.0606 113.102 92.3436C116.354 91.13 118.673 88.2987 119.581 84.3247C120.795 79.1959 119.425 72.9172 116.438 69.731ZM110.818 83.6726C110.889 83.9069 110.716 84.1793 110.482 84.2509C110.449 84.2612 110.449 84.2612 110.415 84.2714C110.137 84.3198 109.865 84.1469 109.816 83.8689L108.788 78.108C108.739 77.83 108.912 77.5575 109.19 77.5092C109.468 77.4608 109.741 77.6337 109.789 77.9117L110.818 83.6726Z" fill="#211C1C"/>
<path d="M43.2099 49.9927C42.0956 47.3218 40.1186 44.8048 38.7558 45.2213C38.7414 45.2256 38.7271 45.23 38.7271 45.23C36.0179 46.1678 37.45 51.1101 37.4631 51.1531C37.5333 51.3826 37.3281 51.4297 37.3281 51.4297C37.1846 51.4735 37.0822 51.395 37.0471 51.2803C36.2301 48.8635 33.5123 47.3101 31.9344 47.7923C31.002 48.0773 30.5557 49.0293 30.6698 50.5316C30.9063 53.7688 32.8961 56.5329 34.6452 57.7394C35.6573 58.4339 36.5922 58.6187 37.1433 58.215C37.3851 58.0313 37.5234 57.8165 37.5636 57.5376C37.6421 56.8705 37.1929 55.8628 36.1727 54.7316C35.6698 54.1638 35.2294 53.7494 35.2207 53.7207C35.147 53.6334 35.1549 53.5055 35.2234 53.4218C35.3107 53.3481 35.4486 53.3373 35.5367 53.4202C35.5554 53.4302 35.9427 53.8764 36.4887 54.4311C38.1309 56.1094 38.7243 56.1006 38.849 56.0468C39.1415 55.926 39.4498 54.9848 39.219 52.8438C39.1017 51.8444 39.0072 51.0733 39.0128 51.0402C38.9965 50.9354 39.0893 50.8286 39.1941 50.8123C39.3176 50.8059 39.4201 50.8844 39.4408 51.0036C39.4408 51.0036 39.5197 51.8264 39.6569 52.7883C39.8495 54.1882 40.3744 55.957 41.3559 56.5511C41.7249 56.7833 42.113 56.8216 42.572 56.6813C42.7298 56.633 42.8832 56.5705 43.0566 56.4704C44.6728 55.6001 44.3024 52.592 43.2099 49.9927ZM53.1152 46.3537C51.8331 43.7497 49.2245 42.1942 47.1875 42.8168C46.2551 43.1018 45.3116 44.5822 44.7132 46.6786C44.1093 48.8081 44.0234 51.093 44.5013 52.6566C45.2071 54.9662 46.5373 55.4694 47.4697 55.1844C47.9144 55.0485 48.3021 54.7261 48.5599 54.2865C49.4173 52.8324 49.3665 49.9462 49.3721 49.9132C49.3701 49.804 49.4386 49.7203 49.5578 49.6996C49.6626 49.6832 49.7606 49.7474 49.7913 49.8478C49.8001 49.8765 50.7495 52.8801 52.686 52.2883C53.2455 52.1173 53.6531 51.7574 53.8802 51.2175C54.3587 50.1144 54.0864 48.2998 53.1152 46.3537ZM49.4812 48.2172C49.4975 48.322 49.4377 48.4344 49.3373 48.4651C49.323 48.4695 49.323 48.4695 49.3086 48.4739C49.1895 48.4946 49.0683 48.4061 49.0476 48.287L48.6111 45.8324C48.5904 45.7132 48.6645 45.5965 48.7836 45.5757C48.9028 45.555 49.0195 45.6291 49.0403 45.7483L49.4812 48.2172ZM62.5008 41.0226C61.595 40.0603 60.0971 39.6241 58.384 39.8183C56.3853 40.0527 54.5703 41.0937 53.7527 42.4729C52.8056 44.0955 53.1764 46.335 54.1236 46.9709C54.8473 47.4398 55.8088 46.9421 56.816 45.5676C56.9531 45.4003 57.3304 45.3006 57.3364 45.6282C57.3452 45.6569 57.4108 49.4639 59.0761 50.6019C59.6169 50.9856 60.2708 51.021 61.0709 50.7137C62.4648 50.1936 63.4585 48.9802 63.8477 47.277C64.368 45.079 63.7808 42.3881 62.5008 41.0226ZM60.092 46.9976C60.1227 47.098 60.0486 47.2147 59.9482 47.2454C59.9338 47.2498 59.9338 47.2498 59.9195 47.2542C59.8004 47.2749 59.6836 47.2008 59.6629 47.0817L59.222 44.6127C59.2012 44.4936 59.2754 44.3768 59.3945 44.3561C59.5136 44.3354 59.6304 44.4095 59.6511 44.5286L60.092 46.9976ZM72.1474 37.6664C71.7943 36.6137 69.9497 35.8129 67.9868 36.3187C67.9008 36.345 67.829 36.3669 67.7573 36.3888C64.4006 37.4148 63.782 40.882 64.2843 43.5517C64.7351 46.002 65.5262 47.564 66.6882 48.3381C67.5518 48.9055 68.6444 49.0421 69.9331 48.7423L70.3678 48.6252C72.2183 48.0596 73.6348 46.6385 73.9698 45.0147C74.1957 43.9575 73.9063 43.0107 73.2049 42.4095C72.6522 41.9353 71.7899 41.8852 70.628 42.2403C69.9107 42.4595 69.0851 42.8373 68.2085 43.3562L66.5875 44.4163C66.4815 44.4801 66.3592 44.439 66.2855 44.3518C66.2261 44.2601 66.2484 44.1278 66.3357 44.0541L67.9566 42.994C68.9241 42.2592 69.405 41.6259 69.2854 41.286C69.1603 40.9792 68.5749 40.8601 67.666 40.9654L66.7559 41.1181C66.6467 41.1201 66.5586 41.0372 66.5423 40.9324C66.5215 40.8132 66.5857 40.7152 66.7004 40.6801L67.5962 40.5318C67.8301 40.476 68.0883 40.3971 68.3752 40.3094C69.0638 40.099 69.8683 39.806 70.7601 39.4394C71.8626 38.9926 72.3722 38.3506 72.1474 37.6664ZM80.2453 32.8544C79.8348 32.3838 79.2861 32.1281 78.7071 32.1325C78.5174 32.1277 78.3365 32.1516 78.1644 32.2043C77.1889 32.5024 76.5176 33.5389 76.5352 34.7255C76.54 35.1005 76.6066 35.4723 76.7405 35.8078C76.8576 35.6779 76.9935 35.5579 77.1337 35.4523C77.4673 35.2092 77.8183 35.0235 78.1482 34.9227C79.0663 34.6421 79.9657 34.9162 80.7583 35.6621C80.8703 35.3612 80.926 35.0305 80.9157 34.6886C80.9049 33.9861 80.6745 33.335 80.2453 32.8544ZM80.5767 36.094C79.9614 35.4665 79.1935 35.0581 78.2754 35.3387C77.9885 35.4264 77.6904 35.5802 77.3812 35.8002C77.2167 35.9289 77.0852 36.0632 76.9624 36.2262C77.3638 36.8721 78.0225 37.2825 78.7437 37.2816C78.929 37.2721 79.1099 37.2481 79.2821 37.1955C79.8272 37.0289 80.2834 36.6228 80.5767 36.094ZM82.1134 38.7614C81.9356 38.2824 81.5295 37.2615 80.8716 36.4431C80.5253 37.0038 80.026 37.423 79.4092 37.6115C79.194 37.6773 78.9701 37.7144 78.7517 37.7184C77.9356 37.7168 77.2152 37.3096 76.7334 36.657C76.1441 38.0134 76.6683 40.1903 77.5988 42.0547C78.859 44.587 80.6822 46.2413 81.8154 45.895C81.8585 45.8818 81.8828 45.8587 81.9258 45.8455C83.1487 45.3306 83.2369 41.8216 82.1134 38.7614ZM90.9552 33.6435C89.7018 31.5954 88.2082 30.6089 86.9315 30.9991C86.8742 31.0166 86.8168 31.0342 86.7594 31.0517C86.1888 31.2889 85.8529 31.6268 85.7175 32.1074C85.3745 33.2945 86.3062 35.1115 87.2953 36.3463C88.1645 37.4452 88.9061 38.3322 88.9105 38.3465C88.9699 38.4382 88.9619 38.5661 88.8747 38.6398C88.7874 38.7135 88.6452 38.71 88.5714 38.6227C88.5439 38.5841 87.831 37.6883 86.9563 36.6225C85.2243 34.5481 83.6522 33.664 82.7342 33.9446C82.6624 33.9665 82.5907 33.9884 82.5377 34.0203C81.7053 34.4786 82.014 37.4899 83.1646 40.2282C83.9573 42.1034 85.2385 43.9861 86.4303 43.5748C86.8663 43.4102 87.138 43.1703 87.2755 42.7989C87.536 42.0605 87.2032 40.7662 86.2025 39.2369C85.7637 38.5711 85.4338 38.1073 85.415 38.0973C85.3513 37.9913 85.3879 37.8547 85.4796 37.7953C85.5712 37.7359 85.7035 37.7582 85.7772 37.8455C85.796 37.8554 86.1016 38.3423 86.5647 38.9851C87.4853 40.3036 89.3607 42.3341 90.953 41.8474C91.2542 41.7554 91.5435 41.5728 91.8208 41.2999C93.2628 39.8083 92.4955 36.1686 90.9552 33.6435Z" fill="#211C1C"/>
</g>
</g>
<defs>
<filter id="filter0_d_16_50" x="-1" y="0.484375" width="135.268" height="136.555" filterUnits="userSpaceOnUse" color-interpolation-filters="sRGB">
<feFlood flood-opacity="0" result="BackgroundImageFix"/>
<feColorMatrix in="SourceAlpha" type="matrix" values="0 0 0 0 0 0 0 0 0 0 0 0 0 0 0 0 0 0 127 0" result="hardAlpha"/>
<feOffset dy="4"/>
<feGaussianBlur stdDeviation="2"/>
<feComposite in2="hardAlpha" operator="out"/>
<feColorMatrix type="matrix" values="0 0 0 0 0 0 0 0 0 0 0 0 0 0 0 0 0 0 0.25 0"/>
<feBlend mode="normal" in2="BackgroundImageFix" result="effect1_dropShadow_16_50"/>
<feBlend mode="normal" in="SourceGraphic" in2="effect1_dropShadow_16_50" result="shape"/>
</filter>
<clipPath id="clip0_16_50">
<rect x="3" y="26.3584" width="104.214" height="106" rx="7" transform="rotate(-14.3756 3 26.3584)" fill="white"/>
</clipPath>
</defs>
</svg>
