<svg width="295" height="199" viewBox="0 0 295 199" fill="none" xmlns="http://www.w3.org/2000/svg">
<ellipse cx="132.669" cy="57.9718" rx="132.669" ry="57.9718" transform="matrix(0.966837 -0.255393 0.261131 0.965303 4.07617 77.4585)" fill="#2965FF"/>
<path d="M115.258 100.053C113.216 94.8521 110.338 92.3799 107.374 93.215C105.295 93.8008 103.389 95.9997 102.833 98.4005C101.944 102.1 102.569 109.03 103.033 112.806C103.235 114.37 103.407 115.401 103.418 115.44C103.419 115.731 103.216 116.037 102.897 116.085C102.567 116.095 102.297 115.881 102.246 115.562C102.246 115.562 102.112 114.52 101.9 112.917C101.291 108.642 98.7142 94.6572 93.6909 95.2828C92.4531 95.4653 91.4421 96.2903 90.6804 97.8347C88.0719 103.224 89.6312 114.836 91.8215 120.12C93.818 124.877 97.708 127.105 102.16 124.355C105.359 122.456 106.45 117.869 106.439 117.83C106.499 117.606 106.659 117.436 106.851 117.382C106.928 117.36 106.967 117.349 107.055 117.366C107.308 117.378 107.528 117.565 107.606 117.834C107.617 117.872 108.179 120.831 109.843 121.983C110.45 122.352 111.066 122.469 111.809 122.302C112.975 122.015 114.326 120.637 115.296 118.66C117.247 114.744 118.245 107.814 115.258 100.053ZM134.067 98.9513C131.796 99.5913 129.663 100.857 127.955 102.585C128.964 103.63 130.082 103.897 131.281 103.435C132.738 102.858 134.039 101.162 134.964 98.7403C134.645 98.7886 134.375 98.8646 134.067 98.9513ZM141.345 100.225C140.204 99.0095 138.441 98.384 136.24 98.5469C135.251 101.61 133.588 103.782 131.718 104.517C131.564 104.56 131.41 104.604 131.256 104.647C130.216 104.94 128.681 104.957 127.17 103.471C126.275 104.554 125.579 105.748 125.081 107.052C124.993 107.326 124.696 107.451 124.432 107.401C124.168 107.35 123.936 107.125 123.935 106.834L123.709 95.8023C123.697 95.4731 123.923 95.2435 124.203 95.206C124.522 95.1576 124.792 95.3724 124.842 95.6907C124.854 95.7292 125.593 99.3025 127.232 101.666C129.045 99.8677 131.32 98.5201 133.746 97.8368C134.285 97.6849 134.835 97.5715 135.385 97.4581C136.664 92.9423 136.398 87.116 133.637 84.902C132.126 83.7068 129.523 83.4845 126.674 84.2872C121.476 85.7514 116.169 90.4462 116.888 97.2668C118.206 109.487 119.813 117.512 129.945 117.566C131.073 117.581 132.157 117.442 133.197 117.149C138.087 115.771 140.983 111.381 142.021 107.764C142.923 104.685 142.653 101.727 141.345 100.225ZM150.337 89.6305C150.348 89.6689 150.398 89.6965 150.447 89.7241C151.093 90.3734 152.012 90.53 153.255 90.2213C155.125 89.7776 156.883 88.368 158.079 86.452C154.476 87.0931 151.974 88.3796 150.337 89.6305ZM167.232 89.6081C165.857 87.0037 163.356 85.8382 160.005 86.2004C159.878 86.1945 159.724 86.2379 159.559 86.2428C158.222 88.8221 155.997 90.7787 153.538 91.3467C151.899 91.7254 150.577 91.4743 149.613 90.5826C149.552 90.5166 149.491 90.4505 149.431 90.3845C147.849 91.8275 147.328 93.0546 147.301 93.1039C147.109 93.4488 146.889 93.5523 146.614 93.4637C146.338 93.375 146.123 93.0617 146.21 92.7877L148.199 83.0851C148.276 82.7726 148.561 82.609 148.864 82.6484C149.178 82.7262 149.382 83.0011 149.355 83.3411C149.187 84.3444 149.005 86.889 149.708 88.6027C151.631 87.1882 154.517 85.7932 158.792 85.1707C159.181 84.3547 159.46 83.445 159.574 82.5403C160.052 79.5797 159.089 77.1082 156.863 75.7407C154.367 74.1584 149.675 75.3555 145.543 78.6389C141.439 81.8729 137.763 87.3135 139.745 93.0301C140.459 95.073 141.534 96.3491 142.95 96.7815C145.356 97.4749 148.258 95.7015 148.906 95.0618C153.07 91.0216 160.031 91.055 160.12 91.0717C160.45 91.0618 160.692 91.3259 160.666 91.6659C160.677 91.9951 160.414 92.2356 160.083 92.2455C159.742 92.217 153.71 92.0878 150.025 95.6194L149.602 96.0295C148.328 97.3857 147.451 99.2534 147.258 101.76C146.91 106.18 149.115 108.052 151.048 108.837C155.113 110.518 161.174 108.727 164.545 104.827C168.235 100.588 169.431 93.7676 167.232 89.6081ZM191.109 74.3212C188.731 71.708 184.75 70.461 180.166 70.8795C174.818 71.3889 169.925 74.0555 167.682 77.6795C165.082 81.9442 165.975 87.9261 168.477 89.673C170.39 90.9627 172.979 89.693 175.729 86.0925C176.102 85.6549 177.114 85.4113 177.116 86.2835C177.138 86.3604 177.148 96.4973 181.546 99.6216C182.974 100.674 184.719 100.806 186.869 100.034C190.614 98.7293 193.321 95.5566 194.434 91.0457C195.919 85.2251 194.468 78.0292 191.109 74.3212ZM184.416 90.0864C184.493 90.3555 184.29 90.662 184.021 90.7379C183.982 90.7487 183.982 90.7487 183.944 90.7596C183.625 90.8079 183.316 90.604 183.266 90.2857L182.196 83.6889C182.146 83.3705 182.349 83.064 182.668 83.0157C182.987 82.9673 183.295 83.1713 183.346 83.4896L184.416 90.0864Z" fill="black"/>
<path d="M61.2427 114.646L62.3464 122.26L69.0359 124.052L62.2339 125.353L60.5801 132.867L59.4764 125.252L52.7868 123.461L59.5888 122.16L61.2427 114.646Z" fill="#D9D9D9"/>
<path d="M232.455 59.6954L233.559 67.3101L240.248 69.1016L233.446 70.4024L231.792 77.9169L230.689 70.3022L223.999 68.5107L230.801 67.2098L232.455 59.6954Z" fill="#D9D9D9"/>
</svg>
