<svg width="41" height="35" viewBox="0 0 41 35" fill="none" xmlns="http://www.w3.org/2000/svg">
<path d="M40.9842 4.75016C39.4762 5.43558 37.8508 5.886 36.1667 6.10141C37.89 5.0635 39.2217 3.4185 39.8483 1.44058C38.2229 2.41975 36.4212 3.10516 34.5217 3.49683C32.9746 1.81266 30.8008 0.833496 28.3333 0.833496C23.7313 0.833496 19.9712 4.5935 19.9712 9.23475C19.9712 9.90058 20.0496 10.5468 20.1867 11.1539C13.215 10.8014 7.00708 7.45266 2.875 2.38058C2.15042 3.61433 1.73917 5.0635 1.73917 6.591C1.73917 9.50891 3.20792 12.0939 5.47958 13.5627C4.08917 13.5627 2.79667 13.171 1.66083 12.5835V12.6422C1.66083 16.7156 4.55917 20.1231 8.3975 20.8868C7.16517 21.2241 5.87144 21.271 4.61792 21.0239C5.14981 22.6934 6.19151 24.1541 7.59657 25.2009C9.00164 26.2477 10.6994 26.8278 12.4513 26.8597C9.48169 29.2106 5.80074 30.4813 2.01333 30.4631C1.3475 30.4631 0.681667 30.4239 0.0158334 30.3456C3.73667 32.7347 8.1625 34.1252 12.9017 34.1252C28.3333 34.1252 36.8129 21.3177 36.8129 10.2139C36.8129 9.84183 36.8129 9.48933 36.7933 9.11725C38.4383 7.94225 39.8483 6.45391 40.9842 4.75016Z" fill="#0B89E6"/>
</svg>
