<svg xmlns="http://www.w3.org/2000/svg" xmlns:xlink="http://www.w3.org/1999/xlink" version="1.1" style="shape-rendering:geometricPrecision; text-rendering:geometricPrecision; image-rendering:optimizeQuality; fill-rule:evenodd; clip-rule:evenodd" viewBox="124.61 100.47 326.86 230.03">
<g><path style="opacity:1" fill="#ff7327" d="M 422.5,109.5 C 422.821,111.048 423.821,111.715 425.5,111.5C 430.043,113.372 433.71,116.372 436.5,120.5C 436.427,122.027 437.094,123.027 438.5,123.5C 440.81,126.102 442.643,129.102 444,132.5C 446.818,140.258 448.485,148.258 449,156.5C 452.602,198.217 452.269,239.883 448,281.5C 446.841,301.697 437.008,315.531 418.5,323C 408.342,325.728 398.009,327.395 387.5,328C 321.167,331.333 254.833,331.333 188.5,328C 177.991,327.395 167.658,325.728 157.5,323C 153.44,321.311 149.773,319.144 146.5,316.5C 146.027,315.094 145.027,314.427 143.5,314.5C 138.757,311.249 135.257,306.915 133,301.5C 129.052,289.482 126.719,277.149 126,264.5C 123.424,223.736 124.424,183.07 129,142.5C 132.411,124.265 142.911,112.598 160.5,107.5C 163.152,107.59 165.485,106.924 167.5,105.5C 173.294,104.215 179.294,103.382 185.5,103C 240.473,100.547 295.473,99.8802 350.5,101C 367.189,101.668 383.856,102.668 400.5,104C 408.186,104.588 415.519,106.422 422.5,109.5 Z M 257.5,168.5 C 257.842,169.338 258.508,169.672 259.5,169.5C 259.973,170.906 260.973,171.573 262.5,171.5C 265.24,173.56 268.24,175.226 271.5,176.5C 271.973,177.906 272.973,178.573 274.5,178.5C 275.514,179.674 276.847,180.34 278.5,180.5C 278.973,181.906 279.973,182.573 281.5,182.5C 281.842,183.338 282.508,183.672 283.5,183.5C 283.973,184.906 284.973,185.573 286.5,185.5C 287.514,186.674 288.847,187.34 290.5,187.5C 290.973,188.906 291.973,189.573 293.5,189.5C 293.973,190.906 294.973,191.573 296.5,191.5C 296.833,191.5 297.167,191.5 297.5,191.5C 297.973,192.906 298.973,193.573 300.5,193.5C 300.842,194.338 301.508,194.672 302.5,194.5C 302.973,195.906 303.973,196.573 305.5,196.5C 310.502,200.003 315.835,203.003 321.5,205.5C 321.973,206.906 322.973,207.573 324.5,207.5C 324.842,208.338 325.508,208.672 326.5,208.5C 326.973,209.906 327.973,210.573 329.5,210.5C 330.514,211.674 331.847,212.34 333.5,212.5C 333.973,213.906 334.973,214.573 336.5,214.5C 335.63,216.274 334.297,217.607 332.5,218.5C 330.973,218.427 329.973,219.094 329.5,220.5C 327.938,220.733 326.605,221.4 325.5,222.5C 323.973,222.427 322.973,223.094 322.5,224.5C 321.508,224.328 320.842,224.662 320.5,225.5C 318.973,225.427 317.973,226.094 317.5,227.5C 311.87,229.981 306.537,232.981 301.5,236.5C 299.973,236.427 298.973,237.094 298.5,238.5C 295.262,239.738 292.262,241.404 289.5,243.5C 287.973,243.427 286.973,244.094 286.5,245.5C 283.331,246.917 280.331,248.583 277.5,250.5C 275.973,250.427 274.973,251.094 274.5,252.5C 271.331,253.917 268.331,255.583 265.5,257.5C 263.973,257.427 262.973,258.094 262.5,259.5C 261.508,259.328 260.842,259.662 260.5,260.5C 258.973,260.427 257.973,261.094 257.5,262.5C 257.167,262.5 256.833,262.5 256.5,262.5C 255.833,247.004 255.5,231.337 255.5,215.5C 255.501,199.485 256.167,183.819 257.5,168.5 Z"/></g>
<g><path style="opacity:0.953" fill="#ffa979" d="M 167.5,105.5 C 165.485,106.924 163.152,107.59 160.5,107.5C 162.515,106.076 164.848,105.41 167.5,105.5 Z"/></g>
<g><path style="opacity:0.965" fill="#ffb58e" d="M 422.5,109.5 C 423.71,109.932 424.71,110.599 425.5,111.5C 423.821,111.715 422.821,111.048 422.5,109.5 Z"/></g>
<g><path style="opacity:0.537" fill="#ffc3a0" d="M 436.5,120.5 C 437.906,120.973 438.573,121.973 438.5,123.5C 437.094,123.027 436.427,122.027 436.5,120.5 Z"/></g>
<g><path style="opacity:0.333" fill="#ffcfb5" d="M 259.5,169.5 C 261.027,169.427 262.027,170.094 262.5,171.5C 260.973,171.573 259.973,170.906 259.5,169.5 Z"/></g>
<g><path style="opacity:0.439" fill="#ffcaac" d="M 271.5,176.5 C 273.027,176.427 274.027,177.094 274.5,178.5C 272.973,178.573 271.973,177.906 271.5,176.5 Z"/></g>
<g><path style="opacity:0.475" fill="#ffc5a5" d="M 278.5,180.5 C 280.027,180.427 281.027,181.094 281.5,182.5C 279.973,182.573 278.973,181.906 278.5,180.5 Z"/></g>
<g><path style="opacity:0.349" fill="#ffcfb3" d="M 283.5,183.5 C 285.027,183.427 286.027,184.094 286.5,185.5C 284.973,185.573 283.973,184.906 283.5,183.5 Z"/></g>
<g><path style="opacity:0.486" fill="#ffc6a6" d="M 290.5,187.5 C 292.027,187.427 293.027,188.094 293.5,189.5C 291.973,189.573 290.973,188.906 290.5,187.5 Z"/></g>
<g><path style="opacity:0.325" fill="#ffd1b8" d="M 293.5,189.5 C 295.027,189.427 296.027,190.094 296.5,191.5C 294.973,191.573 293.973,190.906 293.5,189.5 Z"/></g>
<g><path style="opacity:0.631" fill="#ffb48d" d="M 297.5,191.5 C 299.027,191.427 300.027,192.094 300.5,193.5C 298.973,193.573 297.973,192.906 297.5,191.5 Z"/></g>
<g><path style="opacity:0.428" fill="#ffc2a0" d="M 257.5,168.5 C 256.167,183.819 255.501,199.485 255.5,215.5C 255.5,231.337 255.833,247.004 256.5,262.5C 256.44,263.043 256.107,263.376 255.5,263.5C 254.5,231.507 254.167,199.507 254.5,167.5C 255.791,167.263 256.791,167.596 257.5,168.5 Z"/></g>
<g><path style="opacity:0.388" fill="#ffcbad" d="M 302.5,194.5 C 304.027,194.427 305.027,195.094 305.5,196.5C 303.973,196.573 302.973,195.906 302.5,194.5 Z"/></g>
<g><path style="opacity:0.541" fill="#ffbe9b" d="M 321.5,205.5 C 323.027,205.427 324.027,206.094 324.5,207.5C 322.973,207.573 321.973,206.906 321.5,205.5 Z"/></g>
<g><path style="opacity:0.408" fill="#ffccaf" d="M 326.5,208.5 C 328.027,208.427 329.027,209.094 329.5,210.5C 327.973,210.573 326.973,209.906 326.5,208.5 Z"/></g>
<g><path style="opacity:0.541" fill="#ffbf9b" d="M 333.5,212.5 C 335.027,212.427 336.027,213.094 336.5,214.5C 334.973,214.573 333.973,213.906 333.5,212.5 Z"/></g>
<g><path style="opacity:0.737" fill="#ffc19b" d="M 332.5,218.5 C 332.027,219.906 331.027,220.573 329.5,220.5C 329.973,219.094 330.973,218.427 332.5,218.5 Z"/></g>
<g><path style="opacity:0.706" fill="#ffc6a6" d="M 325.5,222.5 C 325.027,223.906 324.027,224.573 322.5,224.5C 322.973,223.094 323.973,222.427 325.5,222.5 Z"/></g>
<g><path style="opacity:0.843" fill="#ffb992" d="M 320.5,225.5 C 320.027,226.906 319.027,227.573 317.5,227.5C 317.973,226.094 318.973,225.427 320.5,225.5 Z"/></g>
<g><path style="opacity:0.788" fill="#ffc09c" d="M 301.5,236.5 C 301.027,237.906 300.027,238.573 298.5,238.5C 298.973,237.094 299.973,236.427 301.5,236.5 Z"/></g>
<g><path style="opacity:0.765" fill="#ffbe9b" d="M 289.5,243.5 C 289.027,244.906 288.027,245.573 286.5,245.5C 286.973,244.094 287.973,243.427 289.5,243.5 Z"/></g>
<g><path style="opacity:0.769" fill="#ffbe97" d="M 277.5,250.5 C 277.027,251.906 276.027,252.573 274.5,252.5C 274.973,251.094 275.973,250.427 277.5,250.5 Z"/></g>
<g><path style="opacity:0.851" fill="#ffb991" d="M 265.5,257.5 C 265.027,258.906 264.027,259.573 262.5,259.5C 262.973,258.094 263.973,257.427 265.5,257.5 Z"/></g>
<g><path style="opacity:0.725" fill="#ffbf99" d="M 260.5,260.5 C 260.027,261.906 259.027,262.573 257.5,262.5C 257.973,261.094 258.973,260.427 260.5,260.5 Z"/></g>
<g><path style="opacity:0.596" fill="#ffbe99" d="M 143.5,314.5 C 145.027,314.427 146.027,315.094 146.5,316.5C 144.973,316.573 143.973,315.906 143.5,314.5 Z"/></g>
</svg>